G04 #@! TF.GenerationSoftware,KiCad,Pcbnew,(5.1.2)-1*
G04 #@! TF.CreationDate,2019-05-23T00:03:13+02:00*
G04 #@! TF.ProjectId,DualStepperI2C_PCB_2,4475616c-5374-4657-9070-65724932435f,rev?*
G04 #@! TF.SameCoordinates,Original*
G04 #@! TF.FileFunction,Copper,L1,Top*
G04 #@! TF.FilePolarity,Positive*
%FSLAX46Y46*%
G04 Gerber Fmt 4.6, Leading zero omitted, Abs format (unit mm)*
G04 Created by KiCad (PCBNEW (5.1.2)-1) date 2019-05-23 00:03:13*
%MOMM*%
%LPD*%
G04 APERTURE LIST*
%ADD10C,5.999480*%
%ADD11O,1.600000X1.600000*%
%ADD12R,1.600000X1.600000*%
%ADD13C,0.100000*%
%ADD14C,0.975000*%
%ADD15O,1.700000X1.700000*%
%ADD16R,1.700000X1.700000*%
%ADD17R,0.650000X1.060000*%
%ADD18C,1.600000*%
%ADD19C,0.800000*%
%ADD20C,0.250000*%
%ADD21C,1.750000*%
%ADD22C,1.000000*%
G04 APERTURE END LIST*
D10*
X196850000Y-106680000D03*
X231140000Y-106680000D03*
D11*
X200660000Y-97790000D03*
X213360000Y-80010000D03*
X200660000Y-95250000D03*
X213360000Y-82550000D03*
X200660000Y-92710000D03*
X213360000Y-85090000D03*
X200660000Y-90170000D03*
X213360000Y-87630000D03*
X200660000Y-87630000D03*
X213360000Y-90170000D03*
X200660000Y-85090000D03*
X213360000Y-92710000D03*
X200660000Y-82550000D03*
X213360000Y-95250000D03*
X200660000Y-80010000D03*
D12*
X213360000Y-97790000D03*
D13*
G36*
X176465142Y-102171174D02*
G01*
X176488803Y-102174684D01*
X176512007Y-102180496D01*
X176534529Y-102188554D01*
X176556153Y-102198782D01*
X176576670Y-102211079D01*
X176595883Y-102225329D01*
X176613607Y-102241393D01*
X176629671Y-102259117D01*
X176643921Y-102278330D01*
X176656218Y-102298847D01*
X176666446Y-102320471D01*
X176674504Y-102342993D01*
X176680316Y-102366197D01*
X176683826Y-102389858D01*
X176685000Y-102413750D01*
X176685000Y-103326250D01*
X176683826Y-103350142D01*
X176680316Y-103373803D01*
X176674504Y-103397007D01*
X176666446Y-103419529D01*
X176656218Y-103441153D01*
X176643921Y-103461670D01*
X176629671Y-103480883D01*
X176613607Y-103498607D01*
X176595883Y-103514671D01*
X176576670Y-103528921D01*
X176556153Y-103541218D01*
X176534529Y-103551446D01*
X176512007Y-103559504D01*
X176488803Y-103565316D01*
X176465142Y-103568826D01*
X176441250Y-103570000D01*
X175953750Y-103570000D01*
X175929858Y-103568826D01*
X175906197Y-103565316D01*
X175882993Y-103559504D01*
X175860471Y-103551446D01*
X175838847Y-103541218D01*
X175818330Y-103528921D01*
X175799117Y-103514671D01*
X175781393Y-103498607D01*
X175765329Y-103480883D01*
X175751079Y-103461670D01*
X175738782Y-103441153D01*
X175728554Y-103419529D01*
X175720496Y-103397007D01*
X175714684Y-103373803D01*
X175711174Y-103350142D01*
X175710000Y-103326250D01*
X175710000Y-102413750D01*
X175711174Y-102389858D01*
X175714684Y-102366197D01*
X175720496Y-102342993D01*
X175728554Y-102320471D01*
X175738782Y-102298847D01*
X175751079Y-102278330D01*
X175765329Y-102259117D01*
X175781393Y-102241393D01*
X175799117Y-102225329D01*
X175818330Y-102211079D01*
X175838847Y-102198782D01*
X175860471Y-102188554D01*
X175882993Y-102180496D01*
X175906197Y-102174684D01*
X175929858Y-102171174D01*
X175953750Y-102170000D01*
X176441250Y-102170000D01*
X176465142Y-102171174D01*
X176465142Y-102171174D01*
G37*
D14*
X176197500Y-102870000D03*
D13*
G36*
X174590142Y-102171174D02*
G01*
X174613803Y-102174684D01*
X174637007Y-102180496D01*
X174659529Y-102188554D01*
X174681153Y-102198782D01*
X174701670Y-102211079D01*
X174720883Y-102225329D01*
X174738607Y-102241393D01*
X174754671Y-102259117D01*
X174768921Y-102278330D01*
X174781218Y-102298847D01*
X174791446Y-102320471D01*
X174799504Y-102342993D01*
X174805316Y-102366197D01*
X174808826Y-102389858D01*
X174810000Y-102413750D01*
X174810000Y-103326250D01*
X174808826Y-103350142D01*
X174805316Y-103373803D01*
X174799504Y-103397007D01*
X174791446Y-103419529D01*
X174781218Y-103441153D01*
X174768921Y-103461670D01*
X174754671Y-103480883D01*
X174738607Y-103498607D01*
X174720883Y-103514671D01*
X174701670Y-103528921D01*
X174681153Y-103541218D01*
X174659529Y-103551446D01*
X174637007Y-103559504D01*
X174613803Y-103565316D01*
X174590142Y-103568826D01*
X174566250Y-103570000D01*
X174078750Y-103570000D01*
X174054858Y-103568826D01*
X174031197Y-103565316D01*
X174007993Y-103559504D01*
X173985471Y-103551446D01*
X173963847Y-103541218D01*
X173943330Y-103528921D01*
X173924117Y-103514671D01*
X173906393Y-103498607D01*
X173890329Y-103480883D01*
X173876079Y-103461670D01*
X173863782Y-103441153D01*
X173853554Y-103419529D01*
X173845496Y-103397007D01*
X173839684Y-103373803D01*
X173836174Y-103350142D01*
X173835000Y-103326250D01*
X173835000Y-102413750D01*
X173836174Y-102389858D01*
X173839684Y-102366197D01*
X173845496Y-102342993D01*
X173853554Y-102320471D01*
X173863782Y-102298847D01*
X173876079Y-102278330D01*
X173890329Y-102259117D01*
X173906393Y-102241393D01*
X173924117Y-102225329D01*
X173943330Y-102211079D01*
X173963847Y-102198782D01*
X173985471Y-102188554D01*
X174007993Y-102180496D01*
X174031197Y-102174684D01*
X174054858Y-102171174D01*
X174078750Y-102170000D01*
X174566250Y-102170000D01*
X174590142Y-102171174D01*
X174590142Y-102171174D01*
G37*
D14*
X174322500Y-102870000D03*
D13*
G36*
X169390142Y-77921174D02*
G01*
X169413803Y-77924684D01*
X169437007Y-77930496D01*
X169459529Y-77938554D01*
X169481153Y-77948782D01*
X169501670Y-77961079D01*
X169520883Y-77975329D01*
X169538607Y-77991393D01*
X169554671Y-78009117D01*
X169568921Y-78028330D01*
X169581218Y-78048847D01*
X169591446Y-78070471D01*
X169599504Y-78092993D01*
X169605316Y-78116197D01*
X169608826Y-78139858D01*
X169610000Y-78163750D01*
X169610000Y-78651250D01*
X169608826Y-78675142D01*
X169605316Y-78698803D01*
X169599504Y-78722007D01*
X169591446Y-78744529D01*
X169581218Y-78766153D01*
X169568921Y-78786670D01*
X169554671Y-78805883D01*
X169538607Y-78823607D01*
X169520883Y-78839671D01*
X169501670Y-78853921D01*
X169481153Y-78866218D01*
X169459529Y-78876446D01*
X169437007Y-78884504D01*
X169413803Y-78890316D01*
X169390142Y-78893826D01*
X169366250Y-78895000D01*
X168453750Y-78895000D01*
X168429858Y-78893826D01*
X168406197Y-78890316D01*
X168382993Y-78884504D01*
X168360471Y-78876446D01*
X168338847Y-78866218D01*
X168318330Y-78853921D01*
X168299117Y-78839671D01*
X168281393Y-78823607D01*
X168265329Y-78805883D01*
X168251079Y-78786670D01*
X168238782Y-78766153D01*
X168228554Y-78744529D01*
X168220496Y-78722007D01*
X168214684Y-78698803D01*
X168211174Y-78675142D01*
X168210000Y-78651250D01*
X168210000Y-78163750D01*
X168211174Y-78139858D01*
X168214684Y-78116197D01*
X168220496Y-78092993D01*
X168228554Y-78070471D01*
X168238782Y-78048847D01*
X168251079Y-78028330D01*
X168265329Y-78009117D01*
X168281393Y-77991393D01*
X168299117Y-77975329D01*
X168318330Y-77961079D01*
X168338847Y-77948782D01*
X168360471Y-77938554D01*
X168382993Y-77930496D01*
X168406197Y-77924684D01*
X168429858Y-77921174D01*
X168453750Y-77920000D01*
X169366250Y-77920000D01*
X169390142Y-77921174D01*
X169390142Y-77921174D01*
G37*
D14*
X168910000Y-78407500D03*
D13*
G36*
X169390142Y-76046174D02*
G01*
X169413803Y-76049684D01*
X169437007Y-76055496D01*
X169459529Y-76063554D01*
X169481153Y-76073782D01*
X169501670Y-76086079D01*
X169520883Y-76100329D01*
X169538607Y-76116393D01*
X169554671Y-76134117D01*
X169568921Y-76153330D01*
X169581218Y-76173847D01*
X169591446Y-76195471D01*
X169599504Y-76217993D01*
X169605316Y-76241197D01*
X169608826Y-76264858D01*
X169610000Y-76288750D01*
X169610000Y-76776250D01*
X169608826Y-76800142D01*
X169605316Y-76823803D01*
X169599504Y-76847007D01*
X169591446Y-76869529D01*
X169581218Y-76891153D01*
X169568921Y-76911670D01*
X169554671Y-76930883D01*
X169538607Y-76948607D01*
X169520883Y-76964671D01*
X169501670Y-76978921D01*
X169481153Y-76991218D01*
X169459529Y-77001446D01*
X169437007Y-77009504D01*
X169413803Y-77015316D01*
X169390142Y-77018826D01*
X169366250Y-77020000D01*
X168453750Y-77020000D01*
X168429858Y-77018826D01*
X168406197Y-77015316D01*
X168382993Y-77009504D01*
X168360471Y-77001446D01*
X168338847Y-76991218D01*
X168318330Y-76978921D01*
X168299117Y-76964671D01*
X168281393Y-76948607D01*
X168265329Y-76930883D01*
X168251079Y-76911670D01*
X168238782Y-76891153D01*
X168228554Y-76869529D01*
X168220496Y-76847007D01*
X168214684Y-76823803D01*
X168211174Y-76800142D01*
X168210000Y-76776250D01*
X168210000Y-76288750D01*
X168211174Y-76264858D01*
X168214684Y-76241197D01*
X168220496Y-76217993D01*
X168228554Y-76195471D01*
X168238782Y-76173847D01*
X168251079Y-76153330D01*
X168265329Y-76134117D01*
X168281393Y-76116393D01*
X168299117Y-76100329D01*
X168318330Y-76086079D01*
X168338847Y-76073782D01*
X168360471Y-76063554D01*
X168382993Y-76055496D01*
X168406197Y-76049684D01*
X168429858Y-76046174D01*
X168453750Y-76045000D01*
X169366250Y-76045000D01*
X169390142Y-76046174D01*
X169390142Y-76046174D01*
G37*
D14*
X168910000Y-76532500D03*
D13*
G36*
X165035142Y-80581174D02*
G01*
X165058803Y-80584684D01*
X165082007Y-80590496D01*
X165104529Y-80598554D01*
X165126153Y-80608782D01*
X165146670Y-80621079D01*
X165165883Y-80635329D01*
X165183607Y-80651393D01*
X165199671Y-80669117D01*
X165213921Y-80688330D01*
X165226218Y-80708847D01*
X165236446Y-80730471D01*
X165244504Y-80752993D01*
X165250316Y-80776197D01*
X165253826Y-80799858D01*
X165255000Y-80823750D01*
X165255000Y-81736250D01*
X165253826Y-81760142D01*
X165250316Y-81783803D01*
X165244504Y-81807007D01*
X165236446Y-81829529D01*
X165226218Y-81851153D01*
X165213921Y-81871670D01*
X165199671Y-81890883D01*
X165183607Y-81908607D01*
X165165883Y-81924671D01*
X165146670Y-81938921D01*
X165126153Y-81951218D01*
X165104529Y-81961446D01*
X165082007Y-81969504D01*
X165058803Y-81975316D01*
X165035142Y-81978826D01*
X165011250Y-81980000D01*
X164523750Y-81980000D01*
X164499858Y-81978826D01*
X164476197Y-81975316D01*
X164452993Y-81969504D01*
X164430471Y-81961446D01*
X164408847Y-81951218D01*
X164388330Y-81938921D01*
X164369117Y-81924671D01*
X164351393Y-81908607D01*
X164335329Y-81890883D01*
X164321079Y-81871670D01*
X164308782Y-81851153D01*
X164298554Y-81829529D01*
X164290496Y-81807007D01*
X164284684Y-81783803D01*
X164281174Y-81760142D01*
X164280000Y-81736250D01*
X164280000Y-80823750D01*
X164281174Y-80799858D01*
X164284684Y-80776197D01*
X164290496Y-80752993D01*
X164298554Y-80730471D01*
X164308782Y-80708847D01*
X164321079Y-80688330D01*
X164335329Y-80669117D01*
X164351393Y-80651393D01*
X164369117Y-80635329D01*
X164388330Y-80621079D01*
X164408847Y-80608782D01*
X164430471Y-80598554D01*
X164452993Y-80590496D01*
X164476197Y-80584684D01*
X164499858Y-80581174D01*
X164523750Y-80580000D01*
X165011250Y-80580000D01*
X165035142Y-80581174D01*
X165035142Y-80581174D01*
G37*
D14*
X164767500Y-81280000D03*
D13*
G36*
X163160142Y-80581174D02*
G01*
X163183803Y-80584684D01*
X163207007Y-80590496D01*
X163229529Y-80598554D01*
X163251153Y-80608782D01*
X163271670Y-80621079D01*
X163290883Y-80635329D01*
X163308607Y-80651393D01*
X163324671Y-80669117D01*
X163338921Y-80688330D01*
X163351218Y-80708847D01*
X163361446Y-80730471D01*
X163369504Y-80752993D01*
X163375316Y-80776197D01*
X163378826Y-80799858D01*
X163380000Y-80823750D01*
X163380000Y-81736250D01*
X163378826Y-81760142D01*
X163375316Y-81783803D01*
X163369504Y-81807007D01*
X163361446Y-81829529D01*
X163351218Y-81851153D01*
X163338921Y-81871670D01*
X163324671Y-81890883D01*
X163308607Y-81908607D01*
X163290883Y-81924671D01*
X163271670Y-81938921D01*
X163251153Y-81951218D01*
X163229529Y-81961446D01*
X163207007Y-81969504D01*
X163183803Y-81975316D01*
X163160142Y-81978826D01*
X163136250Y-81980000D01*
X162648750Y-81980000D01*
X162624858Y-81978826D01*
X162601197Y-81975316D01*
X162577993Y-81969504D01*
X162555471Y-81961446D01*
X162533847Y-81951218D01*
X162513330Y-81938921D01*
X162494117Y-81924671D01*
X162476393Y-81908607D01*
X162460329Y-81890883D01*
X162446079Y-81871670D01*
X162433782Y-81851153D01*
X162423554Y-81829529D01*
X162415496Y-81807007D01*
X162409684Y-81783803D01*
X162406174Y-81760142D01*
X162405000Y-81736250D01*
X162405000Y-80823750D01*
X162406174Y-80799858D01*
X162409684Y-80776197D01*
X162415496Y-80752993D01*
X162423554Y-80730471D01*
X162433782Y-80708847D01*
X162446079Y-80688330D01*
X162460329Y-80669117D01*
X162476393Y-80651393D01*
X162494117Y-80635329D01*
X162513330Y-80621079D01*
X162533847Y-80608782D01*
X162555471Y-80598554D01*
X162577993Y-80590496D01*
X162601197Y-80584684D01*
X162624858Y-80581174D01*
X162648750Y-80580000D01*
X163136250Y-80580000D01*
X163160142Y-80581174D01*
X163160142Y-80581174D01*
G37*
D14*
X162892500Y-81280000D03*
D13*
G36*
X165035142Y-84391174D02*
G01*
X165058803Y-84394684D01*
X165082007Y-84400496D01*
X165104529Y-84408554D01*
X165126153Y-84418782D01*
X165146670Y-84431079D01*
X165165883Y-84445329D01*
X165183607Y-84461393D01*
X165199671Y-84479117D01*
X165213921Y-84498330D01*
X165226218Y-84518847D01*
X165236446Y-84540471D01*
X165244504Y-84562993D01*
X165250316Y-84586197D01*
X165253826Y-84609858D01*
X165255000Y-84633750D01*
X165255000Y-85546250D01*
X165253826Y-85570142D01*
X165250316Y-85593803D01*
X165244504Y-85617007D01*
X165236446Y-85639529D01*
X165226218Y-85661153D01*
X165213921Y-85681670D01*
X165199671Y-85700883D01*
X165183607Y-85718607D01*
X165165883Y-85734671D01*
X165146670Y-85748921D01*
X165126153Y-85761218D01*
X165104529Y-85771446D01*
X165082007Y-85779504D01*
X165058803Y-85785316D01*
X165035142Y-85788826D01*
X165011250Y-85790000D01*
X164523750Y-85790000D01*
X164499858Y-85788826D01*
X164476197Y-85785316D01*
X164452993Y-85779504D01*
X164430471Y-85771446D01*
X164408847Y-85761218D01*
X164388330Y-85748921D01*
X164369117Y-85734671D01*
X164351393Y-85718607D01*
X164335329Y-85700883D01*
X164321079Y-85681670D01*
X164308782Y-85661153D01*
X164298554Y-85639529D01*
X164290496Y-85617007D01*
X164284684Y-85593803D01*
X164281174Y-85570142D01*
X164280000Y-85546250D01*
X164280000Y-84633750D01*
X164281174Y-84609858D01*
X164284684Y-84586197D01*
X164290496Y-84562993D01*
X164298554Y-84540471D01*
X164308782Y-84518847D01*
X164321079Y-84498330D01*
X164335329Y-84479117D01*
X164351393Y-84461393D01*
X164369117Y-84445329D01*
X164388330Y-84431079D01*
X164408847Y-84418782D01*
X164430471Y-84408554D01*
X164452993Y-84400496D01*
X164476197Y-84394684D01*
X164499858Y-84391174D01*
X164523750Y-84390000D01*
X165011250Y-84390000D01*
X165035142Y-84391174D01*
X165035142Y-84391174D01*
G37*
D14*
X164767500Y-85090000D03*
D13*
G36*
X163160142Y-84391174D02*
G01*
X163183803Y-84394684D01*
X163207007Y-84400496D01*
X163229529Y-84408554D01*
X163251153Y-84418782D01*
X163271670Y-84431079D01*
X163290883Y-84445329D01*
X163308607Y-84461393D01*
X163324671Y-84479117D01*
X163338921Y-84498330D01*
X163351218Y-84518847D01*
X163361446Y-84540471D01*
X163369504Y-84562993D01*
X163375316Y-84586197D01*
X163378826Y-84609858D01*
X163380000Y-84633750D01*
X163380000Y-85546250D01*
X163378826Y-85570142D01*
X163375316Y-85593803D01*
X163369504Y-85617007D01*
X163361446Y-85639529D01*
X163351218Y-85661153D01*
X163338921Y-85681670D01*
X163324671Y-85700883D01*
X163308607Y-85718607D01*
X163290883Y-85734671D01*
X163271670Y-85748921D01*
X163251153Y-85761218D01*
X163229529Y-85771446D01*
X163207007Y-85779504D01*
X163183803Y-85785316D01*
X163160142Y-85788826D01*
X163136250Y-85790000D01*
X162648750Y-85790000D01*
X162624858Y-85788826D01*
X162601197Y-85785316D01*
X162577993Y-85779504D01*
X162555471Y-85771446D01*
X162533847Y-85761218D01*
X162513330Y-85748921D01*
X162494117Y-85734671D01*
X162476393Y-85718607D01*
X162460329Y-85700883D01*
X162446079Y-85681670D01*
X162433782Y-85661153D01*
X162423554Y-85639529D01*
X162415496Y-85617007D01*
X162409684Y-85593803D01*
X162406174Y-85570142D01*
X162405000Y-85546250D01*
X162405000Y-84633750D01*
X162406174Y-84609858D01*
X162409684Y-84586197D01*
X162415496Y-84562993D01*
X162423554Y-84540471D01*
X162433782Y-84518847D01*
X162446079Y-84498330D01*
X162460329Y-84479117D01*
X162476393Y-84461393D01*
X162494117Y-84445329D01*
X162513330Y-84431079D01*
X162533847Y-84418782D01*
X162555471Y-84408554D01*
X162577993Y-84400496D01*
X162601197Y-84394684D01*
X162624858Y-84391174D01*
X162648750Y-84390000D01*
X163136250Y-84390000D01*
X163160142Y-84391174D01*
X163160142Y-84391174D01*
G37*
D14*
X162892500Y-85090000D03*
D13*
G36*
X165035142Y-100901174D02*
G01*
X165058803Y-100904684D01*
X165082007Y-100910496D01*
X165104529Y-100918554D01*
X165126153Y-100928782D01*
X165146670Y-100941079D01*
X165165883Y-100955329D01*
X165183607Y-100971393D01*
X165199671Y-100989117D01*
X165213921Y-101008330D01*
X165226218Y-101028847D01*
X165236446Y-101050471D01*
X165244504Y-101072993D01*
X165250316Y-101096197D01*
X165253826Y-101119858D01*
X165255000Y-101143750D01*
X165255000Y-102056250D01*
X165253826Y-102080142D01*
X165250316Y-102103803D01*
X165244504Y-102127007D01*
X165236446Y-102149529D01*
X165226218Y-102171153D01*
X165213921Y-102191670D01*
X165199671Y-102210883D01*
X165183607Y-102228607D01*
X165165883Y-102244671D01*
X165146670Y-102258921D01*
X165126153Y-102271218D01*
X165104529Y-102281446D01*
X165082007Y-102289504D01*
X165058803Y-102295316D01*
X165035142Y-102298826D01*
X165011250Y-102300000D01*
X164523750Y-102300000D01*
X164499858Y-102298826D01*
X164476197Y-102295316D01*
X164452993Y-102289504D01*
X164430471Y-102281446D01*
X164408847Y-102271218D01*
X164388330Y-102258921D01*
X164369117Y-102244671D01*
X164351393Y-102228607D01*
X164335329Y-102210883D01*
X164321079Y-102191670D01*
X164308782Y-102171153D01*
X164298554Y-102149529D01*
X164290496Y-102127007D01*
X164284684Y-102103803D01*
X164281174Y-102080142D01*
X164280000Y-102056250D01*
X164280000Y-101143750D01*
X164281174Y-101119858D01*
X164284684Y-101096197D01*
X164290496Y-101072993D01*
X164298554Y-101050471D01*
X164308782Y-101028847D01*
X164321079Y-101008330D01*
X164335329Y-100989117D01*
X164351393Y-100971393D01*
X164369117Y-100955329D01*
X164388330Y-100941079D01*
X164408847Y-100928782D01*
X164430471Y-100918554D01*
X164452993Y-100910496D01*
X164476197Y-100904684D01*
X164499858Y-100901174D01*
X164523750Y-100900000D01*
X165011250Y-100900000D01*
X165035142Y-100901174D01*
X165035142Y-100901174D01*
G37*
D14*
X164767500Y-101600000D03*
D13*
G36*
X163160142Y-100901174D02*
G01*
X163183803Y-100904684D01*
X163207007Y-100910496D01*
X163229529Y-100918554D01*
X163251153Y-100928782D01*
X163271670Y-100941079D01*
X163290883Y-100955329D01*
X163308607Y-100971393D01*
X163324671Y-100989117D01*
X163338921Y-101008330D01*
X163351218Y-101028847D01*
X163361446Y-101050471D01*
X163369504Y-101072993D01*
X163375316Y-101096197D01*
X163378826Y-101119858D01*
X163380000Y-101143750D01*
X163380000Y-102056250D01*
X163378826Y-102080142D01*
X163375316Y-102103803D01*
X163369504Y-102127007D01*
X163361446Y-102149529D01*
X163351218Y-102171153D01*
X163338921Y-102191670D01*
X163324671Y-102210883D01*
X163308607Y-102228607D01*
X163290883Y-102244671D01*
X163271670Y-102258921D01*
X163251153Y-102271218D01*
X163229529Y-102281446D01*
X163207007Y-102289504D01*
X163183803Y-102295316D01*
X163160142Y-102298826D01*
X163136250Y-102300000D01*
X162648750Y-102300000D01*
X162624858Y-102298826D01*
X162601197Y-102295316D01*
X162577993Y-102289504D01*
X162555471Y-102281446D01*
X162533847Y-102271218D01*
X162513330Y-102258921D01*
X162494117Y-102244671D01*
X162476393Y-102228607D01*
X162460329Y-102210883D01*
X162446079Y-102191670D01*
X162433782Y-102171153D01*
X162423554Y-102149529D01*
X162415496Y-102127007D01*
X162409684Y-102103803D01*
X162406174Y-102080142D01*
X162405000Y-102056250D01*
X162405000Y-101143750D01*
X162406174Y-101119858D01*
X162409684Y-101096197D01*
X162415496Y-101072993D01*
X162423554Y-101050471D01*
X162433782Y-101028847D01*
X162446079Y-101008330D01*
X162460329Y-100989117D01*
X162476393Y-100971393D01*
X162494117Y-100955329D01*
X162513330Y-100941079D01*
X162533847Y-100928782D01*
X162555471Y-100918554D01*
X162577993Y-100910496D01*
X162601197Y-100904684D01*
X162624858Y-100901174D01*
X162648750Y-100900000D01*
X163136250Y-100900000D01*
X163160142Y-100901174D01*
X163160142Y-100901174D01*
G37*
D14*
X162892500Y-101600000D03*
D15*
X190500000Y-71120000D03*
X187960000Y-71120000D03*
D16*
X185420000Y-71120000D03*
D11*
X172720000Y-93980000D03*
X180340000Y-60960000D03*
X172720000Y-91440000D03*
X180340000Y-63500000D03*
X172720000Y-88900000D03*
X180340000Y-66040000D03*
X172720000Y-86360000D03*
X180340000Y-68580000D03*
X172720000Y-83820000D03*
X180340000Y-71120000D03*
X172720000Y-81280000D03*
X180340000Y-73660000D03*
X172720000Y-78740000D03*
X180340000Y-76200000D03*
X172720000Y-76200000D03*
X180340000Y-78740000D03*
X172720000Y-73660000D03*
X180340000Y-81280000D03*
X172720000Y-71120000D03*
X180340000Y-83820000D03*
X172720000Y-68580000D03*
X180340000Y-86360000D03*
X172720000Y-66040000D03*
X180340000Y-88900000D03*
X172720000Y-63500000D03*
X180340000Y-91440000D03*
X172720000Y-60960000D03*
D12*
X180340000Y-93980000D03*
D17*
X162880000Y-94150000D03*
X164780000Y-94150000D03*
X164780000Y-96350000D03*
X163830000Y-96350000D03*
X162880000Y-96350000D03*
D13*
G36*
X159230142Y-66491174D02*
G01*
X159253803Y-66494684D01*
X159277007Y-66500496D01*
X159299529Y-66508554D01*
X159321153Y-66518782D01*
X159341670Y-66531079D01*
X159360883Y-66545329D01*
X159378607Y-66561393D01*
X159394671Y-66579117D01*
X159408921Y-66598330D01*
X159421218Y-66618847D01*
X159431446Y-66640471D01*
X159439504Y-66662993D01*
X159445316Y-66686197D01*
X159448826Y-66709858D01*
X159450000Y-66733750D01*
X159450000Y-67221250D01*
X159448826Y-67245142D01*
X159445316Y-67268803D01*
X159439504Y-67292007D01*
X159431446Y-67314529D01*
X159421218Y-67336153D01*
X159408921Y-67356670D01*
X159394671Y-67375883D01*
X159378607Y-67393607D01*
X159360883Y-67409671D01*
X159341670Y-67423921D01*
X159321153Y-67436218D01*
X159299529Y-67446446D01*
X159277007Y-67454504D01*
X159253803Y-67460316D01*
X159230142Y-67463826D01*
X159206250Y-67465000D01*
X158293750Y-67465000D01*
X158269858Y-67463826D01*
X158246197Y-67460316D01*
X158222993Y-67454504D01*
X158200471Y-67446446D01*
X158178847Y-67436218D01*
X158158330Y-67423921D01*
X158139117Y-67409671D01*
X158121393Y-67393607D01*
X158105329Y-67375883D01*
X158091079Y-67356670D01*
X158078782Y-67336153D01*
X158068554Y-67314529D01*
X158060496Y-67292007D01*
X158054684Y-67268803D01*
X158051174Y-67245142D01*
X158050000Y-67221250D01*
X158050000Y-66733750D01*
X158051174Y-66709858D01*
X158054684Y-66686197D01*
X158060496Y-66662993D01*
X158068554Y-66640471D01*
X158078782Y-66618847D01*
X158091079Y-66598330D01*
X158105329Y-66579117D01*
X158121393Y-66561393D01*
X158139117Y-66545329D01*
X158158330Y-66531079D01*
X158178847Y-66518782D01*
X158200471Y-66508554D01*
X158222993Y-66500496D01*
X158246197Y-66494684D01*
X158269858Y-66491174D01*
X158293750Y-66490000D01*
X159206250Y-66490000D01*
X159230142Y-66491174D01*
X159230142Y-66491174D01*
G37*
D14*
X158750000Y-66977500D03*
D13*
G36*
X159230142Y-64616174D02*
G01*
X159253803Y-64619684D01*
X159277007Y-64625496D01*
X159299529Y-64633554D01*
X159321153Y-64643782D01*
X159341670Y-64656079D01*
X159360883Y-64670329D01*
X159378607Y-64686393D01*
X159394671Y-64704117D01*
X159408921Y-64723330D01*
X159421218Y-64743847D01*
X159431446Y-64765471D01*
X159439504Y-64787993D01*
X159445316Y-64811197D01*
X159448826Y-64834858D01*
X159450000Y-64858750D01*
X159450000Y-65346250D01*
X159448826Y-65370142D01*
X159445316Y-65393803D01*
X159439504Y-65417007D01*
X159431446Y-65439529D01*
X159421218Y-65461153D01*
X159408921Y-65481670D01*
X159394671Y-65500883D01*
X159378607Y-65518607D01*
X159360883Y-65534671D01*
X159341670Y-65548921D01*
X159321153Y-65561218D01*
X159299529Y-65571446D01*
X159277007Y-65579504D01*
X159253803Y-65585316D01*
X159230142Y-65588826D01*
X159206250Y-65590000D01*
X158293750Y-65590000D01*
X158269858Y-65588826D01*
X158246197Y-65585316D01*
X158222993Y-65579504D01*
X158200471Y-65571446D01*
X158178847Y-65561218D01*
X158158330Y-65548921D01*
X158139117Y-65534671D01*
X158121393Y-65518607D01*
X158105329Y-65500883D01*
X158091079Y-65481670D01*
X158078782Y-65461153D01*
X158068554Y-65439529D01*
X158060496Y-65417007D01*
X158054684Y-65393803D01*
X158051174Y-65370142D01*
X158050000Y-65346250D01*
X158050000Y-64858750D01*
X158051174Y-64834858D01*
X158054684Y-64811197D01*
X158060496Y-64787993D01*
X158068554Y-64765471D01*
X158078782Y-64743847D01*
X158091079Y-64723330D01*
X158105329Y-64704117D01*
X158121393Y-64686393D01*
X158139117Y-64670329D01*
X158158330Y-64656079D01*
X158178847Y-64643782D01*
X158200471Y-64633554D01*
X158222993Y-64625496D01*
X158246197Y-64619684D01*
X158269858Y-64616174D01*
X158293750Y-64615000D01*
X159206250Y-64615000D01*
X159230142Y-64616174D01*
X159230142Y-64616174D01*
G37*
D14*
X158750000Y-65102500D03*
D13*
G36*
X165700142Y-89471174D02*
G01*
X165723803Y-89474684D01*
X165747007Y-89480496D01*
X165769529Y-89488554D01*
X165791153Y-89498782D01*
X165811670Y-89511079D01*
X165830883Y-89525329D01*
X165848607Y-89541393D01*
X165864671Y-89559117D01*
X165878921Y-89578330D01*
X165891218Y-89598847D01*
X165901446Y-89620471D01*
X165909504Y-89642993D01*
X165915316Y-89666197D01*
X165918826Y-89689858D01*
X165920000Y-89713750D01*
X165920000Y-90626250D01*
X165918826Y-90650142D01*
X165915316Y-90673803D01*
X165909504Y-90697007D01*
X165901446Y-90719529D01*
X165891218Y-90741153D01*
X165878921Y-90761670D01*
X165864671Y-90780883D01*
X165848607Y-90798607D01*
X165830883Y-90814671D01*
X165811670Y-90828921D01*
X165791153Y-90841218D01*
X165769529Y-90851446D01*
X165747007Y-90859504D01*
X165723803Y-90865316D01*
X165700142Y-90868826D01*
X165676250Y-90870000D01*
X165188750Y-90870000D01*
X165164858Y-90868826D01*
X165141197Y-90865316D01*
X165117993Y-90859504D01*
X165095471Y-90851446D01*
X165073847Y-90841218D01*
X165053330Y-90828921D01*
X165034117Y-90814671D01*
X165016393Y-90798607D01*
X165000329Y-90780883D01*
X164986079Y-90761670D01*
X164973782Y-90741153D01*
X164963554Y-90719529D01*
X164955496Y-90697007D01*
X164949684Y-90673803D01*
X164946174Y-90650142D01*
X164945000Y-90626250D01*
X164945000Y-89713750D01*
X164946174Y-89689858D01*
X164949684Y-89666197D01*
X164955496Y-89642993D01*
X164963554Y-89620471D01*
X164973782Y-89598847D01*
X164986079Y-89578330D01*
X165000329Y-89559117D01*
X165016393Y-89541393D01*
X165034117Y-89525329D01*
X165053330Y-89511079D01*
X165073847Y-89498782D01*
X165095471Y-89488554D01*
X165117993Y-89480496D01*
X165141197Y-89474684D01*
X165164858Y-89471174D01*
X165188750Y-89470000D01*
X165676250Y-89470000D01*
X165700142Y-89471174D01*
X165700142Y-89471174D01*
G37*
D14*
X165432500Y-90170000D03*
D13*
G36*
X167575142Y-89471174D02*
G01*
X167598803Y-89474684D01*
X167622007Y-89480496D01*
X167644529Y-89488554D01*
X167666153Y-89498782D01*
X167686670Y-89511079D01*
X167705883Y-89525329D01*
X167723607Y-89541393D01*
X167739671Y-89559117D01*
X167753921Y-89578330D01*
X167766218Y-89598847D01*
X167776446Y-89620471D01*
X167784504Y-89642993D01*
X167790316Y-89666197D01*
X167793826Y-89689858D01*
X167795000Y-89713750D01*
X167795000Y-90626250D01*
X167793826Y-90650142D01*
X167790316Y-90673803D01*
X167784504Y-90697007D01*
X167776446Y-90719529D01*
X167766218Y-90741153D01*
X167753921Y-90761670D01*
X167739671Y-90780883D01*
X167723607Y-90798607D01*
X167705883Y-90814671D01*
X167686670Y-90828921D01*
X167666153Y-90841218D01*
X167644529Y-90851446D01*
X167622007Y-90859504D01*
X167598803Y-90865316D01*
X167575142Y-90868826D01*
X167551250Y-90870000D01*
X167063750Y-90870000D01*
X167039858Y-90868826D01*
X167016197Y-90865316D01*
X166992993Y-90859504D01*
X166970471Y-90851446D01*
X166948847Y-90841218D01*
X166928330Y-90828921D01*
X166909117Y-90814671D01*
X166891393Y-90798607D01*
X166875329Y-90780883D01*
X166861079Y-90761670D01*
X166848782Y-90741153D01*
X166838554Y-90719529D01*
X166830496Y-90697007D01*
X166824684Y-90673803D01*
X166821174Y-90650142D01*
X166820000Y-90626250D01*
X166820000Y-89713750D01*
X166821174Y-89689858D01*
X166824684Y-89666197D01*
X166830496Y-89642993D01*
X166838554Y-89620471D01*
X166848782Y-89598847D01*
X166861079Y-89578330D01*
X166875329Y-89559117D01*
X166891393Y-89541393D01*
X166909117Y-89525329D01*
X166928330Y-89511079D01*
X166948847Y-89498782D01*
X166970471Y-89488554D01*
X166992993Y-89480496D01*
X167016197Y-89474684D01*
X167039858Y-89471174D01*
X167063750Y-89470000D01*
X167551250Y-89470000D01*
X167575142Y-89471174D01*
X167575142Y-89471174D01*
G37*
D14*
X167307500Y-90170000D03*
D15*
X208280000Y-101600000D03*
D16*
X205740000Y-101600000D03*
D15*
X163830000Y-62230000D03*
X166370000Y-62230000D03*
X163830000Y-64770000D03*
X166370000Y-64770000D03*
X163830000Y-67310000D03*
D16*
X166370000Y-67310000D03*
D15*
X232410000Y-90170000D03*
X232410000Y-87630000D03*
X232410000Y-85090000D03*
X232410000Y-82550000D03*
X232410000Y-80010000D03*
X232410000Y-77470000D03*
X232410000Y-74930000D03*
X232410000Y-72390000D03*
X232410000Y-69850000D03*
D16*
X232410000Y-67310000D03*
D15*
X173990000Y-106680000D03*
X176530000Y-106680000D03*
X179070000Y-106680000D03*
D16*
X181610000Y-106680000D03*
D15*
X162560000Y-106680000D03*
D16*
X165100000Y-106680000D03*
D13*
G36*
X160620142Y-89471174D02*
G01*
X160643803Y-89474684D01*
X160667007Y-89480496D01*
X160689529Y-89488554D01*
X160711153Y-89498782D01*
X160731670Y-89511079D01*
X160750883Y-89525329D01*
X160768607Y-89541393D01*
X160784671Y-89559117D01*
X160798921Y-89578330D01*
X160811218Y-89598847D01*
X160821446Y-89620471D01*
X160829504Y-89642993D01*
X160835316Y-89666197D01*
X160838826Y-89689858D01*
X160840000Y-89713750D01*
X160840000Y-90626250D01*
X160838826Y-90650142D01*
X160835316Y-90673803D01*
X160829504Y-90697007D01*
X160821446Y-90719529D01*
X160811218Y-90741153D01*
X160798921Y-90761670D01*
X160784671Y-90780883D01*
X160768607Y-90798607D01*
X160750883Y-90814671D01*
X160731670Y-90828921D01*
X160711153Y-90841218D01*
X160689529Y-90851446D01*
X160667007Y-90859504D01*
X160643803Y-90865316D01*
X160620142Y-90868826D01*
X160596250Y-90870000D01*
X160108750Y-90870000D01*
X160084858Y-90868826D01*
X160061197Y-90865316D01*
X160037993Y-90859504D01*
X160015471Y-90851446D01*
X159993847Y-90841218D01*
X159973330Y-90828921D01*
X159954117Y-90814671D01*
X159936393Y-90798607D01*
X159920329Y-90780883D01*
X159906079Y-90761670D01*
X159893782Y-90741153D01*
X159883554Y-90719529D01*
X159875496Y-90697007D01*
X159869684Y-90673803D01*
X159866174Y-90650142D01*
X159865000Y-90626250D01*
X159865000Y-89713750D01*
X159866174Y-89689858D01*
X159869684Y-89666197D01*
X159875496Y-89642993D01*
X159883554Y-89620471D01*
X159893782Y-89598847D01*
X159906079Y-89578330D01*
X159920329Y-89559117D01*
X159936393Y-89541393D01*
X159954117Y-89525329D01*
X159973330Y-89511079D01*
X159993847Y-89498782D01*
X160015471Y-89488554D01*
X160037993Y-89480496D01*
X160061197Y-89474684D01*
X160084858Y-89471174D01*
X160108750Y-89470000D01*
X160596250Y-89470000D01*
X160620142Y-89471174D01*
X160620142Y-89471174D01*
G37*
D14*
X160352500Y-90170000D03*
D13*
G36*
X162495142Y-89471174D02*
G01*
X162518803Y-89474684D01*
X162542007Y-89480496D01*
X162564529Y-89488554D01*
X162586153Y-89498782D01*
X162606670Y-89511079D01*
X162625883Y-89525329D01*
X162643607Y-89541393D01*
X162659671Y-89559117D01*
X162673921Y-89578330D01*
X162686218Y-89598847D01*
X162696446Y-89620471D01*
X162704504Y-89642993D01*
X162710316Y-89666197D01*
X162713826Y-89689858D01*
X162715000Y-89713750D01*
X162715000Y-90626250D01*
X162713826Y-90650142D01*
X162710316Y-90673803D01*
X162704504Y-90697007D01*
X162696446Y-90719529D01*
X162686218Y-90741153D01*
X162673921Y-90761670D01*
X162659671Y-90780883D01*
X162643607Y-90798607D01*
X162625883Y-90814671D01*
X162606670Y-90828921D01*
X162586153Y-90841218D01*
X162564529Y-90851446D01*
X162542007Y-90859504D01*
X162518803Y-90865316D01*
X162495142Y-90868826D01*
X162471250Y-90870000D01*
X161983750Y-90870000D01*
X161959858Y-90868826D01*
X161936197Y-90865316D01*
X161912993Y-90859504D01*
X161890471Y-90851446D01*
X161868847Y-90841218D01*
X161848330Y-90828921D01*
X161829117Y-90814671D01*
X161811393Y-90798607D01*
X161795329Y-90780883D01*
X161781079Y-90761670D01*
X161768782Y-90741153D01*
X161758554Y-90719529D01*
X161750496Y-90697007D01*
X161744684Y-90673803D01*
X161741174Y-90650142D01*
X161740000Y-90626250D01*
X161740000Y-89713750D01*
X161741174Y-89689858D01*
X161744684Y-89666197D01*
X161750496Y-89642993D01*
X161758554Y-89620471D01*
X161768782Y-89598847D01*
X161781079Y-89578330D01*
X161795329Y-89559117D01*
X161811393Y-89541393D01*
X161829117Y-89525329D01*
X161848330Y-89511079D01*
X161868847Y-89498782D01*
X161890471Y-89488554D01*
X161912993Y-89480496D01*
X161936197Y-89474684D01*
X161959858Y-89471174D01*
X161983750Y-89470000D01*
X162471250Y-89470000D01*
X162495142Y-89471174D01*
X162495142Y-89471174D01*
G37*
D14*
X162227500Y-90170000D03*
D18*
X220980000Y-85010000D03*
D12*
X220980000Y-80010000D03*
D18*
X220980000Y-60880000D03*
D12*
X220980000Y-55880000D03*
D11*
X200660000Y-73660000D03*
X213360000Y-55880000D03*
X200660000Y-71120000D03*
X213360000Y-58420000D03*
X200660000Y-68580000D03*
X213360000Y-60960000D03*
X200660000Y-66040000D03*
X213360000Y-63500000D03*
X200660000Y-63500000D03*
X213360000Y-66040000D03*
X200660000Y-60960000D03*
X213360000Y-68580000D03*
X200660000Y-58420000D03*
X213360000Y-71120000D03*
X200660000Y-55880000D03*
D12*
X213360000Y-73660000D03*
D19*
X177800000Y-92710000D03*
X181610000Y-96520000D03*
X176530000Y-91440000D03*
X184150000Y-95250000D03*
X160020000Y-62230000D03*
X165100000Y-77470000D03*
X194310000Y-87630000D03*
X194310000Y-81280000D03*
X208280000Y-66040000D03*
X207010000Y-63500000D03*
X205740000Y-60960000D03*
X204470000Y-58420000D03*
X195580000Y-99060000D03*
X182880000Y-99060000D03*
X175260000Y-90170000D03*
X177800000Y-100330000D03*
X214630000Y-76200000D03*
X161290000Y-96520000D03*
X166370000Y-96520000D03*
X163830000Y-73660000D03*
X186690000Y-101600000D03*
X186690000Y-93980000D03*
X175260000Y-76200000D03*
X175260000Y-62230000D03*
X161290000Y-58420000D03*
D20*
X172720000Y-81280000D02*
X176530000Y-81280000D01*
X176530000Y-81280000D02*
X177800000Y-82550000D01*
X177800000Y-82550000D02*
X177800000Y-92710000D01*
X181610000Y-96520000D02*
X195580000Y-96520000D01*
X195580000Y-96520000D02*
X196850000Y-97790000D01*
X196850000Y-97790000D02*
X200660000Y-97790000D01*
D21*
X223530000Y-55880000D02*
X220980000Y-55880000D01*
X223580000Y-55880000D02*
X223530000Y-55880000D01*
X232410000Y-64710000D02*
X223580000Y-55880000D01*
X232410000Y-67310000D02*
X232410000Y-64710000D01*
X220980000Y-55880000D02*
X213360000Y-55880000D01*
X213360000Y-80010000D02*
X220980000Y-80010000D01*
X210820000Y-77470000D02*
X213360000Y-80010000D01*
X213360000Y-55880000D02*
X210820000Y-55880000D01*
X210820000Y-55880000D02*
X210820000Y-77470000D01*
D20*
X208280000Y-101600000D02*
X208280000Y-100330000D01*
X208280000Y-100330000D02*
X210820000Y-97790000D01*
X210820000Y-97790000D02*
X210820000Y-82550000D01*
X210820000Y-82550000D02*
X210820000Y-81280000D01*
X213360000Y-80010000D02*
X212090000Y-80010000D01*
X212090000Y-80010000D02*
X210820000Y-81280000D01*
X200660000Y-95250000D02*
X199390000Y-95250000D01*
X172720000Y-83820000D02*
X175260000Y-83820000D01*
X175260000Y-83820000D02*
X176530000Y-85090000D01*
X176530000Y-85090000D02*
X176530000Y-91440000D01*
X184150000Y-95250000D02*
X200660000Y-95250000D01*
D21*
X227330000Y-67230000D02*
X220980000Y-60880000D01*
X232410000Y-69850000D02*
X227330000Y-69850000D01*
X227330000Y-69850000D02*
X227330000Y-67230000D01*
X218520000Y-58420000D02*
X220980000Y-60880000D01*
X213360000Y-58420000D02*
X218520000Y-58420000D01*
D20*
X172720000Y-78740000D02*
X175260000Y-78740000D01*
X177800000Y-76200000D02*
X180340000Y-76200000D01*
X175260000Y-78740000D02*
X177800000Y-76200000D01*
X176530000Y-103202500D02*
X176197500Y-102870000D01*
X176530000Y-106680000D02*
X176530000Y-103202500D01*
X169242500Y-78740000D02*
X168910000Y-78407500D01*
X172720000Y-78740000D02*
X169242500Y-78740000D01*
X165100000Y-101932500D02*
X164767500Y-101600000D01*
X165100000Y-106680000D02*
X165100000Y-101932500D01*
X164767500Y-101600000D02*
X164767500Y-99997500D01*
X163830000Y-97130000D02*
X163830000Y-96350000D01*
X163830000Y-99060000D02*
X163830000Y-97130000D01*
X164767500Y-99997500D02*
X163830000Y-99060000D01*
X163830000Y-92710000D02*
X163830000Y-96350000D01*
X166370000Y-92710000D02*
X163830000Y-92710000D01*
X167307500Y-90170000D02*
X167307500Y-91772500D01*
X167307500Y-91772500D02*
X166370000Y-92710000D01*
X166037500Y-86360000D02*
X164767500Y-85090000D01*
X167307500Y-90170000D02*
X167307500Y-87630000D01*
X167307500Y-87630000D02*
X166037500Y-86360000D01*
X164767500Y-85090000D02*
X164767500Y-81280000D01*
X167640000Y-78407500D02*
X168910000Y-78407500D01*
X164767500Y-81280000D02*
X167640000Y-78407500D01*
X163830000Y-62230000D02*
X160020000Y-62230000D01*
X166037500Y-78407500D02*
X165100000Y-77470000D01*
X168910000Y-78407500D02*
X166037500Y-78407500D01*
X198120000Y-68580000D02*
X200660000Y-68580000D01*
X194310000Y-72390000D02*
X198120000Y-68580000D01*
X180340000Y-81280000D02*
X194310000Y-81280000D01*
X194310000Y-81280000D02*
X194310000Y-72390000D01*
X200660000Y-92710000D02*
X196850000Y-88900000D01*
X196850000Y-88900000D02*
X195580000Y-88900000D01*
X195580000Y-88900000D02*
X194310000Y-87630000D01*
D22*
X228600000Y-82550000D02*
X232410000Y-82550000D01*
X223520000Y-87630000D02*
X228600000Y-82550000D01*
X219710000Y-87630000D02*
X223520000Y-87630000D01*
X213360000Y-85090000D02*
X217170000Y-85090000D01*
X217170000Y-85090000D02*
X219710000Y-87630000D01*
D20*
X180340000Y-68580000D02*
X195580000Y-68580000D01*
X198120000Y-66040000D02*
X200660000Y-66040000D01*
X195580000Y-68580000D02*
X198120000Y-66040000D01*
X200660000Y-90170000D02*
X202566410Y-90170000D01*
X202566410Y-90170000D02*
X204470000Y-90170000D01*
X204470000Y-90170000D02*
X208280000Y-86360000D01*
X208280000Y-86360000D02*
X208280000Y-66040000D01*
D22*
X214560009Y-88830009D02*
X224859991Y-88830009D01*
X213360000Y-87630000D02*
X214560009Y-88830009D01*
X228600000Y-85090000D02*
X232410000Y-85090000D01*
X224859991Y-88830009D02*
X228600000Y-85090000D01*
D20*
X180340000Y-66040000D02*
X194310000Y-66040000D01*
X194310000Y-66040000D02*
X196850000Y-63500000D01*
X196850000Y-63500000D02*
X200660000Y-63500000D01*
X200660000Y-87630000D02*
X204470000Y-87630000D01*
X204470000Y-87630000D02*
X207010000Y-85090000D01*
X207010000Y-85090000D02*
X207010000Y-63500000D01*
D22*
X213360000Y-90170000D02*
X226060000Y-90170000D01*
X228600000Y-87630000D02*
X232410000Y-87630000D01*
X226060000Y-90170000D02*
X228600000Y-87630000D01*
D20*
X180340000Y-63500000D02*
X193040000Y-63500000D01*
X199528630Y-60960000D02*
X200660000Y-60960000D01*
X195580000Y-60960000D02*
X199528630Y-60960000D01*
X193040000Y-63500000D02*
X195580000Y-60960000D01*
X200660000Y-85090000D02*
X204470000Y-85090000D01*
X204470000Y-85090000D02*
X205740000Y-83820000D01*
X205740000Y-83820000D02*
X205740000Y-60960000D01*
D22*
X231207919Y-90170000D02*
X232410000Y-90170000D01*
X227757070Y-90170000D02*
X231207919Y-90170000D01*
X225217070Y-92710000D02*
X227757070Y-90170000D01*
X213360000Y-92710000D02*
X225217070Y-92710000D01*
D20*
X180340000Y-60960000D02*
X191770000Y-60960000D01*
X194310000Y-58420000D02*
X200660000Y-58420000D01*
X191770000Y-60960000D02*
X194310000Y-58420000D01*
X200660000Y-82550000D02*
X204470000Y-82550000D01*
X204470000Y-82550000D02*
X204470000Y-58420000D01*
X195580000Y-99060000D02*
X182880000Y-99060000D01*
X175260000Y-90170000D02*
X173990000Y-88900000D01*
X173990000Y-88900000D02*
X172720000Y-88900000D01*
X203200000Y-55880000D02*
X200660000Y-55880000D01*
X200660000Y-80010000D02*
X203200000Y-80010000D01*
X203200000Y-80010000D02*
X203200000Y-55880000D01*
X200660000Y-55880000D02*
X194310000Y-55880000D01*
X194310000Y-55880000D02*
X191770000Y-58420000D01*
X175260000Y-58420000D02*
X172720000Y-60960000D01*
X191770000Y-58420000D02*
X175260000Y-58420000D01*
X180340000Y-86360000D02*
X196850000Y-86360000D01*
X196850000Y-77470000D02*
X200660000Y-73660000D01*
X196850000Y-86360000D02*
X196850000Y-77470000D01*
X198120000Y-71120000D02*
X200660000Y-71120000D01*
X195580000Y-73660000D02*
X198120000Y-71120000D01*
X180340000Y-83820000D02*
X195580000Y-83820000D01*
X195580000Y-83820000D02*
X195580000Y-73660000D01*
D22*
X213360000Y-60960000D02*
X215900000Y-60960000D01*
X227330000Y-72390000D02*
X232410000Y-72390000D01*
X215900000Y-60960000D02*
X227330000Y-72390000D01*
X213360000Y-63500000D02*
X215900000Y-63500000D01*
X227330000Y-74930000D02*
X232410000Y-74930000D01*
X215900000Y-63500000D02*
X227330000Y-74930000D01*
X213360000Y-66040000D02*
X215900000Y-66040000D01*
X227330000Y-77470000D02*
X232410000Y-77470000D01*
X215900000Y-66040000D02*
X227330000Y-77470000D01*
X227330000Y-80010000D02*
X232410000Y-80010000D01*
X213360000Y-68580000D02*
X215900000Y-68580000D01*
X215900000Y-68580000D02*
X227330000Y-80010000D01*
D20*
X172720000Y-86360000D02*
X171450000Y-86360000D01*
X171450000Y-86360000D02*
X170180000Y-87630000D01*
X170180000Y-87630000D02*
X170180000Y-96520000D01*
X170180000Y-96520000D02*
X173990000Y-100330000D01*
X173990000Y-100330000D02*
X177800000Y-100330000D01*
X214630000Y-76200000D02*
X215900000Y-76200000D01*
X215900000Y-76200000D02*
X217170000Y-74930000D01*
X217170000Y-74930000D02*
X217170000Y-72390000D01*
X217170000Y-72390000D02*
X215900000Y-71120000D01*
X215900000Y-71120000D02*
X213360000Y-71120000D01*
X162892500Y-96362500D02*
X162880000Y-96350000D01*
X162892500Y-101600000D02*
X162892500Y-96362500D01*
X162560000Y-101932500D02*
X162892500Y-101600000D01*
X162560000Y-106680000D02*
X162560000Y-101932500D01*
X162880000Y-96350000D02*
X161460000Y-96350000D01*
X161460000Y-96350000D02*
X161290000Y-96520000D01*
X164950000Y-96520000D02*
X164780000Y-96350000D01*
X166370000Y-96520000D02*
X164950000Y-96520000D01*
X162892500Y-85422500D02*
X162892500Y-85090000D01*
X162892500Y-86027500D02*
X162892500Y-85422500D01*
X160352500Y-90170000D02*
X160352500Y-88567500D01*
X160352500Y-88567500D02*
X162892500Y-86027500D01*
X162892500Y-85090000D02*
X162892500Y-81280000D01*
X162880000Y-93030000D02*
X162880000Y-94150000D01*
X162560000Y-92710000D02*
X162880000Y-93030000D01*
X161290000Y-92710000D02*
X162560000Y-92710000D01*
X160352500Y-90170000D02*
X160352500Y-91772500D01*
X160352500Y-91772500D02*
X161290000Y-92710000D01*
X162892500Y-81280000D02*
X162892500Y-74597500D01*
X162892500Y-74597500D02*
X163830000Y-73660000D01*
X163830000Y-73660000D02*
X163830000Y-67310000D01*
X159082500Y-67310000D02*
X158750000Y-66977500D01*
X163830000Y-67310000D02*
X159082500Y-67310000D01*
X169242500Y-76200000D02*
X168910000Y-76532500D01*
X172720000Y-76200000D02*
X169242500Y-76200000D01*
X173990000Y-103202500D02*
X174322500Y-102870000D01*
X173990000Y-106680000D02*
X173990000Y-103202500D01*
X173990000Y-106680000D02*
X173990000Y-107950000D01*
X173990000Y-107950000D02*
X175260000Y-109220000D01*
X175260000Y-109220000D02*
X184150000Y-109220000D01*
X184150000Y-109220000D02*
X186690000Y-106680000D01*
X186690000Y-106680000D02*
X186690000Y-101600000D01*
X186690000Y-93980000D02*
X180340000Y-93980000D01*
X175260000Y-76200000D02*
X175260000Y-62230000D01*
X158750000Y-65102500D02*
X158750000Y-60960000D01*
X158750000Y-60960000D02*
X160020000Y-59690000D01*
X160020000Y-59690000D02*
X165100000Y-59690000D01*
X166370000Y-60960000D02*
X166370000Y-62230000D01*
X165100000Y-59690000D02*
X166370000Y-60960000D01*
X162227500Y-90170000D02*
X165432500Y-90170000D01*
X179070000Y-102870000D02*
X179070000Y-106680000D01*
X179070000Y-97790000D02*
X179070000Y-102870000D01*
X172720000Y-93980000D02*
X175260000Y-93980000D01*
X175260000Y-93980000D02*
X179070000Y-97790000D01*
X181610000Y-102870000D02*
X181610000Y-106680000D01*
X181610000Y-99060000D02*
X181610000Y-102870000D01*
X172720000Y-91440000D02*
X173990000Y-91440000D01*
X173990000Y-91440000D02*
X181610000Y-99060000D01*
X172720000Y-66040000D02*
X171450000Y-66040000D01*
X171450000Y-66040000D02*
X170180000Y-64770000D01*
X170180000Y-64770000D02*
X170180000Y-60960000D01*
X170180000Y-60960000D02*
X167640000Y-58420000D01*
X167640000Y-58420000D02*
X161290000Y-58420000D01*
X172720000Y-68580000D02*
X171450000Y-68580000D01*
X170180000Y-67310000D02*
X166370000Y-67310000D01*
X171450000Y-68580000D02*
X170180000Y-67310000D01*
X180340000Y-71120000D02*
X185420000Y-71120000D01*
X190500000Y-72390000D02*
X190500000Y-71120000D01*
X180340000Y-73660000D02*
X189230000Y-73660000D01*
X189230000Y-73660000D02*
X190500000Y-72390000D01*
M02*
