G04 #@! TF.GenerationSoftware,KiCad,Pcbnew,(5.1.2)-1*
G04 #@! TF.CreationDate,2019-05-23T00:03:13+02:00*
G04 #@! TF.ProjectId,DualStepperI2C_PCB_2,4475616c-5374-4657-9070-65724932435f,rev?*
G04 #@! TF.SameCoordinates,Original*
G04 #@! TF.FileFunction,Copper,L2,Bot*
G04 #@! TF.FilePolarity,Positive*
%FSLAX46Y46*%
G04 Gerber Fmt 4.6, Leading zero omitted, Abs format (unit mm)*
G04 Created by KiCad (PCBNEW (5.1.2)-1) date 2019-05-23 00:03:13*
%MOMM*%
%LPD*%
G04 APERTURE LIST*
%ADD10C,5.999480*%
%ADD11O,1.600000X1.600000*%
%ADD12R,1.600000X1.600000*%
%ADD13O,1.700000X1.700000*%
%ADD14R,1.700000X1.700000*%
%ADD15C,1.600000*%
%ADD16C,0.800000*%
%ADD17C,0.250000*%
%ADD18C,1.000000*%
%ADD19C,0.254000*%
G04 APERTURE END LIST*
D10*
X196850000Y-106680000D03*
X231140000Y-106680000D03*
D11*
X200660000Y-97790000D03*
X213360000Y-80010000D03*
X200660000Y-95250000D03*
X213360000Y-82550000D03*
X200660000Y-92710000D03*
X213360000Y-85090000D03*
X200660000Y-90170000D03*
X213360000Y-87630000D03*
X200660000Y-87630000D03*
X213360000Y-90170000D03*
X200660000Y-85090000D03*
X213360000Y-92710000D03*
X200660000Y-82550000D03*
X213360000Y-95250000D03*
X200660000Y-80010000D03*
D12*
X213360000Y-97790000D03*
D13*
X190500000Y-71120000D03*
X187960000Y-71120000D03*
D14*
X185420000Y-71120000D03*
D11*
X172720000Y-93980000D03*
X180340000Y-60960000D03*
X172720000Y-91440000D03*
X180340000Y-63500000D03*
X172720000Y-88900000D03*
X180340000Y-66040000D03*
X172720000Y-86360000D03*
X180340000Y-68580000D03*
X172720000Y-83820000D03*
X180340000Y-71120000D03*
X172720000Y-81280000D03*
X180340000Y-73660000D03*
X172720000Y-78740000D03*
X180340000Y-76200000D03*
X172720000Y-76200000D03*
X180340000Y-78740000D03*
X172720000Y-73660000D03*
X180340000Y-81280000D03*
X172720000Y-71120000D03*
X180340000Y-83820000D03*
X172720000Y-68580000D03*
X180340000Y-86360000D03*
X172720000Y-66040000D03*
X180340000Y-88900000D03*
X172720000Y-63500000D03*
X180340000Y-91440000D03*
X172720000Y-60960000D03*
D12*
X180340000Y-93980000D03*
D13*
X208280000Y-101600000D03*
D14*
X205740000Y-101600000D03*
D13*
X163830000Y-62230000D03*
X166370000Y-62230000D03*
X163830000Y-64770000D03*
X166370000Y-64770000D03*
X163830000Y-67310000D03*
D14*
X166370000Y-67310000D03*
D13*
X232410000Y-90170000D03*
X232410000Y-87630000D03*
X232410000Y-85090000D03*
X232410000Y-82550000D03*
X232410000Y-80010000D03*
X232410000Y-77470000D03*
X232410000Y-74930000D03*
X232410000Y-72390000D03*
X232410000Y-69850000D03*
D14*
X232410000Y-67310000D03*
D13*
X173990000Y-106680000D03*
X176530000Y-106680000D03*
X179070000Y-106680000D03*
D14*
X181610000Y-106680000D03*
D13*
X162560000Y-106680000D03*
D14*
X165100000Y-106680000D03*
D15*
X220980000Y-85010000D03*
D12*
X220980000Y-80010000D03*
D15*
X220980000Y-60880000D03*
D12*
X220980000Y-55880000D03*
D11*
X200660000Y-73660000D03*
X213360000Y-55880000D03*
X200660000Y-71120000D03*
X213360000Y-58420000D03*
X200660000Y-68580000D03*
X213360000Y-60960000D03*
X200660000Y-66040000D03*
X213360000Y-63500000D03*
X200660000Y-63500000D03*
X213360000Y-66040000D03*
X200660000Y-60960000D03*
X213360000Y-68580000D03*
X200660000Y-58420000D03*
X213360000Y-71120000D03*
X200660000Y-55880000D03*
D12*
X213360000Y-73660000D03*
D16*
X177800000Y-92710000D03*
X181610000Y-96520000D03*
X176530000Y-91440000D03*
X184150000Y-95250000D03*
X160020000Y-62230000D03*
X165100000Y-77470000D03*
X194310000Y-87630000D03*
X194310000Y-81280000D03*
X208280000Y-66040000D03*
X207010000Y-63500000D03*
X205740000Y-60960000D03*
X204470000Y-58420000D03*
X195580000Y-99060000D03*
X182880000Y-99060000D03*
X175260000Y-90170000D03*
X177800000Y-100330000D03*
X214630000Y-76200000D03*
X161290000Y-96520000D03*
X166370000Y-96520000D03*
X163830000Y-73660000D03*
X186690000Y-101600000D03*
X186690000Y-93980000D03*
X175260000Y-76200000D03*
X175260000Y-62230000D03*
X161290000Y-58420000D03*
D17*
X177800000Y-92710000D02*
X177800000Y-95250000D01*
X177800000Y-95250000D02*
X179070000Y-96520000D01*
X179070000Y-96520000D02*
X181610000Y-96520000D01*
X176530000Y-91440000D02*
X176530000Y-94616410D01*
X176530000Y-94616410D02*
X176530000Y-96520000D01*
X176530000Y-96520000D02*
X177800000Y-97790000D01*
X177800000Y-97790000D02*
X182880000Y-97790000D01*
X182880000Y-97790000D02*
X182880000Y-96520000D01*
X182880000Y-96520000D02*
X184150000Y-95250000D01*
D18*
X231207919Y-69850000D02*
X232410000Y-69850000D01*
X218970000Y-69850000D02*
X231207919Y-69850000D01*
X215160000Y-73660000D02*
X218970000Y-69850000D01*
X218520000Y-82550000D02*
X220980000Y-85010000D01*
X213360000Y-82550000D02*
X218520000Y-82550000D01*
X213360000Y-82550000D02*
X215900000Y-82550000D01*
X215900000Y-82550000D02*
X217170000Y-81280000D01*
X217170000Y-81280000D02*
X217170000Y-76200000D01*
X215160000Y-73660000D02*
X213360000Y-73660000D01*
X217170000Y-75670000D02*
X215160000Y-73660000D01*
X217170000Y-76200000D02*
X217170000Y-75670000D01*
X220980000Y-96520000D02*
X220980000Y-85010000D01*
X213360000Y-97790000D02*
X219710000Y-97790000D01*
X219710000Y-97790000D02*
X220980000Y-96520000D01*
D17*
X187960000Y-71120000D02*
X187960000Y-74930000D01*
X187960000Y-74930000D02*
X186690000Y-76200000D01*
X186690000Y-76200000D02*
X180340000Y-76200000D01*
X187960000Y-74930000D02*
X198120000Y-74930000D01*
X198120000Y-74930000D02*
X199390000Y-76200000D01*
X212310000Y-73660000D02*
X213360000Y-73660000D01*
X209770000Y-76200000D02*
X212310000Y-73660000D01*
X199390000Y-76200000D02*
X209770000Y-76200000D01*
X176530000Y-107950000D02*
X176530000Y-106680000D01*
X175260000Y-109220000D02*
X176530000Y-107950000D01*
X171450000Y-109220000D02*
X175260000Y-109220000D01*
X165100000Y-106680000D02*
X168910000Y-106680000D01*
X168910000Y-106680000D02*
X171450000Y-109220000D01*
X160020000Y-62230000D02*
X160020000Y-73660000D01*
X165100000Y-77470000D02*
X163830000Y-77470000D01*
X163830000Y-77470000D02*
X160020000Y-73660000D01*
X194310000Y-87630000D02*
X194310000Y-81280000D01*
X208280000Y-66040000D02*
X200660000Y-66040000D01*
X207010000Y-63500000D02*
X200660000Y-63500000D01*
X205740000Y-60960000D02*
X200660000Y-60960000D01*
X200660000Y-58420000D02*
X204470000Y-58420000D01*
X213360000Y-95250000D02*
X204470000Y-95250000D01*
X204470000Y-95250000D02*
X203200000Y-96520000D01*
X203200000Y-96520000D02*
X203200000Y-97790000D01*
X203200000Y-97790000D02*
X203200000Y-100330000D01*
X203200000Y-100330000D02*
X196850000Y-100330000D01*
X196850000Y-100330000D02*
X195580000Y-99060000D01*
X182880000Y-99060000D02*
X178433590Y-99060000D01*
X178433590Y-99060000D02*
X177800000Y-99060000D01*
X177800000Y-99060000D02*
X175260000Y-96520000D01*
X175260000Y-96520000D02*
X175260000Y-91636998D01*
X175260000Y-91636998D02*
X175260000Y-90170000D01*
X177800000Y-100330000D02*
X182683002Y-100330000D01*
X182683002Y-100330000D02*
X184150000Y-100330000D01*
X184150000Y-100330000D02*
X185420000Y-99060000D01*
X185420000Y-99060000D02*
X185420000Y-78740000D01*
X185420000Y-78740000D02*
X186690000Y-77470000D01*
X186690000Y-77470000D02*
X213360000Y-77470000D01*
X213360000Y-77470000D02*
X214630000Y-76200000D01*
X205740000Y-101600000D02*
X191770000Y-101600000D01*
X191770000Y-101600000D02*
X189230000Y-104140000D01*
X189230000Y-104140000D02*
X162560000Y-104140000D01*
X162560000Y-104140000D02*
X162560000Y-106680000D01*
X161290000Y-96520000D02*
X166370000Y-96520000D01*
X180340000Y-78740000D02*
X179070000Y-78740000D01*
X179070000Y-78740000D02*
X177800000Y-77470000D01*
X177800000Y-77470000D02*
X177800000Y-73660000D01*
X177800000Y-73660000D02*
X172720000Y-73660000D01*
X163830000Y-73660000D02*
X172720000Y-73660000D01*
X186690000Y-101600000D02*
X186690000Y-93980000D01*
X180340000Y-93980000D02*
X177800000Y-91440000D01*
X177800000Y-91440000D02*
X177800000Y-80010000D01*
X177800000Y-80010000D02*
X175260000Y-77470000D01*
X175260000Y-77470000D02*
X175260000Y-76200000D01*
X175260000Y-62230000D02*
X175260000Y-59690000D01*
X175260000Y-59690000D02*
X173990000Y-58420000D01*
X173990000Y-58420000D02*
X167640000Y-58420000D01*
X167640000Y-58420000D02*
X166370000Y-59690000D01*
X166370000Y-59690000D02*
X166370000Y-62230000D01*
X161290000Y-58420000D02*
X161290000Y-64770000D01*
X161290000Y-64770000D02*
X163830000Y-64770000D01*
X170180000Y-71120000D02*
X172720000Y-71120000D01*
X170180000Y-67310000D02*
X170180000Y-71120000D01*
X166370000Y-64770000D02*
X167640000Y-64770000D01*
X167640000Y-64770000D02*
X170180000Y-67310000D01*
D19*
G36*
X234290000Y-54859606D02*
G01*
X234290001Y-104861454D01*
X234185879Y-104664534D01*
X234167657Y-104637260D01*
X233698502Y-104301103D01*
X231319605Y-106680000D01*
X233698502Y-109058897D01*
X234167657Y-108722740D01*
X234290001Y-108496302D01*
X234290001Y-108970393D01*
X233430394Y-109830000D01*
X232958548Y-109830000D01*
X233155466Y-109725879D01*
X233182740Y-109707657D01*
X233518897Y-109238502D01*
X231140000Y-106859605D01*
X228761103Y-109238502D01*
X229097260Y-109707657D01*
X229323696Y-109830000D01*
X198668548Y-109830000D01*
X198865466Y-109725879D01*
X198892740Y-109707657D01*
X199228897Y-109238502D01*
X196850000Y-106859605D01*
X194471103Y-109238502D01*
X194807260Y-109707657D01*
X195033696Y-109830000D01*
X157729606Y-109830000D01*
X156870000Y-108970394D01*
X156870000Y-106680000D01*
X161067815Y-106680000D01*
X161096487Y-106971111D01*
X161181401Y-107251034D01*
X161319294Y-107509014D01*
X161504866Y-107735134D01*
X161730986Y-107920706D01*
X161988966Y-108058599D01*
X162268889Y-108143513D01*
X162487050Y-108165000D01*
X162632950Y-108165000D01*
X162851111Y-108143513D01*
X163131034Y-108058599D01*
X163389014Y-107920706D01*
X163615134Y-107735134D01*
X163639607Y-107705313D01*
X163660498Y-107774180D01*
X163719463Y-107884494D01*
X163798815Y-107981185D01*
X163895506Y-108060537D01*
X164005820Y-108119502D01*
X164125518Y-108155812D01*
X164250000Y-108168072D01*
X164814250Y-108165000D01*
X164973000Y-108006250D01*
X164973000Y-106807000D01*
X165227000Y-106807000D01*
X165227000Y-108006250D01*
X165385750Y-108165000D01*
X165950000Y-108168072D01*
X166074482Y-108155812D01*
X166194180Y-108119502D01*
X166304494Y-108060537D01*
X166401185Y-107981185D01*
X166480537Y-107884494D01*
X166539502Y-107774180D01*
X166575812Y-107654482D01*
X166588072Y-107530000D01*
X166585000Y-106965750D01*
X166426250Y-106807000D01*
X165227000Y-106807000D01*
X164973000Y-106807000D01*
X164953000Y-106807000D01*
X164953000Y-106680000D01*
X172497815Y-106680000D01*
X172526487Y-106971111D01*
X172611401Y-107251034D01*
X172749294Y-107509014D01*
X172934866Y-107735134D01*
X173160986Y-107920706D01*
X173418966Y-108058599D01*
X173698889Y-108143513D01*
X173917050Y-108165000D01*
X174062950Y-108165000D01*
X174281111Y-108143513D01*
X174561034Y-108058599D01*
X174819014Y-107920706D01*
X175045134Y-107735134D01*
X175230706Y-107509014D01*
X175265201Y-107444477D01*
X175334822Y-107561355D01*
X175529731Y-107777588D01*
X175763080Y-107951641D01*
X176025901Y-108076825D01*
X176173110Y-108121476D01*
X176403000Y-108000155D01*
X176403000Y-106807000D01*
X176383000Y-106807000D01*
X176383000Y-106553000D01*
X176403000Y-106553000D01*
X176403000Y-105359845D01*
X176657000Y-105359845D01*
X176657000Y-106553000D01*
X176677000Y-106553000D01*
X176677000Y-106807000D01*
X176657000Y-106807000D01*
X176657000Y-108000155D01*
X176886890Y-108121476D01*
X177034099Y-108076825D01*
X177296920Y-107951641D01*
X177530269Y-107777588D01*
X177725178Y-107561355D01*
X177794799Y-107444477D01*
X177829294Y-107509014D01*
X178014866Y-107735134D01*
X178240986Y-107920706D01*
X178498966Y-108058599D01*
X178778889Y-108143513D01*
X178997050Y-108165000D01*
X179142950Y-108165000D01*
X179361111Y-108143513D01*
X179641034Y-108058599D01*
X179899014Y-107920706D01*
X180125134Y-107735134D01*
X180149607Y-107705313D01*
X180170498Y-107774180D01*
X180229463Y-107884494D01*
X180308815Y-107981185D01*
X180405506Y-108060537D01*
X180515820Y-108119502D01*
X180635518Y-108155812D01*
X180760000Y-108168072D01*
X182460000Y-108168072D01*
X182584482Y-108155812D01*
X182704180Y-108119502D01*
X182814494Y-108060537D01*
X182911185Y-107981185D01*
X182990537Y-107884494D01*
X183049502Y-107774180D01*
X183085812Y-107654482D01*
X183098072Y-107530000D01*
X183098072Y-106663599D01*
X193197710Y-106663599D01*
X193264689Y-107376441D01*
X193469448Y-108062518D01*
X193804121Y-108695466D01*
X193822343Y-108722740D01*
X194291498Y-109058897D01*
X196670395Y-106680000D01*
X197029605Y-106680000D01*
X199408502Y-109058897D01*
X199877657Y-108722740D01*
X200218000Y-108092823D01*
X200428913Y-107408612D01*
X200502290Y-106696401D01*
X200499208Y-106663599D01*
X227487710Y-106663599D01*
X227554689Y-107376441D01*
X227759448Y-108062518D01*
X228094121Y-108695466D01*
X228112343Y-108722740D01*
X228581498Y-109058897D01*
X230960395Y-106680000D01*
X228581498Y-104301103D01*
X228112343Y-104637260D01*
X227772000Y-105267177D01*
X227561087Y-105951388D01*
X227487710Y-106663599D01*
X200499208Y-106663599D01*
X200435311Y-105983559D01*
X200230552Y-105297482D01*
X199895879Y-104664534D01*
X199877657Y-104637260D01*
X199408502Y-104301103D01*
X197029605Y-106680000D01*
X196670395Y-106680000D01*
X194291498Y-104301103D01*
X193822343Y-104637260D01*
X193482000Y-105267177D01*
X193271087Y-105951388D01*
X193197710Y-106663599D01*
X183098072Y-106663599D01*
X183098072Y-105830000D01*
X183085812Y-105705518D01*
X183049502Y-105585820D01*
X182990537Y-105475506D01*
X182911185Y-105378815D01*
X182814494Y-105299463D01*
X182704180Y-105240498D01*
X182584482Y-105204188D01*
X182460000Y-105191928D01*
X180760000Y-105191928D01*
X180635518Y-105204188D01*
X180515820Y-105240498D01*
X180405506Y-105299463D01*
X180308815Y-105378815D01*
X180229463Y-105475506D01*
X180170498Y-105585820D01*
X180149607Y-105654687D01*
X180125134Y-105624866D01*
X179899014Y-105439294D01*
X179641034Y-105301401D01*
X179361111Y-105216487D01*
X179142950Y-105195000D01*
X178997050Y-105195000D01*
X178778889Y-105216487D01*
X178498966Y-105301401D01*
X178240986Y-105439294D01*
X178014866Y-105624866D01*
X177829294Y-105850986D01*
X177794799Y-105915523D01*
X177725178Y-105798645D01*
X177530269Y-105582412D01*
X177296920Y-105408359D01*
X177034099Y-105283175D01*
X176886890Y-105238524D01*
X176657000Y-105359845D01*
X176403000Y-105359845D01*
X176173110Y-105238524D01*
X176025901Y-105283175D01*
X175763080Y-105408359D01*
X175529731Y-105582412D01*
X175334822Y-105798645D01*
X175265201Y-105915523D01*
X175230706Y-105850986D01*
X175045134Y-105624866D01*
X174819014Y-105439294D01*
X174561034Y-105301401D01*
X174281111Y-105216487D01*
X174062950Y-105195000D01*
X173917050Y-105195000D01*
X173698889Y-105216487D01*
X173418966Y-105301401D01*
X173160986Y-105439294D01*
X172934866Y-105624866D01*
X172749294Y-105850986D01*
X172611401Y-106108966D01*
X172526487Y-106388889D01*
X172497815Y-106680000D01*
X164953000Y-106680000D01*
X164953000Y-106553000D01*
X164973000Y-106553000D01*
X164973000Y-105353750D01*
X165227000Y-105353750D01*
X165227000Y-106553000D01*
X166426250Y-106553000D01*
X166585000Y-106394250D01*
X166588072Y-105830000D01*
X166575812Y-105705518D01*
X166539502Y-105585820D01*
X166480537Y-105475506D01*
X166401185Y-105378815D01*
X166304494Y-105299463D01*
X166194180Y-105240498D01*
X166074482Y-105204188D01*
X165950000Y-105191928D01*
X165385750Y-105195000D01*
X165227000Y-105353750D01*
X164973000Y-105353750D01*
X164814250Y-105195000D01*
X164250000Y-105191928D01*
X164125518Y-105204188D01*
X164005820Y-105240498D01*
X163895506Y-105299463D01*
X163798815Y-105378815D01*
X163719463Y-105475506D01*
X163660498Y-105585820D01*
X163639607Y-105654687D01*
X163615134Y-105624866D01*
X163389014Y-105439294D01*
X163320000Y-105402405D01*
X163320000Y-104900000D01*
X189192678Y-104900000D01*
X189230000Y-104903676D01*
X189267322Y-104900000D01*
X189267333Y-104900000D01*
X189378986Y-104889003D01*
X189522247Y-104845546D01*
X189654276Y-104774974D01*
X189770001Y-104680001D01*
X189793804Y-104650997D01*
X190323303Y-104121498D01*
X194471103Y-104121498D01*
X196850000Y-106500395D01*
X199228897Y-104121498D01*
X228761103Y-104121498D01*
X231140000Y-106500395D01*
X233518897Y-104121498D01*
X233182740Y-103652343D01*
X232552823Y-103312000D01*
X231868612Y-103101087D01*
X231156401Y-103027710D01*
X230443559Y-103094689D01*
X229757482Y-103299448D01*
X229124534Y-103634121D01*
X229097260Y-103652343D01*
X228761103Y-104121498D01*
X199228897Y-104121498D01*
X198892740Y-103652343D01*
X198262823Y-103312000D01*
X197578612Y-103101087D01*
X196866401Y-103027710D01*
X196153559Y-103094689D01*
X195467482Y-103299448D01*
X194834534Y-103634121D01*
X194807260Y-103652343D01*
X194471103Y-104121498D01*
X190323303Y-104121498D01*
X192084803Y-102360000D01*
X204251928Y-102360000D01*
X204251928Y-102450000D01*
X204264188Y-102574482D01*
X204300498Y-102694180D01*
X204359463Y-102804494D01*
X204438815Y-102901185D01*
X204535506Y-102980537D01*
X204645820Y-103039502D01*
X204765518Y-103075812D01*
X204890000Y-103088072D01*
X206590000Y-103088072D01*
X206714482Y-103075812D01*
X206834180Y-103039502D01*
X206944494Y-102980537D01*
X207041185Y-102901185D01*
X207120537Y-102804494D01*
X207179502Y-102694180D01*
X207200393Y-102625313D01*
X207224866Y-102655134D01*
X207450986Y-102840706D01*
X207708966Y-102978599D01*
X207988889Y-103063513D01*
X208207050Y-103085000D01*
X208352950Y-103085000D01*
X208571111Y-103063513D01*
X208851034Y-102978599D01*
X209109014Y-102840706D01*
X209335134Y-102655134D01*
X209520706Y-102429014D01*
X209658599Y-102171034D01*
X209743513Y-101891111D01*
X209772185Y-101600000D01*
X209743513Y-101308889D01*
X209658599Y-101028966D01*
X209520706Y-100770986D01*
X209335134Y-100544866D01*
X209109014Y-100359294D01*
X208851034Y-100221401D01*
X208571111Y-100136487D01*
X208352950Y-100115000D01*
X208207050Y-100115000D01*
X207988889Y-100136487D01*
X207708966Y-100221401D01*
X207450986Y-100359294D01*
X207224866Y-100544866D01*
X207200393Y-100574687D01*
X207179502Y-100505820D01*
X207120537Y-100395506D01*
X207041185Y-100298815D01*
X206944494Y-100219463D01*
X206834180Y-100160498D01*
X206714482Y-100124188D01*
X206590000Y-100111928D01*
X204890000Y-100111928D01*
X204765518Y-100124188D01*
X204645820Y-100160498D01*
X204535506Y-100219463D01*
X204438815Y-100298815D01*
X204359463Y-100395506D01*
X204300498Y-100505820D01*
X204264188Y-100625518D01*
X204251928Y-100750000D01*
X204251928Y-100840000D01*
X203764622Y-100840000D01*
X203834974Y-100754276D01*
X203905546Y-100622247D01*
X203949003Y-100478986D01*
X203960000Y-100367333D01*
X203963677Y-100330000D01*
X203960000Y-100292667D01*
X203960000Y-98590000D01*
X211921928Y-98590000D01*
X211934188Y-98714482D01*
X211970498Y-98834180D01*
X212029463Y-98944494D01*
X212108815Y-99041185D01*
X212205506Y-99120537D01*
X212315820Y-99179502D01*
X212435518Y-99215812D01*
X212560000Y-99228072D01*
X213074250Y-99225000D01*
X213233000Y-99066250D01*
X213233000Y-97917000D01*
X213487000Y-97917000D01*
X213487000Y-99066250D01*
X213645750Y-99225000D01*
X214160000Y-99228072D01*
X214284482Y-99215812D01*
X214404180Y-99179502D01*
X214514494Y-99120537D01*
X214611185Y-99041185D01*
X214690537Y-98944494D01*
X214749502Y-98834180D01*
X214785812Y-98714482D01*
X214798072Y-98590000D01*
X214795000Y-98075750D01*
X214636250Y-97917000D01*
X213487000Y-97917000D01*
X213233000Y-97917000D01*
X212083750Y-97917000D01*
X211925000Y-98075750D01*
X211921928Y-98590000D01*
X203960000Y-98590000D01*
X203960000Y-96834801D01*
X204784802Y-96010000D01*
X212139099Y-96010000D01*
X212161068Y-96051101D01*
X212340392Y-96269608D01*
X212453482Y-96362419D01*
X212435518Y-96364188D01*
X212315820Y-96400498D01*
X212205506Y-96459463D01*
X212108815Y-96538815D01*
X212029463Y-96635506D01*
X211970498Y-96745820D01*
X211934188Y-96865518D01*
X211921928Y-96990000D01*
X211925000Y-97504250D01*
X212083750Y-97663000D01*
X213233000Y-97663000D01*
X213233000Y-97643000D01*
X213487000Y-97643000D01*
X213487000Y-97663000D01*
X214636250Y-97663000D01*
X214795000Y-97504250D01*
X214798072Y-96990000D01*
X214785812Y-96865518D01*
X214749502Y-96745820D01*
X214690537Y-96635506D01*
X214611185Y-96538815D01*
X214514494Y-96459463D01*
X214404180Y-96400498D01*
X214284482Y-96364188D01*
X214266518Y-96362419D01*
X214379608Y-96269608D01*
X214558932Y-96051101D01*
X214692182Y-95801808D01*
X214774236Y-95531309D01*
X214801943Y-95250000D01*
X214774236Y-94968691D01*
X214692182Y-94698192D01*
X214558932Y-94448899D01*
X214379608Y-94230392D01*
X214161101Y-94051068D01*
X214028142Y-93980000D01*
X214161101Y-93908932D01*
X214379608Y-93729608D01*
X214558932Y-93511101D01*
X214692182Y-93261808D01*
X214774236Y-92991309D01*
X214801943Y-92710000D01*
X214774236Y-92428691D01*
X214692182Y-92158192D01*
X214558932Y-91908899D01*
X214379608Y-91690392D01*
X214161101Y-91511068D01*
X214028142Y-91440000D01*
X214161101Y-91368932D01*
X214379608Y-91189608D01*
X214558932Y-90971101D01*
X214692182Y-90721808D01*
X214774236Y-90451309D01*
X214801943Y-90170000D01*
X214774236Y-89888691D01*
X214692182Y-89618192D01*
X214558932Y-89368899D01*
X214379608Y-89150392D01*
X214161101Y-88971068D01*
X214028142Y-88900000D01*
X214161101Y-88828932D01*
X214379608Y-88649608D01*
X214558932Y-88431101D01*
X214692182Y-88181808D01*
X214774236Y-87911309D01*
X214801943Y-87630000D01*
X214774236Y-87348691D01*
X214692182Y-87078192D01*
X214558932Y-86828899D01*
X214379608Y-86610392D01*
X214161101Y-86431068D01*
X214028142Y-86360000D01*
X214161101Y-86288932D01*
X214379608Y-86109608D01*
X214467343Y-86002702D01*
X220166903Y-86002702D01*
X220238486Y-86246671D01*
X220493996Y-86367571D01*
X220768184Y-86436300D01*
X221050512Y-86450217D01*
X221330130Y-86408787D01*
X221596292Y-86313603D01*
X221721514Y-86246671D01*
X221793097Y-86002702D01*
X220980000Y-85189605D01*
X220166903Y-86002702D01*
X214467343Y-86002702D01*
X214558932Y-85891101D01*
X214692182Y-85641808D01*
X214774236Y-85371309D01*
X214801943Y-85090000D01*
X214801009Y-85080512D01*
X219539783Y-85080512D01*
X219581213Y-85360130D01*
X219676397Y-85626292D01*
X219743329Y-85751514D01*
X219987298Y-85823097D01*
X220800395Y-85010000D01*
X221159605Y-85010000D01*
X221972702Y-85823097D01*
X222216671Y-85751514D01*
X222337571Y-85496004D01*
X222406300Y-85221816D01*
X222420217Y-84939488D01*
X222378787Y-84659870D01*
X222283603Y-84393708D01*
X222216671Y-84268486D01*
X221972702Y-84196903D01*
X221159605Y-85010000D01*
X220800395Y-85010000D01*
X219987298Y-84196903D01*
X219743329Y-84268486D01*
X219622429Y-84523996D01*
X219553700Y-84798184D01*
X219539783Y-85080512D01*
X214801009Y-85080512D01*
X214774236Y-84808691D01*
X214692182Y-84538192D01*
X214558932Y-84288899D01*
X214379608Y-84070392D01*
X214314913Y-84017298D01*
X220166903Y-84017298D01*
X220980000Y-84830395D01*
X221793097Y-84017298D01*
X221721514Y-83773329D01*
X221466004Y-83652429D01*
X221191816Y-83583700D01*
X220909488Y-83569783D01*
X220629870Y-83611213D01*
X220363708Y-83706397D01*
X220238486Y-83773329D01*
X220166903Y-84017298D01*
X214314913Y-84017298D01*
X214161101Y-83891068D01*
X214023318Y-83817421D01*
X214215131Y-83702385D01*
X214423519Y-83513414D01*
X214591037Y-83287420D01*
X214711246Y-83033087D01*
X214751904Y-82899039D01*
X214629915Y-82677000D01*
X213487000Y-82677000D01*
X213487000Y-82697000D01*
X213233000Y-82697000D01*
X213233000Y-82677000D01*
X212090085Y-82677000D01*
X211968096Y-82899039D01*
X212008754Y-83033087D01*
X212128963Y-83287420D01*
X212296481Y-83513414D01*
X212504869Y-83702385D01*
X212696682Y-83817421D01*
X212558899Y-83891068D01*
X212340392Y-84070392D01*
X212161068Y-84288899D01*
X212027818Y-84538192D01*
X211945764Y-84808691D01*
X211918057Y-85090000D01*
X211945764Y-85371309D01*
X212027818Y-85641808D01*
X212161068Y-85891101D01*
X212340392Y-86109608D01*
X212558899Y-86288932D01*
X212691858Y-86360000D01*
X212558899Y-86431068D01*
X212340392Y-86610392D01*
X212161068Y-86828899D01*
X212027818Y-87078192D01*
X211945764Y-87348691D01*
X211918057Y-87630000D01*
X211945764Y-87911309D01*
X212027818Y-88181808D01*
X212161068Y-88431101D01*
X212340392Y-88649608D01*
X212558899Y-88828932D01*
X212691858Y-88900000D01*
X212558899Y-88971068D01*
X212340392Y-89150392D01*
X212161068Y-89368899D01*
X212027818Y-89618192D01*
X211945764Y-89888691D01*
X211918057Y-90170000D01*
X211945764Y-90451309D01*
X212027818Y-90721808D01*
X212161068Y-90971101D01*
X212340392Y-91189608D01*
X212558899Y-91368932D01*
X212691858Y-91440000D01*
X212558899Y-91511068D01*
X212340392Y-91690392D01*
X212161068Y-91908899D01*
X212027818Y-92158192D01*
X211945764Y-92428691D01*
X211918057Y-92710000D01*
X211945764Y-92991309D01*
X212027818Y-93261808D01*
X212161068Y-93511101D01*
X212340392Y-93729608D01*
X212558899Y-93908932D01*
X212691858Y-93980000D01*
X212558899Y-94051068D01*
X212340392Y-94230392D01*
X212161068Y-94448899D01*
X212139099Y-94490000D01*
X204507322Y-94490000D01*
X204469999Y-94486324D01*
X204432676Y-94490000D01*
X204432667Y-94490000D01*
X204321014Y-94500997D01*
X204177753Y-94544454D01*
X204045724Y-94615026D01*
X203929999Y-94709999D01*
X203906201Y-94738997D01*
X202689003Y-95956196D01*
X202659999Y-95979999D01*
X202619175Y-96029744D01*
X202565026Y-96095724D01*
X202499613Y-96218102D01*
X202494454Y-96227754D01*
X202450997Y-96371015D01*
X202440000Y-96482668D01*
X202440000Y-96482678D01*
X202436324Y-96520000D01*
X202440000Y-96557323D01*
X202440001Y-97752658D01*
X202440000Y-97752668D01*
X202440001Y-99570000D01*
X197164802Y-99570000D01*
X196615000Y-99020199D01*
X196615000Y-98958061D01*
X196575226Y-98758102D01*
X196497205Y-98569744D01*
X196383937Y-98400226D01*
X196239774Y-98256063D01*
X196070256Y-98142795D01*
X195881898Y-98064774D01*
X195681939Y-98025000D01*
X195478061Y-98025000D01*
X195278102Y-98064774D01*
X195089744Y-98142795D01*
X194920226Y-98256063D01*
X194776063Y-98400226D01*
X194662795Y-98569744D01*
X194584774Y-98758102D01*
X194545000Y-98958061D01*
X194545000Y-99161939D01*
X194584774Y-99361898D01*
X194662795Y-99550256D01*
X194776063Y-99719774D01*
X194920226Y-99863937D01*
X195089744Y-99977205D01*
X195278102Y-100055226D01*
X195478061Y-100095000D01*
X195540199Y-100095000D01*
X196285198Y-100840000D01*
X191807322Y-100840000D01*
X191769999Y-100836324D01*
X191732676Y-100840000D01*
X191732667Y-100840000D01*
X191621014Y-100850997D01*
X191477753Y-100894454D01*
X191345724Y-100965026D01*
X191345722Y-100965027D01*
X191345723Y-100965027D01*
X191258996Y-101036201D01*
X191258992Y-101036205D01*
X191229999Y-101059999D01*
X191206205Y-101088992D01*
X188915199Y-103380000D01*
X162597333Y-103380000D01*
X162560000Y-103376323D01*
X162522667Y-103380000D01*
X162411014Y-103390997D01*
X162267753Y-103434454D01*
X162135724Y-103505026D01*
X162019999Y-103599999D01*
X161925026Y-103715724D01*
X161854454Y-103847753D01*
X161810997Y-103991014D01*
X161796323Y-104140000D01*
X161800000Y-104177333D01*
X161800000Y-105402405D01*
X161730986Y-105439294D01*
X161504866Y-105624866D01*
X161319294Y-105850986D01*
X161181401Y-106108966D01*
X161096487Y-106388889D01*
X161067815Y-106680000D01*
X156870000Y-106680000D01*
X156870000Y-96418061D01*
X160255000Y-96418061D01*
X160255000Y-96621939D01*
X160294774Y-96821898D01*
X160372795Y-97010256D01*
X160486063Y-97179774D01*
X160630226Y-97323937D01*
X160799744Y-97437205D01*
X160988102Y-97515226D01*
X161188061Y-97555000D01*
X161391939Y-97555000D01*
X161591898Y-97515226D01*
X161780256Y-97437205D01*
X161949774Y-97323937D01*
X161993711Y-97280000D01*
X165666289Y-97280000D01*
X165710226Y-97323937D01*
X165879744Y-97437205D01*
X166068102Y-97515226D01*
X166268061Y-97555000D01*
X166471939Y-97555000D01*
X166671898Y-97515226D01*
X166860256Y-97437205D01*
X167029774Y-97323937D01*
X167173937Y-97179774D01*
X167287205Y-97010256D01*
X167365226Y-96821898D01*
X167405000Y-96621939D01*
X167405000Y-96418061D01*
X167365226Y-96218102D01*
X167287205Y-96029744D01*
X167173937Y-95860226D01*
X167029774Y-95716063D01*
X166860256Y-95602795D01*
X166671898Y-95524774D01*
X166471939Y-95485000D01*
X166268061Y-95485000D01*
X166068102Y-95524774D01*
X165879744Y-95602795D01*
X165710226Y-95716063D01*
X165666289Y-95760000D01*
X161993711Y-95760000D01*
X161949774Y-95716063D01*
X161780256Y-95602795D01*
X161591898Y-95524774D01*
X161391939Y-95485000D01*
X161188061Y-95485000D01*
X160988102Y-95524774D01*
X160799744Y-95602795D01*
X160630226Y-95716063D01*
X160486063Y-95860226D01*
X160372795Y-96029744D01*
X160294774Y-96218102D01*
X160255000Y-96418061D01*
X156870000Y-96418061D01*
X156870000Y-81280000D01*
X171278057Y-81280000D01*
X171305764Y-81561309D01*
X171387818Y-81831808D01*
X171521068Y-82081101D01*
X171700392Y-82299608D01*
X171918899Y-82478932D01*
X172051858Y-82550000D01*
X171918899Y-82621068D01*
X171700392Y-82800392D01*
X171521068Y-83018899D01*
X171387818Y-83268192D01*
X171305764Y-83538691D01*
X171278057Y-83820000D01*
X171305764Y-84101309D01*
X171387818Y-84371808D01*
X171521068Y-84621101D01*
X171700392Y-84839608D01*
X171918899Y-85018932D01*
X172051858Y-85090000D01*
X171918899Y-85161068D01*
X171700392Y-85340392D01*
X171521068Y-85558899D01*
X171387818Y-85808192D01*
X171305764Y-86078691D01*
X171278057Y-86360000D01*
X171305764Y-86641309D01*
X171387818Y-86911808D01*
X171521068Y-87161101D01*
X171700392Y-87379608D01*
X171918899Y-87558932D01*
X172051858Y-87630000D01*
X171918899Y-87701068D01*
X171700392Y-87880392D01*
X171521068Y-88098899D01*
X171387818Y-88348192D01*
X171305764Y-88618691D01*
X171278057Y-88900000D01*
X171305764Y-89181309D01*
X171387818Y-89451808D01*
X171521068Y-89701101D01*
X171700392Y-89919608D01*
X171918899Y-90098932D01*
X172051858Y-90170000D01*
X171918899Y-90241068D01*
X171700392Y-90420392D01*
X171521068Y-90638899D01*
X171387818Y-90888192D01*
X171305764Y-91158691D01*
X171278057Y-91440000D01*
X171305764Y-91721309D01*
X171387818Y-91991808D01*
X171521068Y-92241101D01*
X171700392Y-92459608D01*
X171918899Y-92638932D01*
X172051858Y-92710000D01*
X171918899Y-92781068D01*
X171700392Y-92960392D01*
X171521068Y-93178899D01*
X171387818Y-93428192D01*
X171305764Y-93698691D01*
X171278057Y-93980000D01*
X171305764Y-94261309D01*
X171387818Y-94531808D01*
X171521068Y-94781101D01*
X171700392Y-94999608D01*
X171918899Y-95178932D01*
X172168192Y-95312182D01*
X172438691Y-95394236D01*
X172649508Y-95415000D01*
X172790492Y-95415000D01*
X173001309Y-95394236D01*
X173271808Y-95312182D01*
X173521101Y-95178932D01*
X173739608Y-94999608D01*
X173918932Y-94781101D01*
X174052182Y-94531808D01*
X174134236Y-94261309D01*
X174161943Y-93980000D01*
X174134236Y-93698691D01*
X174052182Y-93428192D01*
X173918932Y-93178899D01*
X173739608Y-92960392D01*
X173521101Y-92781068D01*
X173388142Y-92710000D01*
X173521101Y-92638932D01*
X173739608Y-92459608D01*
X173918932Y-92241101D01*
X174052182Y-91991808D01*
X174134236Y-91721309D01*
X174161943Y-91440000D01*
X174134236Y-91158691D01*
X174052182Y-90888192D01*
X173918932Y-90638899D01*
X173739608Y-90420392D01*
X173521101Y-90241068D01*
X173388142Y-90170000D01*
X173521101Y-90098932D01*
X173739608Y-89919608D01*
X173918932Y-89701101D01*
X174052182Y-89451808D01*
X174134236Y-89181309D01*
X174161943Y-88900000D01*
X174134236Y-88618691D01*
X174052182Y-88348192D01*
X173918932Y-88098899D01*
X173739608Y-87880392D01*
X173521101Y-87701068D01*
X173388142Y-87630000D01*
X173521101Y-87558932D01*
X173739608Y-87379608D01*
X173918932Y-87161101D01*
X174052182Y-86911808D01*
X174134236Y-86641309D01*
X174161943Y-86360000D01*
X174134236Y-86078691D01*
X174052182Y-85808192D01*
X173918932Y-85558899D01*
X173739608Y-85340392D01*
X173521101Y-85161068D01*
X173388142Y-85090000D01*
X173521101Y-85018932D01*
X173739608Y-84839608D01*
X173918932Y-84621101D01*
X174052182Y-84371808D01*
X174134236Y-84101309D01*
X174161943Y-83820000D01*
X174134236Y-83538691D01*
X174052182Y-83268192D01*
X173918932Y-83018899D01*
X173739608Y-82800392D01*
X173521101Y-82621068D01*
X173388142Y-82550000D01*
X173521101Y-82478932D01*
X173739608Y-82299608D01*
X173918932Y-82081101D01*
X174052182Y-81831808D01*
X174134236Y-81561309D01*
X174161943Y-81280000D01*
X174134236Y-80998691D01*
X174052182Y-80728192D01*
X173918932Y-80478899D01*
X173739608Y-80260392D01*
X173521101Y-80081068D01*
X173383318Y-80007421D01*
X173575131Y-79892385D01*
X173783519Y-79703414D01*
X173951037Y-79477420D01*
X174071246Y-79223087D01*
X174111904Y-79089039D01*
X173989915Y-78867000D01*
X172847000Y-78867000D01*
X172847000Y-78887000D01*
X172593000Y-78887000D01*
X172593000Y-78867000D01*
X171450085Y-78867000D01*
X171328096Y-79089039D01*
X171368754Y-79223087D01*
X171488963Y-79477420D01*
X171656481Y-79703414D01*
X171864869Y-79892385D01*
X172056682Y-80007421D01*
X171918899Y-80081068D01*
X171700392Y-80260392D01*
X171521068Y-80478899D01*
X171387818Y-80728192D01*
X171305764Y-80998691D01*
X171278057Y-81280000D01*
X156870000Y-81280000D01*
X156870000Y-58318061D01*
X160255000Y-58318061D01*
X160255000Y-58521939D01*
X160294774Y-58721898D01*
X160372795Y-58910256D01*
X160486063Y-59079774D01*
X160530000Y-59123711D01*
X160530001Y-64732657D01*
X160526323Y-64770000D01*
X160540997Y-64918986D01*
X160584454Y-65062247D01*
X160655026Y-65194276D01*
X160749999Y-65310001D01*
X160865724Y-65404974D01*
X160997753Y-65475546D01*
X161141014Y-65519003D01*
X161252667Y-65530000D01*
X161290000Y-65533677D01*
X161327333Y-65530000D01*
X162552405Y-65530000D01*
X162589294Y-65599014D01*
X162774866Y-65825134D01*
X163000986Y-66010706D01*
X163055791Y-66040000D01*
X163000986Y-66069294D01*
X162774866Y-66254866D01*
X162589294Y-66480986D01*
X162451401Y-66738966D01*
X162366487Y-67018889D01*
X162337815Y-67310000D01*
X162366487Y-67601111D01*
X162451401Y-67881034D01*
X162589294Y-68139014D01*
X162774866Y-68365134D01*
X163000986Y-68550706D01*
X163258966Y-68688599D01*
X163538889Y-68773513D01*
X163757050Y-68795000D01*
X163902950Y-68795000D01*
X164121111Y-68773513D01*
X164401034Y-68688599D01*
X164659014Y-68550706D01*
X164885134Y-68365134D01*
X164909607Y-68335313D01*
X164930498Y-68404180D01*
X164989463Y-68514494D01*
X165068815Y-68611185D01*
X165165506Y-68690537D01*
X165275820Y-68749502D01*
X165395518Y-68785812D01*
X165520000Y-68798072D01*
X167220000Y-68798072D01*
X167344482Y-68785812D01*
X167464180Y-68749502D01*
X167574494Y-68690537D01*
X167671185Y-68611185D01*
X167750537Y-68514494D01*
X167809502Y-68404180D01*
X167845812Y-68284482D01*
X167858072Y-68160000D01*
X167858072Y-66460000D01*
X167845812Y-66335518D01*
X167809502Y-66215820D01*
X167750537Y-66105506D01*
X167671185Y-66008815D01*
X167574494Y-65929463D01*
X167464180Y-65870498D01*
X167395313Y-65849607D01*
X167425134Y-65825134D01*
X167513121Y-65717922D01*
X169420000Y-67624803D01*
X169420001Y-71082657D01*
X169416323Y-71120000D01*
X169430997Y-71268986D01*
X169474454Y-71412247D01*
X169545026Y-71544276D01*
X169639999Y-71660001D01*
X169755724Y-71754974D01*
X169887753Y-71825546D01*
X170031014Y-71869003D01*
X170142667Y-71880000D01*
X170180000Y-71883677D01*
X170217333Y-71880000D01*
X171499099Y-71880000D01*
X171521068Y-71921101D01*
X171700392Y-72139608D01*
X171918899Y-72318932D01*
X172051858Y-72390000D01*
X171918899Y-72461068D01*
X171700392Y-72640392D01*
X171521068Y-72858899D01*
X171499099Y-72900000D01*
X164533711Y-72900000D01*
X164489774Y-72856063D01*
X164320256Y-72742795D01*
X164131898Y-72664774D01*
X163931939Y-72625000D01*
X163728061Y-72625000D01*
X163528102Y-72664774D01*
X163339744Y-72742795D01*
X163170226Y-72856063D01*
X163026063Y-73000226D01*
X162912795Y-73169744D01*
X162834774Y-73358102D01*
X162795000Y-73558061D01*
X162795000Y-73761939D01*
X162834774Y-73961898D01*
X162912795Y-74150256D01*
X163026063Y-74319774D01*
X163170226Y-74463937D01*
X163339744Y-74577205D01*
X163528102Y-74655226D01*
X163728061Y-74695000D01*
X163931939Y-74695000D01*
X164131898Y-74655226D01*
X164320256Y-74577205D01*
X164489774Y-74463937D01*
X164533711Y-74420000D01*
X171499099Y-74420000D01*
X171521068Y-74461101D01*
X171700392Y-74679608D01*
X171918899Y-74858932D01*
X172051858Y-74930000D01*
X171918899Y-75001068D01*
X171700392Y-75180392D01*
X171521068Y-75398899D01*
X171387818Y-75648192D01*
X171305764Y-75918691D01*
X171278057Y-76200000D01*
X171305764Y-76481309D01*
X171387818Y-76751808D01*
X171521068Y-77001101D01*
X171700392Y-77219608D01*
X171918899Y-77398932D01*
X172056682Y-77472579D01*
X171864869Y-77587615D01*
X171656481Y-77776586D01*
X171488963Y-78002580D01*
X171368754Y-78256913D01*
X171328096Y-78390961D01*
X171450085Y-78613000D01*
X172593000Y-78613000D01*
X172593000Y-78593000D01*
X172847000Y-78593000D01*
X172847000Y-78613000D01*
X173989915Y-78613000D01*
X174111904Y-78390961D01*
X174071246Y-78256913D01*
X173951037Y-78002580D01*
X173783519Y-77776586D01*
X173575131Y-77587615D01*
X173383318Y-77472579D01*
X173521101Y-77398932D01*
X173739608Y-77219608D01*
X173918932Y-77001101D01*
X174052182Y-76751808D01*
X174134236Y-76481309D01*
X174161943Y-76200000D01*
X174134236Y-75918691D01*
X174052182Y-75648192D01*
X173918932Y-75398899D01*
X173739608Y-75180392D01*
X173521101Y-75001068D01*
X173388142Y-74930000D01*
X173521101Y-74858932D01*
X173739608Y-74679608D01*
X173918932Y-74461101D01*
X173940901Y-74420000D01*
X177040001Y-74420000D01*
X177040000Y-77432677D01*
X177036324Y-77470000D01*
X177040000Y-77507322D01*
X177040000Y-77507332D01*
X177050997Y-77618985D01*
X177081758Y-77720392D01*
X177094454Y-77762246D01*
X177165026Y-77894276D01*
X177201648Y-77938899D01*
X177259999Y-78010001D01*
X177289003Y-78033804D01*
X178506201Y-79251003D01*
X178529999Y-79280001D01*
X178645724Y-79374974D01*
X178777753Y-79445546D01*
X178921014Y-79489003D01*
X179032667Y-79500000D01*
X179032676Y-79500000D01*
X179069999Y-79503676D01*
X179107322Y-79500000D01*
X179119099Y-79500000D01*
X179141068Y-79541101D01*
X179320392Y-79759608D01*
X179538899Y-79938932D01*
X179671858Y-80010000D01*
X179538899Y-80081068D01*
X179320392Y-80260392D01*
X179141068Y-80478899D01*
X179007818Y-80728192D01*
X178925764Y-80998691D01*
X178898057Y-81280000D01*
X178925764Y-81561309D01*
X179007818Y-81831808D01*
X179141068Y-82081101D01*
X179320392Y-82299608D01*
X179538899Y-82478932D01*
X179671858Y-82550000D01*
X179538899Y-82621068D01*
X179320392Y-82800392D01*
X179141068Y-83018899D01*
X179007818Y-83268192D01*
X178925764Y-83538691D01*
X178898057Y-83820000D01*
X178925764Y-84101309D01*
X179007818Y-84371808D01*
X179141068Y-84621101D01*
X179320392Y-84839608D01*
X179538899Y-85018932D01*
X179671858Y-85090000D01*
X179538899Y-85161068D01*
X179320392Y-85340392D01*
X179141068Y-85558899D01*
X179007818Y-85808192D01*
X178925764Y-86078691D01*
X178898057Y-86360000D01*
X178925764Y-86641309D01*
X179007818Y-86911808D01*
X179141068Y-87161101D01*
X179320392Y-87379608D01*
X179538899Y-87558932D01*
X179671858Y-87630000D01*
X179538899Y-87701068D01*
X179320392Y-87880392D01*
X179141068Y-88098899D01*
X179007818Y-88348192D01*
X178925764Y-88618691D01*
X178898057Y-88900000D01*
X178925764Y-89181309D01*
X179007818Y-89451808D01*
X179141068Y-89701101D01*
X179320392Y-89919608D01*
X179538899Y-90098932D01*
X179671858Y-90170000D01*
X179538899Y-90241068D01*
X179320392Y-90420392D01*
X179141068Y-90638899D01*
X179007818Y-90888192D01*
X178925764Y-91158691D01*
X178898057Y-91440000D01*
X178900598Y-91465796D01*
X178560000Y-91125199D01*
X178560000Y-80047322D01*
X178563676Y-80009999D01*
X178560000Y-79972676D01*
X178560000Y-79972667D01*
X178549003Y-79861014D01*
X178505546Y-79717753D01*
X178434974Y-79585724D01*
X178398353Y-79541101D01*
X178363799Y-79498996D01*
X178363795Y-79498992D01*
X178340001Y-79469999D01*
X178311008Y-79446205D01*
X176020000Y-77155199D01*
X176020000Y-76903711D01*
X176063937Y-76859774D01*
X176177205Y-76690256D01*
X176255226Y-76501898D01*
X176295000Y-76301939D01*
X176295000Y-76098061D01*
X176255226Y-75898102D01*
X176177205Y-75709744D01*
X176063937Y-75540226D01*
X175919774Y-75396063D01*
X175750256Y-75282795D01*
X175561898Y-75204774D01*
X175361939Y-75165000D01*
X175158061Y-75165000D01*
X174958102Y-75204774D01*
X174769744Y-75282795D01*
X174600226Y-75396063D01*
X174456063Y-75540226D01*
X174342795Y-75709744D01*
X174264774Y-75898102D01*
X174225000Y-76098061D01*
X174225000Y-76301939D01*
X174264774Y-76501898D01*
X174342795Y-76690256D01*
X174456063Y-76859774D01*
X174500000Y-76903711D01*
X174500000Y-77432677D01*
X174496324Y-77470000D01*
X174500000Y-77507322D01*
X174500000Y-77507332D01*
X174510997Y-77618985D01*
X174541758Y-77720392D01*
X174554454Y-77762246D01*
X174625026Y-77894276D01*
X174661648Y-77938899D01*
X174719999Y-78010001D01*
X174749003Y-78033804D01*
X177040001Y-80324804D01*
X177040000Y-90535988D01*
X177020256Y-90522795D01*
X176831898Y-90444774D01*
X176631939Y-90405000D01*
X176428061Y-90405000D01*
X176261961Y-90438039D01*
X176295000Y-90271939D01*
X176295000Y-90068061D01*
X176255226Y-89868102D01*
X176177205Y-89679744D01*
X176063937Y-89510226D01*
X175919774Y-89366063D01*
X175750256Y-89252795D01*
X175561898Y-89174774D01*
X175361939Y-89135000D01*
X175158061Y-89135000D01*
X174958102Y-89174774D01*
X174769744Y-89252795D01*
X174600226Y-89366063D01*
X174456063Y-89510226D01*
X174342795Y-89679744D01*
X174264774Y-89868102D01*
X174225000Y-90068061D01*
X174225000Y-90271939D01*
X174264774Y-90471898D01*
X174342795Y-90660256D01*
X174456063Y-90829774D01*
X174500001Y-90873712D01*
X174500000Y-91674330D01*
X174500001Y-91674340D01*
X174500000Y-96482677D01*
X174496324Y-96520000D01*
X174500000Y-96557322D01*
X174500000Y-96557332D01*
X174510997Y-96668985D01*
X174541758Y-96770392D01*
X174554454Y-96812246D01*
X174625026Y-96944276D01*
X174661648Y-96988899D01*
X174719999Y-97060001D01*
X174749003Y-97083804D01*
X177170819Y-99505622D01*
X177140226Y-99526063D01*
X176996063Y-99670226D01*
X176882795Y-99839744D01*
X176804774Y-100028102D01*
X176765000Y-100228061D01*
X176765000Y-100431939D01*
X176804774Y-100631898D01*
X176882795Y-100820256D01*
X176996063Y-100989774D01*
X177140226Y-101133937D01*
X177309744Y-101247205D01*
X177498102Y-101325226D01*
X177698061Y-101365000D01*
X177901939Y-101365000D01*
X178101898Y-101325226D01*
X178290256Y-101247205D01*
X178459774Y-101133937D01*
X178503711Y-101090000D01*
X184112678Y-101090000D01*
X184150000Y-101093676D01*
X184187322Y-101090000D01*
X184187333Y-101090000D01*
X184298986Y-101079003D01*
X184442247Y-101035546D01*
X184574276Y-100964974D01*
X184690001Y-100870001D01*
X184713804Y-100840997D01*
X185930000Y-99624802D01*
X185930000Y-100896289D01*
X185886063Y-100940226D01*
X185772795Y-101109744D01*
X185694774Y-101298102D01*
X185655000Y-101498061D01*
X185655000Y-101701939D01*
X185694774Y-101901898D01*
X185772795Y-102090256D01*
X185886063Y-102259774D01*
X186030226Y-102403937D01*
X186199744Y-102517205D01*
X186388102Y-102595226D01*
X186588061Y-102635000D01*
X186791939Y-102635000D01*
X186991898Y-102595226D01*
X187180256Y-102517205D01*
X187349774Y-102403937D01*
X187493937Y-102259774D01*
X187607205Y-102090256D01*
X187685226Y-101901898D01*
X187725000Y-101701939D01*
X187725000Y-101498061D01*
X187685226Y-101298102D01*
X187607205Y-101109744D01*
X187493937Y-100940226D01*
X187450000Y-100896289D01*
X187450000Y-94683711D01*
X187493937Y-94639774D01*
X187607205Y-94470256D01*
X187685226Y-94281898D01*
X187725000Y-94081939D01*
X187725000Y-93878061D01*
X187685226Y-93678102D01*
X187607205Y-93489744D01*
X187493937Y-93320226D01*
X187349774Y-93176063D01*
X187180256Y-93062795D01*
X186991898Y-92984774D01*
X186791939Y-92945000D01*
X186588061Y-92945000D01*
X186388102Y-92984774D01*
X186199744Y-93062795D01*
X186180000Y-93075987D01*
X186180000Y-81178061D01*
X193275000Y-81178061D01*
X193275000Y-81381939D01*
X193314774Y-81581898D01*
X193392795Y-81770256D01*
X193506063Y-81939774D01*
X193550001Y-81983712D01*
X193550000Y-86926289D01*
X193506063Y-86970226D01*
X193392795Y-87139744D01*
X193314774Y-87328102D01*
X193275000Y-87528061D01*
X193275000Y-87731939D01*
X193314774Y-87931898D01*
X193392795Y-88120256D01*
X193506063Y-88289774D01*
X193650226Y-88433937D01*
X193819744Y-88547205D01*
X194008102Y-88625226D01*
X194208061Y-88665000D01*
X194411939Y-88665000D01*
X194611898Y-88625226D01*
X194800256Y-88547205D01*
X194969774Y-88433937D01*
X195113937Y-88289774D01*
X195227205Y-88120256D01*
X195305226Y-87931898D01*
X195345000Y-87731939D01*
X195345000Y-87528061D01*
X195305226Y-87328102D01*
X195227205Y-87139744D01*
X195113937Y-86970226D01*
X195070000Y-86926289D01*
X195070000Y-81983711D01*
X195113937Y-81939774D01*
X195227205Y-81770256D01*
X195305226Y-81581898D01*
X195345000Y-81381939D01*
X195345000Y-81178061D01*
X195305226Y-80978102D01*
X195227205Y-80789744D01*
X195113937Y-80620226D01*
X194969774Y-80476063D01*
X194800256Y-80362795D01*
X194611898Y-80284774D01*
X194411939Y-80245000D01*
X194208061Y-80245000D01*
X194008102Y-80284774D01*
X193819744Y-80362795D01*
X193650226Y-80476063D01*
X193506063Y-80620226D01*
X193392795Y-80789744D01*
X193314774Y-80978102D01*
X193275000Y-81178061D01*
X186180000Y-81178061D01*
X186180000Y-80010000D01*
X199218057Y-80010000D01*
X199245764Y-80291309D01*
X199327818Y-80561808D01*
X199461068Y-80811101D01*
X199640392Y-81029608D01*
X199858899Y-81208932D01*
X199991858Y-81280000D01*
X199858899Y-81351068D01*
X199640392Y-81530392D01*
X199461068Y-81748899D01*
X199327818Y-81998192D01*
X199245764Y-82268691D01*
X199218057Y-82550000D01*
X199245764Y-82831309D01*
X199327818Y-83101808D01*
X199461068Y-83351101D01*
X199640392Y-83569608D01*
X199858899Y-83748932D01*
X199991858Y-83820000D01*
X199858899Y-83891068D01*
X199640392Y-84070392D01*
X199461068Y-84288899D01*
X199327818Y-84538192D01*
X199245764Y-84808691D01*
X199218057Y-85090000D01*
X199245764Y-85371309D01*
X199327818Y-85641808D01*
X199461068Y-85891101D01*
X199640392Y-86109608D01*
X199858899Y-86288932D01*
X199991858Y-86360000D01*
X199858899Y-86431068D01*
X199640392Y-86610392D01*
X199461068Y-86828899D01*
X199327818Y-87078192D01*
X199245764Y-87348691D01*
X199218057Y-87630000D01*
X199245764Y-87911309D01*
X199327818Y-88181808D01*
X199461068Y-88431101D01*
X199640392Y-88649608D01*
X199858899Y-88828932D01*
X199991858Y-88900000D01*
X199858899Y-88971068D01*
X199640392Y-89150392D01*
X199461068Y-89368899D01*
X199327818Y-89618192D01*
X199245764Y-89888691D01*
X199218057Y-90170000D01*
X199245764Y-90451309D01*
X199327818Y-90721808D01*
X199461068Y-90971101D01*
X199640392Y-91189608D01*
X199858899Y-91368932D01*
X199991858Y-91440000D01*
X199858899Y-91511068D01*
X199640392Y-91690392D01*
X199461068Y-91908899D01*
X199327818Y-92158192D01*
X199245764Y-92428691D01*
X199218057Y-92710000D01*
X199245764Y-92991309D01*
X199327818Y-93261808D01*
X199461068Y-93511101D01*
X199640392Y-93729608D01*
X199858899Y-93908932D01*
X199991858Y-93980000D01*
X199858899Y-94051068D01*
X199640392Y-94230392D01*
X199461068Y-94448899D01*
X199327818Y-94698192D01*
X199245764Y-94968691D01*
X199218057Y-95250000D01*
X199245764Y-95531309D01*
X199327818Y-95801808D01*
X199461068Y-96051101D01*
X199640392Y-96269608D01*
X199858899Y-96448932D01*
X199991858Y-96520000D01*
X199858899Y-96591068D01*
X199640392Y-96770392D01*
X199461068Y-96988899D01*
X199327818Y-97238192D01*
X199245764Y-97508691D01*
X199218057Y-97790000D01*
X199245764Y-98071309D01*
X199327818Y-98341808D01*
X199461068Y-98591101D01*
X199640392Y-98809608D01*
X199858899Y-98988932D01*
X200108192Y-99122182D01*
X200378691Y-99204236D01*
X200589508Y-99225000D01*
X200730492Y-99225000D01*
X200941309Y-99204236D01*
X201211808Y-99122182D01*
X201461101Y-98988932D01*
X201679608Y-98809608D01*
X201858932Y-98591101D01*
X201992182Y-98341808D01*
X202074236Y-98071309D01*
X202101943Y-97790000D01*
X202074236Y-97508691D01*
X201992182Y-97238192D01*
X201858932Y-96988899D01*
X201679608Y-96770392D01*
X201461101Y-96591068D01*
X201328142Y-96520000D01*
X201461101Y-96448932D01*
X201679608Y-96269608D01*
X201858932Y-96051101D01*
X201992182Y-95801808D01*
X202074236Y-95531309D01*
X202101943Y-95250000D01*
X202074236Y-94968691D01*
X201992182Y-94698192D01*
X201858932Y-94448899D01*
X201679608Y-94230392D01*
X201461101Y-94051068D01*
X201328142Y-93980000D01*
X201461101Y-93908932D01*
X201679608Y-93729608D01*
X201858932Y-93511101D01*
X201992182Y-93261808D01*
X202074236Y-92991309D01*
X202101943Y-92710000D01*
X202074236Y-92428691D01*
X201992182Y-92158192D01*
X201858932Y-91908899D01*
X201679608Y-91690392D01*
X201461101Y-91511068D01*
X201328142Y-91440000D01*
X201461101Y-91368932D01*
X201679608Y-91189608D01*
X201858932Y-90971101D01*
X201992182Y-90721808D01*
X202074236Y-90451309D01*
X202101943Y-90170000D01*
X202074236Y-89888691D01*
X201992182Y-89618192D01*
X201858932Y-89368899D01*
X201679608Y-89150392D01*
X201461101Y-88971068D01*
X201328142Y-88900000D01*
X201461101Y-88828932D01*
X201679608Y-88649608D01*
X201858932Y-88431101D01*
X201992182Y-88181808D01*
X202074236Y-87911309D01*
X202101943Y-87630000D01*
X202074236Y-87348691D01*
X201992182Y-87078192D01*
X201858932Y-86828899D01*
X201679608Y-86610392D01*
X201461101Y-86431068D01*
X201328142Y-86360000D01*
X201461101Y-86288932D01*
X201679608Y-86109608D01*
X201858932Y-85891101D01*
X201992182Y-85641808D01*
X202074236Y-85371309D01*
X202101943Y-85090000D01*
X202074236Y-84808691D01*
X201992182Y-84538192D01*
X201858932Y-84288899D01*
X201679608Y-84070392D01*
X201461101Y-83891068D01*
X201328142Y-83820000D01*
X201461101Y-83748932D01*
X201679608Y-83569608D01*
X201858932Y-83351101D01*
X201992182Y-83101808D01*
X202074236Y-82831309D01*
X202101943Y-82550000D01*
X202074236Y-82268691D01*
X201992182Y-81998192D01*
X201858932Y-81748899D01*
X201679608Y-81530392D01*
X201461101Y-81351068D01*
X201328142Y-81280000D01*
X201461101Y-81208932D01*
X201679608Y-81029608D01*
X201858932Y-80811101D01*
X201992182Y-80561808D01*
X202074236Y-80291309D01*
X202101943Y-80010000D01*
X211918057Y-80010000D01*
X211945764Y-80291309D01*
X212027818Y-80561808D01*
X212161068Y-80811101D01*
X212340392Y-81029608D01*
X212558899Y-81208932D01*
X212696682Y-81282579D01*
X212504869Y-81397615D01*
X212296481Y-81586586D01*
X212128963Y-81812580D01*
X212008754Y-82066913D01*
X211968096Y-82200961D01*
X212090085Y-82423000D01*
X213233000Y-82423000D01*
X213233000Y-82403000D01*
X213487000Y-82403000D01*
X213487000Y-82423000D01*
X214629915Y-82423000D01*
X214751904Y-82200961D01*
X214711246Y-82066913D01*
X214591037Y-81812580D01*
X214423519Y-81586586D01*
X214215131Y-81397615D01*
X214023318Y-81282579D01*
X214161101Y-81208932D01*
X214379608Y-81029608D01*
X214558932Y-80811101D01*
X214692182Y-80561808D01*
X214774236Y-80291309D01*
X214801943Y-80010000D01*
X214774236Y-79728691D01*
X214692182Y-79458192D01*
X214559521Y-79210000D01*
X219541928Y-79210000D01*
X219541928Y-80810000D01*
X219554188Y-80934482D01*
X219590498Y-81054180D01*
X219649463Y-81164494D01*
X219728815Y-81261185D01*
X219825506Y-81340537D01*
X219935820Y-81399502D01*
X220055518Y-81435812D01*
X220180000Y-81448072D01*
X221780000Y-81448072D01*
X221904482Y-81435812D01*
X222024180Y-81399502D01*
X222134494Y-81340537D01*
X222231185Y-81261185D01*
X222310537Y-81164494D01*
X222369502Y-81054180D01*
X222405812Y-80934482D01*
X222418072Y-80810000D01*
X222418072Y-79210000D01*
X222405812Y-79085518D01*
X222369502Y-78965820D01*
X222310537Y-78855506D01*
X222231185Y-78758815D01*
X222134494Y-78679463D01*
X222024180Y-78620498D01*
X221904482Y-78584188D01*
X221780000Y-78571928D01*
X220180000Y-78571928D01*
X220055518Y-78584188D01*
X219935820Y-78620498D01*
X219825506Y-78679463D01*
X219728815Y-78758815D01*
X219649463Y-78855506D01*
X219590498Y-78965820D01*
X219554188Y-79085518D01*
X219541928Y-79210000D01*
X214559521Y-79210000D01*
X214558932Y-79208899D01*
X214379608Y-78990392D01*
X214161101Y-78811068D01*
X213911808Y-78677818D01*
X213641309Y-78595764D01*
X213430492Y-78575000D01*
X213289508Y-78575000D01*
X213078691Y-78595764D01*
X212808192Y-78677818D01*
X212558899Y-78811068D01*
X212340392Y-78990392D01*
X212161068Y-79208899D01*
X212027818Y-79458192D01*
X211945764Y-79728691D01*
X211918057Y-80010000D01*
X202101943Y-80010000D01*
X202074236Y-79728691D01*
X201992182Y-79458192D01*
X201858932Y-79208899D01*
X201679608Y-78990392D01*
X201461101Y-78811068D01*
X201211808Y-78677818D01*
X200941309Y-78595764D01*
X200730492Y-78575000D01*
X200589508Y-78575000D01*
X200378691Y-78595764D01*
X200108192Y-78677818D01*
X199858899Y-78811068D01*
X199640392Y-78990392D01*
X199461068Y-79208899D01*
X199327818Y-79458192D01*
X199245764Y-79728691D01*
X199218057Y-80010000D01*
X186180000Y-80010000D01*
X186180000Y-79054801D01*
X187004802Y-78230000D01*
X213322678Y-78230000D01*
X213360000Y-78233676D01*
X213397322Y-78230000D01*
X213397333Y-78230000D01*
X213508986Y-78219003D01*
X213652247Y-78175546D01*
X213784276Y-78104974D01*
X213900001Y-78010001D01*
X213923804Y-77980997D01*
X214669802Y-77235000D01*
X214731939Y-77235000D01*
X214931898Y-77195226D01*
X215120256Y-77117205D01*
X215289774Y-77003937D01*
X215433937Y-76859774D01*
X215547205Y-76690256D01*
X215625226Y-76501898D01*
X215665000Y-76301939D01*
X215665000Y-76098061D01*
X215625226Y-75898102D01*
X215547205Y-75709744D01*
X215433937Y-75540226D01*
X215289774Y-75396063D01*
X215120256Y-75282795D01*
X214931898Y-75204774D01*
X214731939Y-75165000D01*
X214528061Y-75165000D01*
X214328102Y-75204774D01*
X214139744Y-75282795D01*
X213970226Y-75396063D01*
X213826063Y-75540226D01*
X213712795Y-75709744D01*
X213634774Y-75898102D01*
X213595000Y-76098061D01*
X213595000Y-76160198D01*
X213045199Y-76710000D01*
X186727322Y-76710000D01*
X186689999Y-76706324D01*
X186652676Y-76710000D01*
X186652667Y-76710000D01*
X186541014Y-76720997D01*
X186397753Y-76764454D01*
X186265724Y-76835026D01*
X186149999Y-76929999D01*
X186126201Y-76958997D01*
X184908998Y-78176201D01*
X184880000Y-78199999D01*
X184856202Y-78228997D01*
X184856201Y-78228998D01*
X184785026Y-78315724D01*
X184714454Y-78447754D01*
X184691023Y-78525000D01*
X184670998Y-78591014D01*
X184662286Y-78679463D01*
X184656324Y-78740000D01*
X184660001Y-78777333D01*
X184660000Y-94345988D01*
X184640256Y-94332795D01*
X184451898Y-94254774D01*
X184251939Y-94215000D01*
X184048061Y-94215000D01*
X183848102Y-94254774D01*
X183659744Y-94332795D01*
X183490226Y-94446063D01*
X183346063Y-94590226D01*
X183232795Y-94759744D01*
X183154774Y-94948102D01*
X183115000Y-95148061D01*
X183115000Y-95210198D01*
X182434379Y-95890820D01*
X182413937Y-95860226D01*
X182269774Y-95716063D01*
X182100256Y-95602795D01*
X181911898Y-95524774D01*
X181711939Y-95485000D01*
X181508061Y-95485000D01*
X181308102Y-95524774D01*
X181119744Y-95602795D01*
X180950226Y-95716063D01*
X180906289Y-95760000D01*
X179384802Y-95760000D01*
X178560000Y-94935199D01*
X178560000Y-93413711D01*
X178603937Y-93369774D01*
X178624379Y-93339181D01*
X178901928Y-93616730D01*
X178901928Y-94780000D01*
X178914188Y-94904482D01*
X178950498Y-95024180D01*
X179009463Y-95134494D01*
X179088815Y-95231185D01*
X179185506Y-95310537D01*
X179295820Y-95369502D01*
X179415518Y-95405812D01*
X179540000Y-95418072D01*
X181140000Y-95418072D01*
X181264482Y-95405812D01*
X181384180Y-95369502D01*
X181494494Y-95310537D01*
X181591185Y-95231185D01*
X181670537Y-95134494D01*
X181729502Y-95024180D01*
X181765812Y-94904482D01*
X181778072Y-94780000D01*
X181778072Y-93180000D01*
X181765812Y-93055518D01*
X181729502Y-92935820D01*
X181670537Y-92825506D01*
X181591185Y-92728815D01*
X181494494Y-92649463D01*
X181384180Y-92590498D01*
X181264482Y-92554188D01*
X181246518Y-92552419D01*
X181359608Y-92459608D01*
X181538932Y-92241101D01*
X181672182Y-91991808D01*
X181754236Y-91721309D01*
X181781943Y-91440000D01*
X181754236Y-91158691D01*
X181672182Y-90888192D01*
X181538932Y-90638899D01*
X181359608Y-90420392D01*
X181141101Y-90241068D01*
X181008142Y-90170000D01*
X181141101Y-90098932D01*
X181359608Y-89919608D01*
X181538932Y-89701101D01*
X181672182Y-89451808D01*
X181754236Y-89181309D01*
X181781943Y-88900000D01*
X181754236Y-88618691D01*
X181672182Y-88348192D01*
X181538932Y-88098899D01*
X181359608Y-87880392D01*
X181141101Y-87701068D01*
X181008142Y-87630000D01*
X181141101Y-87558932D01*
X181359608Y-87379608D01*
X181538932Y-87161101D01*
X181672182Y-86911808D01*
X181754236Y-86641309D01*
X181781943Y-86360000D01*
X181754236Y-86078691D01*
X181672182Y-85808192D01*
X181538932Y-85558899D01*
X181359608Y-85340392D01*
X181141101Y-85161068D01*
X181008142Y-85090000D01*
X181141101Y-85018932D01*
X181359608Y-84839608D01*
X181538932Y-84621101D01*
X181672182Y-84371808D01*
X181754236Y-84101309D01*
X181781943Y-83820000D01*
X181754236Y-83538691D01*
X181672182Y-83268192D01*
X181538932Y-83018899D01*
X181359608Y-82800392D01*
X181141101Y-82621068D01*
X181008142Y-82550000D01*
X181141101Y-82478932D01*
X181359608Y-82299608D01*
X181538932Y-82081101D01*
X181672182Y-81831808D01*
X181754236Y-81561309D01*
X181781943Y-81280000D01*
X181754236Y-80998691D01*
X181672182Y-80728192D01*
X181538932Y-80478899D01*
X181359608Y-80260392D01*
X181141101Y-80081068D01*
X181008142Y-80010000D01*
X181141101Y-79938932D01*
X181359608Y-79759608D01*
X181538932Y-79541101D01*
X181672182Y-79291808D01*
X181754236Y-79021309D01*
X181781943Y-78740000D01*
X181754236Y-78458691D01*
X181672182Y-78188192D01*
X181538932Y-77938899D01*
X181359608Y-77720392D01*
X181141101Y-77541068D01*
X181003318Y-77467421D01*
X181195131Y-77352385D01*
X181403519Y-77163414D01*
X181571037Y-76937420D01*
X181691246Y-76683087D01*
X181731904Y-76549039D01*
X181609915Y-76327000D01*
X180467000Y-76327000D01*
X180467000Y-76347000D01*
X180213000Y-76347000D01*
X180213000Y-76327000D01*
X179070085Y-76327000D01*
X178948096Y-76549039D01*
X178988754Y-76683087D01*
X179108963Y-76937420D01*
X179276481Y-77163414D01*
X179484869Y-77352385D01*
X179676682Y-77467421D01*
X179538899Y-77541068D01*
X179320392Y-77720392D01*
X179232406Y-77827604D01*
X178560000Y-77155199D01*
X178560000Y-73697333D01*
X178563677Y-73660000D01*
X178549003Y-73511014D01*
X178505546Y-73367753D01*
X178434974Y-73235724D01*
X178340001Y-73119999D01*
X178224276Y-73025026D01*
X178092247Y-72954454D01*
X177948986Y-72910997D01*
X177837333Y-72900000D01*
X177800000Y-72896323D01*
X177762667Y-72900000D01*
X173940901Y-72900000D01*
X173918932Y-72858899D01*
X173739608Y-72640392D01*
X173521101Y-72461068D01*
X173388142Y-72390000D01*
X173521101Y-72318932D01*
X173739608Y-72139608D01*
X173918932Y-71921101D01*
X174052182Y-71671808D01*
X174134236Y-71401309D01*
X174161943Y-71120000D01*
X174134236Y-70838691D01*
X174052182Y-70568192D01*
X173918932Y-70318899D01*
X173739608Y-70100392D01*
X173521101Y-69921068D01*
X173388142Y-69850000D01*
X173521101Y-69778932D01*
X173739608Y-69599608D01*
X173918932Y-69381101D01*
X174052182Y-69131808D01*
X174134236Y-68861309D01*
X174161943Y-68580000D01*
X174134236Y-68298691D01*
X174052182Y-68028192D01*
X173918932Y-67778899D01*
X173739608Y-67560392D01*
X173521101Y-67381068D01*
X173388142Y-67310000D01*
X173521101Y-67238932D01*
X173739608Y-67059608D01*
X173918932Y-66841101D01*
X174052182Y-66591808D01*
X174134236Y-66321309D01*
X174161943Y-66040000D01*
X174134236Y-65758691D01*
X174052182Y-65488192D01*
X173918932Y-65238899D01*
X173739608Y-65020392D01*
X173521101Y-64841068D01*
X173388142Y-64770000D01*
X173521101Y-64698932D01*
X173739608Y-64519608D01*
X173918932Y-64301101D01*
X174052182Y-64051808D01*
X174134236Y-63781309D01*
X174161943Y-63500000D01*
X174134236Y-63218691D01*
X174052182Y-62948192D01*
X173918932Y-62698899D01*
X173739608Y-62480392D01*
X173521101Y-62301068D01*
X173388142Y-62230000D01*
X173521101Y-62158932D01*
X173739608Y-61979608D01*
X173918932Y-61761101D01*
X174052182Y-61511808D01*
X174134236Y-61241309D01*
X174161943Y-60960000D01*
X174134236Y-60678691D01*
X174052182Y-60408192D01*
X173918932Y-60158899D01*
X173739608Y-59940392D01*
X173521101Y-59761068D01*
X173271808Y-59627818D01*
X173001309Y-59545764D01*
X172790492Y-59525000D01*
X172649508Y-59525000D01*
X172438691Y-59545764D01*
X172168192Y-59627818D01*
X171918899Y-59761068D01*
X171700392Y-59940392D01*
X171521068Y-60158899D01*
X171387818Y-60408192D01*
X171305764Y-60678691D01*
X171278057Y-60960000D01*
X171305764Y-61241309D01*
X171387818Y-61511808D01*
X171521068Y-61761101D01*
X171700392Y-61979608D01*
X171918899Y-62158932D01*
X172051858Y-62230000D01*
X171918899Y-62301068D01*
X171700392Y-62480392D01*
X171521068Y-62698899D01*
X171387818Y-62948192D01*
X171305764Y-63218691D01*
X171278057Y-63500000D01*
X171305764Y-63781309D01*
X171387818Y-64051808D01*
X171521068Y-64301101D01*
X171700392Y-64519608D01*
X171918899Y-64698932D01*
X172051858Y-64770000D01*
X171918899Y-64841068D01*
X171700392Y-65020392D01*
X171521068Y-65238899D01*
X171387818Y-65488192D01*
X171305764Y-65758691D01*
X171278057Y-66040000D01*
X171305764Y-66321309D01*
X171387818Y-66591808D01*
X171521068Y-66841101D01*
X171700392Y-67059608D01*
X171918899Y-67238932D01*
X172051858Y-67310000D01*
X171918899Y-67381068D01*
X171700392Y-67560392D01*
X171521068Y-67778899D01*
X171387818Y-68028192D01*
X171305764Y-68298691D01*
X171278057Y-68580000D01*
X171305764Y-68861309D01*
X171387818Y-69131808D01*
X171521068Y-69381101D01*
X171700392Y-69599608D01*
X171918899Y-69778932D01*
X172051858Y-69850000D01*
X171918899Y-69921068D01*
X171700392Y-70100392D01*
X171521068Y-70318899D01*
X171499099Y-70360000D01*
X170940000Y-70360000D01*
X170940000Y-67347322D01*
X170943676Y-67309999D01*
X170940000Y-67272676D01*
X170940000Y-67272667D01*
X170929003Y-67161014D01*
X170885546Y-67017753D01*
X170814974Y-66885724D01*
X170801811Y-66869685D01*
X170743799Y-66798996D01*
X170743795Y-66798992D01*
X170720001Y-66769999D01*
X170691009Y-66746206D01*
X168203804Y-64259003D01*
X168180001Y-64229999D01*
X168064276Y-64135026D01*
X167932247Y-64064454D01*
X167788986Y-64020997D01*
X167677333Y-64010000D01*
X167677322Y-64010000D01*
X167645943Y-64006909D01*
X167610706Y-63940986D01*
X167425134Y-63714866D01*
X167199014Y-63529294D01*
X167144209Y-63500000D01*
X167199014Y-63470706D01*
X167425134Y-63285134D01*
X167610706Y-63059014D01*
X167748599Y-62801034D01*
X167833513Y-62521111D01*
X167862185Y-62230000D01*
X167833513Y-61938889D01*
X167748599Y-61658966D01*
X167610706Y-61400986D01*
X167425134Y-61174866D01*
X167199014Y-60989294D01*
X167130000Y-60952405D01*
X167130000Y-60004801D01*
X167954802Y-59180000D01*
X173675199Y-59180000D01*
X174500001Y-60004803D01*
X174500000Y-61526289D01*
X174456063Y-61570226D01*
X174342795Y-61739744D01*
X174264774Y-61928102D01*
X174225000Y-62128061D01*
X174225000Y-62331939D01*
X174264774Y-62531898D01*
X174342795Y-62720256D01*
X174456063Y-62889774D01*
X174600226Y-63033937D01*
X174769744Y-63147205D01*
X174958102Y-63225226D01*
X175158061Y-63265000D01*
X175361939Y-63265000D01*
X175561898Y-63225226D01*
X175750256Y-63147205D01*
X175919774Y-63033937D01*
X176063937Y-62889774D01*
X176177205Y-62720256D01*
X176255226Y-62531898D01*
X176295000Y-62331939D01*
X176295000Y-62128061D01*
X176255226Y-61928102D01*
X176177205Y-61739744D01*
X176063937Y-61570226D01*
X176020000Y-61526289D01*
X176020000Y-60960000D01*
X178898057Y-60960000D01*
X178925764Y-61241309D01*
X179007818Y-61511808D01*
X179141068Y-61761101D01*
X179320392Y-61979608D01*
X179538899Y-62158932D01*
X179671858Y-62230000D01*
X179538899Y-62301068D01*
X179320392Y-62480392D01*
X179141068Y-62698899D01*
X179007818Y-62948192D01*
X178925764Y-63218691D01*
X178898057Y-63500000D01*
X178925764Y-63781309D01*
X179007818Y-64051808D01*
X179141068Y-64301101D01*
X179320392Y-64519608D01*
X179538899Y-64698932D01*
X179671858Y-64770000D01*
X179538899Y-64841068D01*
X179320392Y-65020392D01*
X179141068Y-65238899D01*
X179007818Y-65488192D01*
X178925764Y-65758691D01*
X178898057Y-66040000D01*
X178925764Y-66321309D01*
X179007818Y-66591808D01*
X179141068Y-66841101D01*
X179320392Y-67059608D01*
X179538899Y-67238932D01*
X179671858Y-67310000D01*
X179538899Y-67381068D01*
X179320392Y-67560392D01*
X179141068Y-67778899D01*
X179007818Y-68028192D01*
X178925764Y-68298691D01*
X178898057Y-68580000D01*
X178925764Y-68861309D01*
X179007818Y-69131808D01*
X179141068Y-69381101D01*
X179320392Y-69599608D01*
X179538899Y-69778932D01*
X179671858Y-69850000D01*
X179538899Y-69921068D01*
X179320392Y-70100392D01*
X179141068Y-70318899D01*
X179007818Y-70568192D01*
X178925764Y-70838691D01*
X178898057Y-71120000D01*
X178925764Y-71401309D01*
X179007818Y-71671808D01*
X179141068Y-71921101D01*
X179320392Y-72139608D01*
X179538899Y-72318932D01*
X179671858Y-72390000D01*
X179538899Y-72461068D01*
X179320392Y-72640392D01*
X179141068Y-72858899D01*
X179007818Y-73108192D01*
X178925764Y-73378691D01*
X178898057Y-73660000D01*
X178925764Y-73941309D01*
X179007818Y-74211808D01*
X179141068Y-74461101D01*
X179320392Y-74679608D01*
X179538899Y-74858932D01*
X179676682Y-74932579D01*
X179484869Y-75047615D01*
X179276481Y-75236586D01*
X179108963Y-75462580D01*
X178988754Y-75716913D01*
X178948096Y-75850961D01*
X179070085Y-76073000D01*
X180213000Y-76073000D01*
X180213000Y-76053000D01*
X180467000Y-76053000D01*
X180467000Y-76073000D01*
X181609915Y-76073000D01*
X181731904Y-75850961D01*
X181691246Y-75716913D01*
X181571037Y-75462580D01*
X181403519Y-75236586D01*
X181195131Y-75047615D01*
X181003318Y-74932579D01*
X181141101Y-74858932D01*
X181359608Y-74679608D01*
X181538932Y-74461101D01*
X181672182Y-74211808D01*
X181754236Y-73941309D01*
X181781943Y-73660000D01*
X181754236Y-73378691D01*
X181672182Y-73108192D01*
X181538932Y-72858899D01*
X181359608Y-72640392D01*
X181141101Y-72461068D01*
X181008142Y-72390000D01*
X181141101Y-72318932D01*
X181359608Y-72139608D01*
X181538932Y-71921101D01*
X181672182Y-71671808D01*
X181754236Y-71401309D01*
X181781943Y-71120000D01*
X181754236Y-70838691D01*
X181672182Y-70568192D01*
X181538932Y-70318899D01*
X181498802Y-70270000D01*
X183931928Y-70270000D01*
X183931928Y-71970000D01*
X183944188Y-72094482D01*
X183980498Y-72214180D01*
X184039463Y-72324494D01*
X184118815Y-72421185D01*
X184215506Y-72500537D01*
X184325820Y-72559502D01*
X184445518Y-72595812D01*
X184570000Y-72608072D01*
X186270000Y-72608072D01*
X186394482Y-72595812D01*
X186514180Y-72559502D01*
X186624494Y-72500537D01*
X186721185Y-72421185D01*
X186800537Y-72324494D01*
X186859502Y-72214180D01*
X186883966Y-72133534D01*
X186959731Y-72217588D01*
X187193080Y-72391641D01*
X187455901Y-72516825D01*
X187603110Y-72561476D01*
X187833000Y-72440155D01*
X187833000Y-71247000D01*
X187813000Y-71247000D01*
X187813000Y-70993000D01*
X187833000Y-70993000D01*
X187833000Y-69799845D01*
X188087000Y-69799845D01*
X188087000Y-70993000D01*
X188107000Y-70993000D01*
X188107000Y-71247000D01*
X188087000Y-71247000D01*
X188087000Y-72440155D01*
X188316890Y-72561476D01*
X188464099Y-72516825D01*
X188726920Y-72391641D01*
X188960269Y-72217588D01*
X189155178Y-72001355D01*
X189224799Y-71884477D01*
X189259294Y-71949014D01*
X189444866Y-72175134D01*
X189670986Y-72360706D01*
X189928966Y-72498599D01*
X190208889Y-72583513D01*
X190427050Y-72605000D01*
X190572950Y-72605000D01*
X190791111Y-72583513D01*
X191071034Y-72498599D01*
X191329014Y-72360706D01*
X191555134Y-72175134D01*
X191740706Y-71949014D01*
X191878599Y-71691034D01*
X191963513Y-71411111D01*
X191992185Y-71120000D01*
X191963513Y-70828889D01*
X191878599Y-70548966D01*
X191740706Y-70290986D01*
X191555134Y-70064866D01*
X191329014Y-69879294D01*
X191071034Y-69741401D01*
X190791111Y-69656487D01*
X190572950Y-69635000D01*
X190427050Y-69635000D01*
X190208889Y-69656487D01*
X189928966Y-69741401D01*
X189670986Y-69879294D01*
X189444866Y-70064866D01*
X189259294Y-70290986D01*
X189224799Y-70355523D01*
X189155178Y-70238645D01*
X188960269Y-70022412D01*
X188726920Y-69848359D01*
X188464099Y-69723175D01*
X188316890Y-69678524D01*
X188087000Y-69799845D01*
X187833000Y-69799845D01*
X187603110Y-69678524D01*
X187455901Y-69723175D01*
X187193080Y-69848359D01*
X186959731Y-70022412D01*
X186883966Y-70106466D01*
X186859502Y-70025820D01*
X186800537Y-69915506D01*
X186721185Y-69818815D01*
X186624494Y-69739463D01*
X186514180Y-69680498D01*
X186394482Y-69644188D01*
X186270000Y-69631928D01*
X184570000Y-69631928D01*
X184445518Y-69644188D01*
X184325820Y-69680498D01*
X184215506Y-69739463D01*
X184118815Y-69818815D01*
X184039463Y-69915506D01*
X183980498Y-70025820D01*
X183944188Y-70145518D01*
X183931928Y-70270000D01*
X181498802Y-70270000D01*
X181359608Y-70100392D01*
X181141101Y-69921068D01*
X181008142Y-69850000D01*
X181141101Y-69778932D01*
X181359608Y-69599608D01*
X181538932Y-69381101D01*
X181672182Y-69131808D01*
X181754236Y-68861309D01*
X181781943Y-68580000D01*
X181754236Y-68298691D01*
X181672182Y-68028192D01*
X181538932Y-67778899D01*
X181359608Y-67560392D01*
X181141101Y-67381068D01*
X181008142Y-67310000D01*
X181141101Y-67238932D01*
X181359608Y-67059608D01*
X181538932Y-66841101D01*
X181672182Y-66591808D01*
X181754236Y-66321309D01*
X181781943Y-66040000D01*
X181754236Y-65758691D01*
X181672182Y-65488192D01*
X181538932Y-65238899D01*
X181359608Y-65020392D01*
X181141101Y-64841068D01*
X181008142Y-64770000D01*
X181141101Y-64698932D01*
X181359608Y-64519608D01*
X181538932Y-64301101D01*
X181672182Y-64051808D01*
X181754236Y-63781309D01*
X181781943Y-63500000D01*
X181754236Y-63218691D01*
X181672182Y-62948192D01*
X181538932Y-62698899D01*
X181359608Y-62480392D01*
X181141101Y-62301068D01*
X181008142Y-62230000D01*
X181141101Y-62158932D01*
X181359608Y-61979608D01*
X181538932Y-61761101D01*
X181672182Y-61511808D01*
X181754236Y-61241309D01*
X181781943Y-60960000D01*
X181754236Y-60678691D01*
X181672182Y-60408192D01*
X181538932Y-60158899D01*
X181359608Y-59940392D01*
X181141101Y-59761068D01*
X180891808Y-59627818D01*
X180621309Y-59545764D01*
X180410492Y-59525000D01*
X180269508Y-59525000D01*
X180058691Y-59545764D01*
X179788192Y-59627818D01*
X179538899Y-59761068D01*
X179320392Y-59940392D01*
X179141068Y-60158899D01*
X179007818Y-60408192D01*
X178925764Y-60678691D01*
X178898057Y-60960000D01*
X176020000Y-60960000D01*
X176020000Y-59727322D01*
X176023676Y-59689999D01*
X176020000Y-59652676D01*
X176020000Y-59652667D01*
X176009003Y-59541014D01*
X175965546Y-59397753D01*
X175894974Y-59265724D01*
X175800001Y-59149999D01*
X175771003Y-59126201D01*
X174553804Y-57909003D01*
X174530001Y-57879999D01*
X174414276Y-57785026D01*
X174282247Y-57714454D01*
X174138986Y-57670997D01*
X174027333Y-57660000D01*
X174027322Y-57660000D01*
X173990000Y-57656324D01*
X173952678Y-57660000D01*
X167677322Y-57660000D01*
X167639999Y-57656324D01*
X167602676Y-57660000D01*
X167602667Y-57660000D01*
X167491014Y-57670997D01*
X167347753Y-57714454D01*
X167215724Y-57785026D01*
X167099999Y-57879999D01*
X167076201Y-57908997D01*
X165859003Y-59126196D01*
X165829999Y-59149999D01*
X165774871Y-59217174D01*
X165735026Y-59265724D01*
X165672119Y-59383414D01*
X165664454Y-59397754D01*
X165620997Y-59541015D01*
X165610000Y-59652668D01*
X165610000Y-59652678D01*
X165606324Y-59690000D01*
X165610000Y-59727323D01*
X165610000Y-60952405D01*
X165540986Y-60989294D01*
X165314866Y-61174866D01*
X165129294Y-61400986D01*
X165098416Y-61458756D01*
X164927588Y-61229731D01*
X164711355Y-61034822D01*
X164461252Y-60885843D01*
X164186891Y-60788519D01*
X163957000Y-60909186D01*
X163957000Y-62103000D01*
X163977000Y-62103000D01*
X163977000Y-62357000D01*
X163957000Y-62357000D01*
X163957000Y-62377000D01*
X163703000Y-62377000D01*
X163703000Y-62357000D01*
X162509845Y-62357000D01*
X162388524Y-62586890D01*
X162433175Y-62734099D01*
X162558359Y-62996920D01*
X162732412Y-63230269D01*
X162948645Y-63425178D01*
X163065523Y-63494799D01*
X163000986Y-63529294D01*
X162774866Y-63714866D01*
X162589294Y-63940986D01*
X162552405Y-64010000D01*
X162050000Y-64010000D01*
X162050000Y-61873110D01*
X162388524Y-61873110D01*
X162509845Y-62103000D01*
X163703000Y-62103000D01*
X163703000Y-60909186D01*
X163473109Y-60788519D01*
X163198748Y-60885843D01*
X162948645Y-61034822D01*
X162732412Y-61229731D01*
X162558359Y-61463080D01*
X162433175Y-61725901D01*
X162388524Y-61873110D01*
X162050000Y-61873110D01*
X162050000Y-59123711D01*
X162093937Y-59079774D01*
X162207205Y-58910256D01*
X162285226Y-58721898D01*
X162325000Y-58521939D01*
X162325000Y-58318061D01*
X162285226Y-58118102D01*
X162207205Y-57929744D01*
X162093937Y-57760226D01*
X161949774Y-57616063D01*
X161780256Y-57502795D01*
X161591898Y-57424774D01*
X161391939Y-57385000D01*
X161188061Y-57385000D01*
X160988102Y-57424774D01*
X160799744Y-57502795D01*
X160630226Y-57616063D01*
X160486063Y-57760226D01*
X160372795Y-57929744D01*
X160294774Y-58118102D01*
X160255000Y-58318061D01*
X156870000Y-58318061D01*
X156870000Y-55880000D01*
X199218057Y-55880000D01*
X199245764Y-56161309D01*
X199327818Y-56431808D01*
X199461068Y-56681101D01*
X199640392Y-56899608D01*
X199858899Y-57078932D01*
X199991858Y-57150000D01*
X199858899Y-57221068D01*
X199640392Y-57400392D01*
X199461068Y-57618899D01*
X199327818Y-57868192D01*
X199245764Y-58138691D01*
X199218057Y-58420000D01*
X199245764Y-58701309D01*
X199327818Y-58971808D01*
X199461068Y-59221101D01*
X199640392Y-59439608D01*
X199858899Y-59618932D01*
X199991858Y-59690000D01*
X199858899Y-59761068D01*
X199640392Y-59940392D01*
X199461068Y-60158899D01*
X199327818Y-60408192D01*
X199245764Y-60678691D01*
X199218057Y-60960000D01*
X199245764Y-61241309D01*
X199327818Y-61511808D01*
X199461068Y-61761101D01*
X199640392Y-61979608D01*
X199858899Y-62158932D01*
X199991858Y-62230000D01*
X199858899Y-62301068D01*
X199640392Y-62480392D01*
X199461068Y-62698899D01*
X199327818Y-62948192D01*
X199245764Y-63218691D01*
X199218057Y-63500000D01*
X199245764Y-63781309D01*
X199327818Y-64051808D01*
X199461068Y-64301101D01*
X199640392Y-64519608D01*
X199858899Y-64698932D01*
X199991858Y-64770000D01*
X199858899Y-64841068D01*
X199640392Y-65020392D01*
X199461068Y-65238899D01*
X199327818Y-65488192D01*
X199245764Y-65758691D01*
X199218057Y-66040000D01*
X199245764Y-66321309D01*
X199327818Y-66591808D01*
X199461068Y-66841101D01*
X199640392Y-67059608D01*
X199858899Y-67238932D01*
X199991858Y-67310000D01*
X199858899Y-67381068D01*
X199640392Y-67560392D01*
X199461068Y-67778899D01*
X199327818Y-68028192D01*
X199245764Y-68298691D01*
X199218057Y-68580000D01*
X199245764Y-68861309D01*
X199327818Y-69131808D01*
X199461068Y-69381101D01*
X199640392Y-69599608D01*
X199858899Y-69778932D01*
X199991858Y-69850000D01*
X199858899Y-69921068D01*
X199640392Y-70100392D01*
X199461068Y-70318899D01*
X199327818Y-70568192D01*
X199245764Y-70838691D01*
X199218057Y-71120000D01*
X199245764Y-71401309D01*
X199327818Y-71671808D01*
X199461068Y-71921101D01*
X199640392Y-72139608D01*
X199858899Y-72318932D01*
X199991858Y-72390000D01*
X199858899Y-72461068D01*
X199640392Y-72640392D01*
X199461068Y-72858899D01*
X199327818Y-73108192D01*
X199245764Y-73378691D01*
X199218057Y-73660000D01*
X199245764Y-73941309D01*
X199327818Y-74211808D01*
X199461068Y-74461101D01*
X199640392Y-74679608D01*
X199858899Y-74858932D01*
X200108192Y-74992182D01*
X200378691Y-75074236D01*
X200589508Y-75095000D01*
X200730492Y-75095000D01*
X200941309Y-75074236D01*
X201211808Y-74992182D01*
X201461101Y-74858932D01*
X201679608Y-74679608D01*
X201858932Y-74461101D01*
X201859520Y-74460000D01*
X211921928Y-74460000D01*
X211934188Y-74584482D01*
X211970498Y-74704180D01*
X212029463Y-74814494D01*
X212108815Y-74911185D01*
X212205506Y-74990537D01*
X212315820Y-75049502D01*
X212435518Y-75085812D01*
X212560000Y-75098072D01*
X213074250Y-75095000D01*
X213233000Y-74936250D01*
X213233000Y-73787000D01*
X213487000Y-73787000D01*
X213487000Y-74936250D01*
X213645750Y-75095000D01*
X214160000Y-75098072D01*
X214284482Y-75085812D01*
X214404180Y-75049502D01*
X214514494Y-74990537D01*
X214611185Y-74911185D01*
X214690537Y-74814494D01*
X214749502Y-74704180D01*
X214785812Y-74584482D01*
X214798072Y-74460000D01*
X214795000Y-73945750D01*
X214636250Y-73787000D01*
X213487000Y-73787000D01*
X213233000Y-73787000D01*
X212083750Y-73787000D01*
X211925000Y-73945750D01*
X211921928Y-74460000D01*
X201859520Y-74460000D01*
X201992182Y-74211808D01*
X202074236Y-73941309D01*
X202101943Y-73660000D01*
X202074236Y-73378691D01*
X201992182Y-73108192D01*
X201858932Y-72858899D01*
X201679608Y-72640392D01*
X201461101Y-72461068D01*
X201328142Y-72390000D01*
X201461101Y-72318932D01*
X201679608Y-72139608D01*
X201858932Y-71921101D01*
X201992182Y-71671808D01*
X202074236Y-71401309D01*
X202101943Y-71120000D01*
X202074236Y-70838691D01*
X201992182Y-70568192D01*
X201858932Y-70318899D01*
X201679608Y-70100392D01*
X201461101Y-69921068D01*
X201328142Y-69850000D01*
X201461101Y-69778932D01*
X201679608Y-69599608D01*
X201858932Y-69381101D01*
X201992182Y-69131808D01*
X202074236Y-68861309D01*
X202101943Y-68580000D01*
X202074236Y-68298691D01*
X201992182Y-68028192D01*
X201858932Y-67778899D01*
X201679608Y-67560392D01*
X201461101Y-67381068D01*
X201328142Y-67310000D01*
X201461101Y-67238932D01*
X201679608Y-67059608D01*
X201858932Y-66841101D01*
X201880901Y-66800000D01*
X207576289Y-66800000D01*
X207620226Y-66843937D01*
X207789744Y-66957205D01*
X207978102Y-67035226D01*
X208178061Y-67075000D01*
X208381939Y-67075000D01*
X208581898Y-67035226D01*
X208770256Y-66957205D01*
X208939774Y-66843937D01*
X209083937Y-66699774D01*
X209197205Y-66530256D01*
X209275226Y-66341898D01*
X209315000Y-66141939D01*
X209315000Y-65938061D01*
X209275226Y-65738102D01*
X209197205Y-65549744D01*
X209083937Y-65380226D01*
X208939774Y-65236063D01*
X208770256Y-65122795D01*
X208581898Y-65044774D01*
X208381939Y-65005000D01*
X208178061Y-65005000D01*
X207978102Y-65044774D01*
X207789744Y-65122795D01*
X207620226Y-65236063D01*
X207576289Y-65280000D01*
X201880901Y-65280000D01*
X201858932Y-65238899D01*
X201679608Y-65020392D01*
X201461101Y-64841068D01*
X201328142Y-64770000D01*
X201461101Y-64698932D01*
X201679608Y-64519608D01*
X201858932Y-64301101D01*
X201880901Y-64260000D01*
X206306289Y-64260000D01*
X206350226Y-64303937D01*
X206519744Y-64417205D01*
X206708102Y-64495226D01*
X206908061Y-64535000D01*
X207111939Y-64535000D01*
X207311898Y-64495226D01*
X207500256Y-64417205D01*
X207669774Y-64303937D01*
X207813937Y-64159774D01*
X207927205Y-63990256D01*
X208005226Y-63801898D01*
X208045000Y-63601939D01*
X208045000Y-63398061D01*
X208005226Y-63198102D01*
X207927205Y-63009744D01*
X207813937Y-62840226D01*
X207669774Y-62696063D01*
X207500256Y-62582795D01*
X207311898Y-62504774D01*
X207111939Y-62465000D01*
X206908061Y-62465000D01*
X206708102Y-62504774D01*
X206519744Y-62582795D01*
X206350226Y-62696063D01*
X206306289Y-62740000D01*
X201880901Y-62740000D01*
X201858932Y-62698899D01*
X201679608Y-62480392D01*
X201461101Y-62301068D01*
X201328142Y-62230000D01*
X201461101Y-62158932D01*
X201679608Y-61979608D01*
X201858932Y-61761101D01*
X201880901Y-61720000D01*
X205036289Y-61720000D01*
X205080226Y-61763937D01*
X205249744Y-61877205D01*
X205438102Y-61955226D01*
X205638061Y-61995000D01*
X205841939Y-61995000D01*
X206041898Y-61955226D01*
X206230256Y-61877205D01*
X206399774Y-61763937D01*
X206543937Y-61619774D01*
X206657205Y-61450256D01*
X206735226Y-61261898D01*
X206775000Y-61061939D01*
X206775000Y-60960000D01*
X211918057Y-60960000D01*
X211945764Y-61241309D01*
X212027818Y-61511808D01*
X212161068Y-61761101D01*
X212340392Y-61979608D01*
X212558899Y-62158932D01*
X212691858Y-62230000D01*
X212558899Y-62301068D01*
X212340392Y-62480392D01*
X212161068Y-62698899D01*
X212027818Y-62948192D01*
X211945764Y-63218691D01*
X211918057Y-63500000D01*
X211945764Y-63781309D01*
X212027818Y-64051808D01*
X212161068Y-64301101D01*
X212340392Y-64519608D01*
X212558899Y-64698932D01*
X212691858Y-64770000D01*
X212558899Y-64841068D01*
X212340392Y-65020392D01*
X212161068Y-65238899D01*
X212027818Y-65488192D01*
X211945764Y-65758691D01*
X211918057Y-66040000D01*
X211945764Y-66321309D01*
X212027818Y-66591808D01*
X212161068Y-66841101D01*
X212340392Y-67059608D01*
X212558899Y-67238932D01*
X212691858Y-67310000D01*
X212558899Y-67381068D01*
X212340392Y-67560392D01*
X212161068Y-67778899D01*
X212027818Y-68028192D01*
X211945764Y-68298691D01*
X211918057Y-68580000D01*
X211945764Y-68861309D01*
X212027818Y-69131808D01*
X212161068Y-69381101D01*
X212340392Y-69599608D01*
X212558899Y-69778932D01*
X212691858Y-69850000D01*
X212558899Y-69921068D01*
X212340392Y-70100392D01*
X212161068Y-70318899D01*
X212027818Y-70568192D01*
X211945764Y-70838691D01*
X211918057Y-71120000D01*
X211945764Y-71401309D01*
X212027818Y-71671808D01*
X212161068Y-71921101D01*
X212340392Y-72139608D01*
X212453482Y-72232419D01*
X212435518Y-72234188D01*
X212315820Y-72270498D01*
X212205506Y-72329463D01*
X212108815Y-72408815D01*
X212029463Y-72505506D01*
X211970498Y-72615820D01*
X211934188Y-72735518D01*
X211921928Y-72860000D01*
X211925000Y-73374250D01*
X212083750Y-73533000D01*
X213233000Y-73533000D01*
X213233000Y-73513000D01*
X213487000Y-73513000D01*
X213487000Y-73533000D01*
X214636250Y-73533000D01*
X214795000Y-73374250D01*
X214798072Y-72860000D01*
X214785812Y-72735518D01*
X214749502Y-72615820D01*
X214690537Y-72505506D01*
X214611185Y-72408815D01*
X214588259Y-72390000D01*
X230917815Y-72390000D01*
X230946487Y-72681111D01*
X231031401Y-72961034D01*
X231169294Y-73219014D01*
X231354866Y-73445134D01*
X231580986Y-73630706D01*
X231635791Y-73660000D01*
X231580986Y-73689294D01*
X231354866Y-73874866D01*
X231169294Y-74100986D01*
X231031401Y-74358966D01*
X230946487Y-74638889D01*
X230917815Y-74930000D01*
X230946487Y-75221111D01*
X231031401Y-75501034D01*
X231169294Y-75759014D01*
X231354866Y-75985134D01*
X231580986Y-76170706D01*
X231635791Y-76200000D01*
X231580986Y-76229294D01*
X231354866Y-76414866D01*
X231169294Y-76640986D01*
X231031401Y-76898966D01*
X230946487Y-77178889D01*
X230917815Y-77470000D01*
X230946487Y-77761111D01*
X231031401Y-78041034D01*
X231169294Y-78299014D01*
X231354866Y-78525134D01*
X231580986Y-78710706D01*
X231635791Y-78740000D01*
X231580986Y-78769294D01*
X231354866Y-78954866D01*
X231169294Y-79180986D01*
X231031401Y-79438966D01*
X230946487Y-79718889D01*
X230917815Y-80010000D01*
X230946487Y-80301111D01*
X231031401Y-80581034D01*
X231169294Y-80839014D01*
X231354866Y-81065134D01*
X231580986Y-81250706D01*
X231635791Y-81280000D01*
X231580986Y-81309294D01*
X231354866Y-81494866D01*
X231169294Y-81720986D01*
X231031401Y-81978966D01*
X230946487Y-82258889D01*
X230917815Y-82550000D01*
X230946487Y-82841111D01*
X231031401Y-83121034D01*
X231169294Y-83379014D01*
X231354866Y-83605134D01*
X231580986Y-83790706D01*
X231635791Y-83820000D01*
X231580986Y-83849294D01*
X231354866Y-84034866D01*
X231169294Y-84260986D01*
X231031401Y-84518966D01*
X230946487Y-84798889D01*
X230917815Y-85090000D01*
X230946487Y-85381111D01*
X231031401Y-85661034D01*
X231169294Y-85919014D01*
X231354866Y-86145134D01*
X231580986Y-86330706D01*
X231635791Y-86360000D01*
X231580986Y-86389294D01*
X231354866Y-86574866D01*
X231169294Y-86800986D01*
X231031401Y-87058966D01*
X230946487Y-87338889D01*
X230917815Y-87630000D01*
X230946487Y-87921111D01*
X231031401Y-88201034D01*
X231169294Y-88459014D01*
X231354866Y-88685134D01*
X231580986Y-88870706D01*
X231635791Y-88900000D01*
X231580986Y-88929294D01*
X231354866Y-89114866D01*
X231169294Y-89340986D01*
X231031401Y-89598966D01*
X230946487Y-89878889D01*
X230917815Y-90170000D01*
X230946487Y-90461111D01*
X231031401Y-90741034D01*
X231169294Y-90999014D01*
X231354866Y-91225134D01*
X231580986Y-91410706D01*
X231838966Y-91548599D01*
X232118889Y-91633513D01*
X232337050Y-91655000D01*
X232482950Y-91655000D01*
X232701111Y-91633513D01*
X232981034Y-91548599D01*
X233239014Y-91410706D01*
X233465134Y-91225134D01*
X233650706Y-90999014D01*
X233788599Y-90741034D01*
X233873513Y-90461111D01*
X233902185Y-90170000D01*
X233873513Y-89878889D01*
X233788599Y-89598966D01*
X233650706Y-89340986D01*
X233465134Y-89114866D01*
X233239014Y-88929294D01*
X233184209Y-88900000D01*
X233239014Y-88870706D01*
X233465134Y-88685134D01*
X233650706Y-88459014D01*
X233788599Y-88201034D01*
X233873513Y-87921111D01*
X233902185Y-87630000D01*
X233873513Y-87338889D01*
X233788599Y-87058966D01*
X233650706Y-86800986D01*
X233465134Y-86574866D01*
X233239014Y-86389294D01*
X233184209Y-86360000D01*
X233239014Y-86330706D01*
X233465134Y-86145134D01*
X233650706Y-85919014D01*
X233788599Y-85661034D01*
X233873513Y-85381111D01*
X233902185Y-85090000D01*
X233873513Y-84798889D01*
X233788599Y-84518966D01*
X233650706Y-84260986D01*
X233465134Y-84034866D01*
X233239014Y-83849294D01*
X233184209Y-83820000D01*
X233239014Y-83790706D01*
X233465134Y-83605134D01*
X233650706Y-83379014D01*
X233788599Y-83121034D01*
X233873513Y-82841111D01*
X233902185Y-82550000D01*
X233873513Y-82258889D01*
X233788599Y-81978966D01*
X233650706Y-81720986D01*
X233465134Y-81494866D01*
X233239014Y-81309294D01*
X233184209Y-81280000D01*
X233239014Y-81250706D01*
X233465134Y-81065134D01*
X233650706Y-80839014D01*
X233788599Y-80581034D01*
X233873513Y-80301111D01*
X233902185Y-80010000D01*
X233873513Y-79718889D01*
X233788599Y-79438966D01*
X233650706Y-79180986D01*
X233465134Y-78954866D01*
X233239014Y-78769294D01*
X233184209Y-78740000D01*
X233239014Y-78710706D01*
X233465134Y-78525134D01*
X233650706Y-78299014D01*
X233788599Y-78041034D01*
X233873513Y-77761111D01*
X233902185Y-77470000D01*
X233873513Y-77178889D01*
X233788599Y-76898966D01*
X233650706Y-76640986D01*
X233465134Y-76414866D01*
X233239014Y-76229294D01*
X233184209Y-76200000D01*
X233239014Y-76170706D01*
X233465134Y-75985134D01*
X233650706Y-75759014D01*
X233788599Y-75501034D01*
X233873513Y-75221111D01*
X233902185Y-74930000D01*
X233873513Y-74638889D01*
X233788599Y-74358966D01*
X233650706Y-74100986D01*
X233465134Y-73874866D01*
X233239014Y-73689294D01*
X233184209Y-73660000D01*
X233239014Y-73630706D01*
X233465134Y-73445134D01*
X233650706Y-73219014D01*
X233788599Y-72961034D01*
X233873513Y-72681111D01*
X233902185Y-72390000D01*
X233873513Y-72098889D01*
X233788599Y-71818966D01*
X233650706Y-71560986D01*
X233465134Y-71334866D01*
X233239014Y-71149294D01*
X233174477Y-71114799D01*
X233291355Y-71045178D01*
X233507588Y-70850269D01*
X233681641Y-70616920D01*
X233806825Y-70354099D01*
X233851476Y-70206890D01*
X233730155Y-69977000D01*
X232537000Y-69977000D01*
X232537000Y-69997000D01*
X232283000Y-69997000D01*
X232283000Y-69977000D01*
X231089845Y-69977000D01*
X230968524Y-70206890D01*
X231013175Y-70354099D01*
X231138359Y-70616920D01*
X231312412Y-70850269D01*
X231528645Y-71045178D01*
X231645523Y-71114799D01*
X231580986Y-71149294D01*
X231354866Y-71334866D01*
X231169294Y-71560986D01*
X231031401Y-71818966D01*
X230946487Y-72098889D01*
X230917815Y-72390000D01*
X214588259Y-72390000D01*
X214514494Y-72329463D01*
X214404180Y-72270498D01*
X214284482Y-72234188D01*
X214266518Y-72232419D01*
X214379608Y-72139608D01*
X214558932Y-71921101D01*
X214692182Y-71671808D01*
X214774236Y-71401309D01*
X214801943Y-71120000D01*
X214774236Y-70838691D01*
X214692182Y-70568192D01*
X214558932Y-70318899D01*
X214379608Y-70100392D01*
X214161101Y-69921068D01*
X214028142Y-69850000D01*
X214161101Y-69778932D01*
X214379608Y-69599608D01*
X214558932Y-69381101D01*
X214692182Y-69131808D01*
X214774236Y-68861309D01*
X214801943Y-68580000D01*
X214774236Y-68298691D01*
X214692182Y-68028192D01*
X214558932Y-67778899D01*
X214379608Y-67560392D01*
X214161101Y-67381068D01*
X214028142Y-67310000D01*
X214161101Y-67238932D01*
X214379608Y-67059608D01*
X214558932Y-66841101D01*
X214692182Y-66591808D01*
X214732165Y-66460000D01*
X230921928Y-66460000D01*
X230921928Y-68160000D01*
X230934188Y-68284482D01*
X230970498Y-68404180D01*
X231029463Y-68514494D01*
X231108815Y-68611185D01*
X231205506Y-68690537D01*
X231315820Y-68749502D01*
X231396466Y-68773966D01*
X231312412Y-68849731D01*
X231138359Y-69083080D01*
X231013175Y-69345901D01*
X230968524Y-69493110D01*
X231089845Y-69723000D01*
X232283000Y-69723000D01*
X232283000Y-69703000D01*
X232537000Y-69703000D01*
X232537000Y-69723000D01*
X233730155Y-69723000D01*
X233851476Y-69493110D01*
X233806825Y-69345901D01*
X233681641Y-69083080D01*
X233507588Y-68849731D01*
X233423534Y-68773966D01*
X233504180Y-68749502D01*
X233614494Y-68690537D01*
X233711185Y-68611185D01*
X233790537Y-68514494D01*
X233849502Y-68404180D01*
X233885812Y-68284482D01*
X233898072Y-68160000D01*
X233898072Y-66460000D01*
X233885812Y-66335518D01*
X233849502Y-66215820D01*
X233790537Y-66105506D01*
X233711185Y-66008815D01*
X233614494Y-65929463D01*
X233504180Y-65870498D01*
X233384482Y-65834188D01*
X233260000Y-65821928D01*
X231560000Y-65821928D01*
X231435518Y-65834188D01*
X231315820Y-65870498D01*
X231205506Y-65929463D01*
X231108815Y-66008815D01*
X231029463Y-66105506D01*
X230970498Y-66215820D01*
X230934188Y-66335518D01*
X230921928Y-66460000D01*
X214732165Y-66460000D01*
X214774236Y-66321309D01*
X214801943Y-66040000D01*
X214774236Y-65758691D01*
X214692182Y-65488192D01*
X214558932Y-65238899D01*
X214379608Y-65020392D01*
X214161101Y-64841068D01*
X214028142Y-64770000D01*
X214161101Y-64698932D01*
X214379608Y-64519608D01*
X214558932Y-64301101D01*
X214692182Y-64051808D01*
X214774236Y-63781309D01*
X214801943Y-63500000D01*
X214774236Y-63218691D01*
X214692182Y-62948192D01*
X214558932Y-62698899D01*
X214379608Y-62480392D01*
X214161101Y-62301068D01*
X214028142Y-62230000D01*
X214161101Y-62158932D01*
X214379608Y-61979608D01*
X214467343Y-61872702D01*
X220166903Y-61872702D01*
X220238486Y-62116671D01*
X220493996Y-62237571D01*
X220768184Y-62306300D01*
X221050512Y-62320217D01*
X221330130Y-62278787D01*
X221596292Y-62183603D01*
X221721514Y-62116671D01*
X221793097Y-61872702D01*
X220980000Y-61059605D01*
X220166903Y-61872702D01*
X214467343Y-61872702D01*
X214558932Y-61761101D01*
X214692182Y-61511808D01*
X214774236Y-61241309D01*
X214801943Y-60960000D01*
X214801009Y-60950512D01*
X219539783Y-60950512D01*
X219581213Y-61230130D01*
X219676397Y-61496292D01*
X219743329Y-61621514D01*
X219987298Y-61693097D01*
X220800395Y-60880000D01*
X221159605Y-60880000D01*
X221972702Y-61693097D01*
X222216671Y-61621514D01*
X222337571Y-61366004D01*
X222406300Y-61091816D01*
X222420217Y-60809488D01*
X222378787Y-60529870D01*
X222283603Y-60263708D01*
X222216671Y-60138486D01*
X221972702Y-60066903D01*
X221159605Y-60880000D01*
X220800395Y-60880000D01*
X219987298Y-60066903D01*
X219743329Y-60138486D01*
X219622429Y-60393996D01*
X219553700Y-60668184D01*
X219539783Y-60950512D01*
X214801009Y-60950512D01*
X214774236Y-60678691D01*
X214692182Y-60408192D01*
X214558932Y-60158899D01*
X214379608Y-59940392D01*
X214314913Y-59887298D01*
X220166903Y-59887298D01*
X220980000Y-60700395D01*
X221793097Y-59887298D01*
X221721514Y-59643329D01*
X221466004Y-59522429D01*
X221191816Y-59453700D01*
X220909488Y-59439783D01*
X220629870Y-59481213D01*
X220363708Y-59576397D01*
X220238486Y-59643329D01*
X220166903Y-59887298D01*
X214314913Y-59887298D01*
X214161101Y-59761068D01*
X214023318Y-59687421D01*
X214215131Y-59572385D01*
X214423519Y-59383414D01*
X214591037Y-59157420D01*
X214711246Y-58903087D01*
X214751904Y-58769039D01*
X214629915Y-58547000D01*
X213487000Y-58547000D01*
X213487000Y-58567000D01*
X213233000Y-58567000D01*
X213233000Y-58547000D01*
X212090085Y-58547000D01*
X211968096Y-58769039D01*
X212008754Y-58903087D01*
X212128963Y-59157420D01*
X212296481Y-59383414D01*
X212504869Y-59572385D01*
X212696682Y-59687421D01*
X212558899Y-59761068D01*
X212340392Y-59940392D01*
X212161068Y-60158899D01*
X212027818Y-60408192D01*
X211945764Y-60678691D01*
X211918057Y-60960000D01*
X206775000Y-60960000D01*
X206775000Y-60858061D01*
X206735226Y-60658102D01*
X206657205Y-60469744D01*
X206543937Y-60300226D01*
X206399774Y-60156063D01*
X206230256Y-60042795D01*
X206041898Y-59964774D01*
X205841939Y-59925000D01*
X205638061Y-59925000D01*
X205438102Y-59964774D01*
X205249744Y-60042795D01*
X205080226Y-60156063D01*
X205036289Y-60200000D01*
X201880901Y-60200000D01*
X201858932Y-60158899D01*
X201679608Y-59940392D01*
X201461101Y-59761068D01*
X201328142Y-59690000D01*
X201461101Y-59618932D01*
X201679608Y-59439608D01*
X201858932Y-59221101D01*
X201880901Y-59180000D01*
X203766289Y-59180000D01*
X203810226Y-59223937D01*
X203979744Y-59337205D01*
X204168102Y-59415226D01*
X204368061Y-59455000D01*
X204571939Y-59455000D01*
X204771898Y-59415226D01*
X204960256Y-59337205D01*
X205129774Y-59223937D01*
X205273937Y-59079774D01*
X205387205Y-58910256D01*
X205465226Y-58721898D01*
X205505000Y-58521939D01*
X205505000Y-58318061D01*
X205465226Y-58118102D01*
X205387205Y-57929744D01*
X205273937Y-57760226D01*
X205129774Y-57616063D01*
X204960256Y-57502795D01*
X204771898Y-57424774D01*
X204571939Y-57385000D01*
X204368061Y-57385000D01*
X204168102Y-57424774D01*
X203979744Y-57502795D01*
X203810226Y-57616063D01*
X203766289Y-57660000D01*
X201880901Y-57660000D01*
X201858932Y-57618899D01*
X201679608Y-57400392D01*
X201461101Y-57221068D01*
X201328142Y-57150000D01*
X201461101Y-57078932D01*
X201679608Y-56899608D01*
X201858932Y-56681101D01*
X201992182Y-56431808D01*
X202074236Y-56161309D01*
X202101943Y-55880000D01*
X211918057Y-55880000D01*
X211945764Y-56161309D01*
X212027818Y-56431808D01*
X212161068Y-56681101D01*
X212340392Y-56899608D01*
X212558899Y-57078932D01*
X212696682Y-57152579D01*
X212504869Y-57267615D01*
X212296481Y-57456586D01*
X212128963Y-57682580D01*
X212008754Y-57936913D01*
X211968096Y-58070961D01*
X212090085Y-58293000D01*
X213233000Y-58293000D01*
X213233000Y-58273000D01*
X213487000Y-58273000D01*
X213487000Y-58293000D01*
X214629915Y-58293000D01*
X214751904Y-58070961D01*
X214711246Y-57936913D01*
X214591037Y-57682580D01*
X214423519Y-57456586D01*
X214215131Y-57267615D01*
X214023318Y-57152579D01*
X214161101Y-57078932D01*
X214379608Y-56899608D01*
X214558932Y-56681101D01*
X214692182Y-56431808D01*
X214774236Y-56161309D01*
X214801943Y-55880000D01*
X214774236Y-55598691D01*
X214692182Y-55328192D01*
X214559521Y-55080000D01*
X219541928Y-55080000D01*
X219541928Y-56680000D01*
X219554188Y-56804482D01*
X219590498Y-56924180D01*
X219649463Y-57034494D01*
X219728815Y-57131185D01*
X219825506Y-57210537D01*
X219935820Y-57269502D01*
X220055518Y-57305812D01*
X220180000Y-57318072D01*
X221780000Y-57318072D01*
X221904482Y-57305812D01*
X222024180Y-57269502D01*
X222134494Y-57210537D01*
X222231185Y-57131185D01*
X222310537Y-57034494D01*
X222369502Y-56924180D01*
X222405812Y-56804482D01*
X222418072Y-56680000D01*
X222418072Y-55080000D01*
X222405812Y-54955518D01*
X222369502Y-54835820D01*
X222310537Y-54725506D01*
X222231185Y-54628815D01*
X222134494Y-54549463D01*
X222024180Y-54490498D01*
X221904482Y-54454188D01*
X221780000Y-54441928D01*
X220180000Y-54441928D01*
X220055518Y-54454188D01*
X219935820Y-54490498D01*
X219825506Y-54549463D01*
X219728815Y-54628815D01*
X219649463Y-54725506D01*
X219590498Y-54835820D01*
X219554188Y-54955518D01*
X219541928Y-55080000D01*
X214559521Y-55080000D01*
X214558932Y-55078899D01*
X214379608Y-54860392D01*
X214161101Y-54681068D01*
X213911808Y-54547818D01*
X213641309Y-54465764D01*
X213430492Y-54445000D01*
X213289508Y-54445000D01*
X213078691Y-54465764D01*
X212808192Y-54547818D01*
X212558899Y-54681068D01*
X212340392Y-54860392D01*
X212161068Y-55078899D01*
X212027818Y-55328192D01*
X211945764Y-55598691D01*
X211918057Y-55880000D01*
X202101943Y-55880000D01*
X202074236Y-55598691D01*
X201992182Y-55328192D01*
X201858932Y-55078899D01*
X201679608Y-54860392D01*
X201461101Y-54681068D01*
X201211808Y-54547818D01*
X200941309Y-54465764D01*
X200730492Y-54445000D01*
X200589508Y-54445000D01*
X200378691Y-54465764D01*
X200108192Y-54547818D01*
X199858899Y-54681068D01*
X199640392Y-54860392D01*
X199461068Y-55078899D01*
X199327818Y-55328192D01*
X199245764Y-55598691D01*
X199218057Y-55880000D01*
X156870000Y-55880000D01*
X156870000Y-54859606D01*
X157729606Y-54000000D01*
X233430394Y-54000000D01*
X234290000Y-54859606D01*
X234290000Y-54859606D01*
G37*
X234290000Y-54859606D02*
X234290001Y-104861454D01*
X234185879Y-104664534D01*
X234167657Y-104637260D01*
X233698502Y-104301103D01*
X231319605Y-106680000D01*
X233698502Y-109058897D01*
X234167657Y-108722740D01*
X234290001Y-108496302D01*
X234290001Y-108970393D01*
X233430394Y-109830000D01*
X232958548Y-109830000D01*
X233155466Y-109725879D01*
X233182740Y-109707657D01*
X233518897Y-109238502D01*
X231140000Y-106859605D01*
X228761103Y-109238502D01*
X229097260Y-109707657D01*
X229323696Y-109830000D01*
X198668548Y-109830000D01*
X198865466Y-109725879D01*
X198892740Y-109707657D01*
X199228897Y-109238502D01*
X196850000Y-106859605D01*
X194471103Y-109238502D01*
X194807260Y-109707657D01*
X195033696Y-109830000D01*
X157729606Y-109830000D01*
X156870000Y-108970394D01*
X156870000Y-106680000D01*
X161067815Y-106680000D01*
X161096487Y-106971111D01*
X161181401Y-107251034D01*
X161319294Y-107509014D01*
X161504866Y-107735134D01*
X161730986Y-107920706D01*
X161988966Y-108058599D01*
X162268889Y-108143513D01*
X162487050Y-108165000D01*
X162632950Y-108165000D01*
X162851111Y-108143513D01*
X163131034Y-108058599D01*
X163389014Y-107920706D01*
X163615134Y-107735134D01*
X163639607Y-107705313D01*
X163660498Y-107774180D01*
X163719463Y-107884494D01*
X163798815Y-107981185D01*
X163895506Y-108060537D01*
X164005820Y-108119502D01*
X164125518Y-108155812D01*
X164250000Y-108168072D01*
X164814250Y-108165000D01*
X164973000Y-108006250D01*
X164973000Y-106807000D01*
X165227000Y-106807000D01*
X165227000Y-108006250D01*
X165385750Y-108165000D01*
X165950000Y-108168072D01*
X166074482Y-108155812D01*
X166194180Y-108119502D01*
X166304494Y-108060537D01*
X166401185Y-107981185D01*
X166480537Y-107884494D01*
X166539502Y-107774180D01*
X166575812Y-107654482D01*
X166588072Y-107530000D01*
X166585000Y-106965750D01*
X166426250Y-106807000D01*
X165227000Y-106807000D01*
X164973000Y-106807000D01*
X164953000Y-106807000D01*
X164953000Y-106680000D01*
X172497815Y-106680000D01*
X172526487Y-106971111D01*
X172611401Y-107251034D01*
X172749294Y-107509014D01*
X172934866Y-107735134D01*
X173160986Y-107920706D01*
X173418966Y-108058599D01*
X173698889Y-108143513D01*
X173917050Y-108165000D01*
X174062950Y-108165000D01*
X174281111Y-108143513D01*
X174561034Y-108058599D01*
X174819014Y-107920706D01*
X175045134Y-107735134D01*
X175230706Y-107509014D01*
X175265201Y-107444477D01*
X175334822Y-107561355D01*
X175529731Y-107777588D01*
X175763080Y-107951641D01*
X176025901Y-108076825D01*
X176173110Y-108121476D01*
X176403000Y-108000155D01*
X176403000Y-106807000D01*
X176383000Y-106807000D01*
X176383000Y-106553000D01*
X176403000Y-106553000D01*
X176403000Y-105359845D01*
X176657000Y-105359845D01*
X176657000Y-106553000D01*
X176677000Y-106553000D01*
X176677000Y-106807000D01*
X176657000Y-106807000D01*
X176657000Y-108000155D01*
X176886890Y-108121476D01*
X177034099Y-108076825D01*
X177296920Y-107951641D01*
X177530269Y-107777588D01*
X177725178Y-107561355D01*
X177794799Y-107444477D01*
X177829294Y-107509014D01*
X178014866Y-107735134D01*
X178240986Y-107920706D01*
X178498966Y-108058599D01*
X178778889Y-108143513D01*
X178997050Y-108165000D01*
X179142950Y-108165000D01*
X179361111Y-108143513D01*
X179641034Y-108058599D01*
X179899014Y-107920706D01*
X180125134Y-107735134D01*
X180149607Y-107705313D01*
X180170498Y-107774180D01*
X180229463Y-107884494D01*
X180308815Y-107981185D01*
X180405506Y-108060537D01*
X180515820Y-108119502D01*
X180635518Y-108155812D01*
X180760000Y-108168072D01*
X182460000Y-108168072D01*
X182584482Y-108155812D01*
X182704180Y-108119502D01*
X182814494Y-108060537D01*
X182911185Y-107981185D01*
X182990537Y-107884494D01*
X183049502Y-107774180D01*
X183085812Y-107654482D01*
X183098072Y-107530000D01*
X183098072Y-106663599D01*
X193197710Y-106663599D01*
X193264689Y-107376441D01*
X193469448Y-108062518D01*
X193804121Y-108695466D01*
X193822343Y-108722740D01*
X194291498Y-109058897D01*
X196670395Y-106680000D01*
X197029605Y-106680000D01*
X199408502Y-109058897D01*
X199877657Y-108722740D01*
X200218000Y-108092823D01*
X200428913Y-107408612D01*
X200502290Y-106696401D01*
X200499208Y-106663599D01*
X227487710Y-106663599D01*
X227554689Y-107376441D01*
X227759448Y-108062518D01*
X228094121Y-108695466D01*
X228112343Y-108722740D01*
X228581498Y-109058897D01*
X230960395Y-106680000D01*
X228581498Y-104301103D01*
X228112343Y-104637260D01*
X227772000Y-105267177D01*
X227561087Y-105951388D01*
X227487710Y-106663599D01*
X200499208Y-106663599D01*
X200435311Y-105983559D01*
X200230552Y-105297482D01*
X199895879Y-104664534D01*
X199877657Y-104637260D01*
X199408502Y-104301103D01*
X197029605Y-106680000D01*
X196670395Y-106680000D01*
X194291498Y-104301103D01*
X193822343Y-104637260D01*
X193482000Y-105267177D01*
X193271087Y-105951388D01*
X193197710Y-106663599D01*
X183098072Y-106663599D01*
X183098072Y-105830000D01*
X183085812Y-105705518D01*
X183049502Y-105585820D01*
X182990537Y-105475506D01*
X182911185Y-105378815D01*
X182814494Y-105299463D01*
X182704180Y-105240498D01*
X182584482Y-105204188D01*
X182460000Y-105191928D01*
X180760000Y-105191928D01*
X180635518Y-105204188D01*
X180515820Y-105240498D01*
X180405506Y-105299463D01*
X180308815Y-105378815D01*
X180229463Y-105475506D01*
X180170498Y-105585820D01*
X180149607Y-105654687D01*
X180125134Y-105624866D01*
X179899014Y-105439294D01*
X179641034Y-105301401D01*
X179361111Y-105216487D01*
X179142950Y-105195000D01*
X178997050Y-105195000D01*
X178778889Y-105216487D01*
X178498966Y-105301401D01*
X178240986Y-105439294D01*
X178014866Y-105624866D01*
X177829294Y-105850986D01*
X177794799Y-105915523D01*
X177725178Y-105798645D01*
X177530269Y-105582412D01*
X177296920Y-105408359D01*
X177034099Y-105283175D01*
X176886890Y-105238524D01*
X176657000Y-105359845D01*
X176403000Y-105359845D01*
X176173110Y-105238524D01*
X176025901Y-105283175D01*
X175763080Y-105408359D01*
X175529731Y-105582412D01*
X175334822Y-105798645D01*
X175265201Y-105915523D01*
X175230706Y-105850986D01*
X175045134Y-105624866D01*
X174819014Y-105439294D01*
X174561034Y-105301401D01*
X174281111Y-105216487D01*
X174062950Y-105195000D01*
X173917050Y-105195000D01*
X173698889Y-105216487D01*
X173418966Y-105301401D01*
X173160986Y-105439294D01*
X172934866Y-105624866D01*
X172749294Y-105850986D01*
X172611401Y-106108966D01*
X172526487Y-106388889D01*
X172497815Y-106680000D01*
X164953000Y-106680000D01*
X164953000Y-106553000D01*
X164973000Y-106553000D01*
X164973000Y-105353750D01*
X165227000Y-105353750D01*
X165227000Y-106553000D01*
X166426250Y-106553000D01*
X166585000Y-106394250D01*
X166588072Y-105830000D01*
X166575812Y-105705518D01*
X166539502Y-105585820D01*
X166480537Y-105475506D01*
X166401185Y-105378815D01*
X166304494Y-105299463D01*
X166194180Y-105240498D01*
X166074482Y-105204188D01*
X165950000Y-105191928D01*
X165385750Y-105195000D01*
X165227000Y-105353750D01*
X164973000Y-105353750D01*
X164814250Y-105195000D01*
X164250000Y-105191928D01*
X164125518Y-105204188D01*
X164005820Y-105240498D01*
X163895506Y-105299463D01*
X163798815Y-105378815D01*
X163719463Y-105475506D01*
X163660498Y-105585820D01*
X163639607Y-105654687D01*
X163615134Y-105624866D01*
X163389014Y-105439294D01*
X163320000Y-105402405D01*
X163320000Y-104900000D01*
X189192678Y-104900000D01*
X189230000Y-104903676D01*
X189267322Y-104900000D01*
X189267333Y-104900000D01*
X189378986Y-104889003D01*
X189522247Y-104845546D01*
X189654276Y-104774974D01*
X189770001Y-104680001D01*
X189793804Y-104650997D01*
X190323303Y-104121498D01*
X194471103Y-104121498D01*
X196850000Y-106500395D01*
X199228897Y-104121498D01*
X228761103Y-104121498D01*
X231140000Y-106500395D01*
X233518897Y-104121498D01*
X233182740Y-103652343D01*
X232552823Y-103312000D01*
X231868612Y-103101087D01*
X231156401Y-103027710D01*
X230443559Y-103094689D01*
X229757482Y-103299448D01*
X229124534Y-103634121D01*
X229097260Y-103652343D01*
X228761103Y-104121498D01*
X199228897Y-104121498D01*
X198892740Y-103652343D01*
X198262823Y-103312000D01*
X197578612Y-103101087D01*
X196866401Y-103027710D01*
X196153559Y-103094689D01*
X195467482Y-103299448D01*
X194834534Y-103634121D01*
X194807260Y-103652343D01*
X194471103Y-104121498D01*
X190323303Y-104121498D01*
X192084803Y-102360000D01*
X204251928Y-102360000D01*
X204251928Y-102450000D01*
X204264188Y-102574482D01*
X204300498Y-102694180D01*
X204359463Y-102804494D01*
X204438815Y-102901185D01*
X204535506Y-102980537D01*
X204645820Y-103039502D01*
X204765518Y-103075812D01*
X204890000Y-103088072D01*
X206590000Y-103088072D01*
X206714482Y-103075812D01*
X206834180Y-103039502D01*
X206944494Y-102980537D01*
X207041185Y-102901185D01*
X207120537Y-102804494D01*
X207179502Y-102694180D01*
X207200393Y-102625313D01*
X207224866Y-102655134D01*
X207450986Y-102840706D01*
X207708966Y-102978599D01*
X207988889Y-103063513D01*
X208207050Y-103085000D01*
X208352950Y-103085000D01*
X208571111Y-103063513D01*
X208851034Y-102978599D01*
X209109014Y-102840706D01*
X209335134Y-102655134D01*
X209520706Y-102429014D01*
X209658599Y-102171034D01*
X209743513Y-101891111D01*
X209772185Y-101600000D01*
X209743513Y-101308889D01*
X209658599Y-101028966D01*
X209520706Y-100770986D01*
X209335134Y-100544866D01*
X209109014Y-100359294D01*
X208851034Y-100221401D01*
X208571111Y-100136487D01*
X208352950Y-100115000D01*
X208207050Y-100115000D01*
X207988889Y-100136487D01*
X207708966Y-100221401D01*
X207450986Y-100359294D01*
X207224866Y-100544866D01*
X207200393Y-100574687D01*
X207179502Y-100505820D01*
X207120537Y-100395506D01*
X207041185Y-100298815D01*
X206944494Y-100219463D01*
X206834180Y-100160498D01*
X206714482Y-100124188D01*
X206590000Y-100111928D01*
X204890000Y-100111928D01*
X204765518Y-100124188D01*
X204645820Y-100160498D01*
X204535506Y-100219463D01*
X204438815Y-100298815D01*
X204359463Y-100395506D01*
X204300498Y-100505820D01*
X204264188Y-100625518D01*
X204251928Y-100750000D01*
X204251928Y-100840000D01*
X203764622Y-100840000D01*
X203834974Y-100754276D01*
X203905546Y-100622247D01*
X203949003Y-100478986D01*
X203960000Y-100367333D01*
X203963677Y-100330000D01*
X203960000Y-100292667D01*
X203960000Y-98590000D01*
X211921928Y-98590000D01*
X211934188Y-98714482D01*
X211970498Y-98834180D01*
X212029463Y-98944494D01*
X212108815Y-99041185D01*
X212205506Y-99120537D01*
X212315820Y-99179502D01*
X212435518Y-99215812D01*
X212560000Y-99228072D01*
X213074250Y-99225000D01*
X213233000Y-99066250D01*
X213233000Y-97917000D01*
X213487000Y-97917000D01*
X213487000Y-99066250D01*
X213645750Y-99225000D01*
X214160000Y-99228072D01*
X214284482Y-99215812D01*
X214404180Y-99179502D01*
X214514494Y-99120537D01*
X214611185Y-99041185D01*
X214690537Y-98944494D01*
X214749502Y-98834180D01*
X214785812Y-98714482D01*
X214798072Y-98590000D01*
X214795000Y-98075750D01*
X214636250Y-97917000D01*
X213487000Y-97917000D01*
X213233000Y-97917000D01*
X212083750Y-97917000D01*
X211925000Y-98075750D01*
X211921928Y-98590000D01*
X203960000Y-98590000D01*
X203960000Y-96834801D01*
X204784802Y-96010000D01*
X212139099Y-96010000D01*
X212161068Y-96051101D01*
X212340392Y-96269608D01*
X212453482Y-96362419D01*
X212435518Y-96364188D01*
X212315820Y-96400498D01*
X212205506Y-96459463D01*
X212108815Y-96538815D01*
X212029463Y-96635506D01*
X211970498Y-96745820D01*
X211934188Y-96865518D01*
X211921928Y-96990000D01*
X211925000Y-97504250D01*
X212083750Y-97663000D01*
X213233000Y-97663000D01*
X213233000Y-97643000D01*
X213487000Y-97643000D01*
X213487000Y-97663000D01*
X214636250Y-97663000D01*
X214795000Y-97504250D01*
X214798072Y-96990000D01*
X214785812Y-96865518D01*
X214749502Y-96745820D01*
X214690537Y-96635506D01*
X214611185Y-96538815D01*
X214514494Y-96459463D01*
X214404180Y-96400498D01*
X214284482Y-96364188D01*
X214266518Y-96362419D01*
X214379608Y-96269608D01*
X214558932Y-96051101D01*
X214692182Y-95801808D01*
X214774236Y-95531309D01*
X214801943Y-95250000D01*
X214774236Y-94968691D01*
X214692182Y-94698192D01*
X214558932Y-94448899D01*
X214379608Y-94230392D01*
X214161101Y-94051068D01*
X214028142Y-93980000D01*
X214161101Y-93908932D01*
X214379608Y-93729608D01*
X214558932Y-93511101D01*
X214692182Y-93261808D01*
X214774236Y-92991309D01*
X214801943Y-92710000D01*
X214774236Y-92428691D01*
X214692182Y-92158192D01*
X214558932Y-91908899D01*
X214379608Y-91690392D01*
X214161101Y-91511068D01*
X214028142Y-91440000D01*
X214161101Y-91368932D01*
X214379608Y-91189608D01*
X214558932Y-90971101D01*
X214692182Y-90721808D01*
X214774236Y-90451309D01*
X214801943Y-90170000D01*
X214774236Y-89888691D01*
X214692182Y-89618192D01*
X214558932Y-89368899D01*
X214379608Y-89150392D01*
X214161101Y-88971068D01*
X214028142Y-88900000D01*
X214161101Y-88828932D01*
X214379608Y-88649608D01*
X214558932Y-88431101D01*
X214692182Y-88181808D01*
X214774236Y-87911309D01*
X214801943Y-87630000D01*
X214774236Y-87348691D01*
X214692182Y-87078192D01*
X214558932Y-86828899D01*
X214379608Y-86610392D01*
X214161101Y-86431068D01*
X214028142Y-86360000D01*
X214161101Y-86288932D01*
X214379608Y-86109608D01*
X214467343Y-86002702D01*
X220166903Y-86002702D01*
X220238486Y-86246671D01*
X220493996Y-86367571D01*
X220768184Y-86436300D01*
X221050512Y-86450217D01*
X221330130Y-86408787D01*
X221596292Y-86313603D01*
X221721514Y-86246671D01*
X221793097Y-86002702D01*
X220980000Y-85189605D01*
X220166903Y-86002702D01*
X214467343Y-86002702D01*
X214558932Y-85891101D01*
X214692182Y-85641808D01*
X214774236Y-85371309D01*
X214801943Y-85090000D01*
X214801009Y-85080512D01*
X219539783Y-85080512D01*
X219581213Y-85360130D01*
X219676397Y-85626292D01*
X219743329Y-85751514D01*
X219987298Y-85823097D01*
X220800395Y-85010000D01*
X221159605Y-85010000D01*
X221972702Y-85823097D01*
X222216671Y-85751514D01*
X222337571Y-85496004D01*
X222406300Y-85221816D01*
X222420217Y-84939488D01*
X222378787Y-84659870D01*
X222283603Y-84393708D01*
X222216671Y-84268486D01*
X221972702Y-84196903D01*
X221159605Y-85010000D01*
X220800395Y-85010000D01*
X219987298Y-84196903D01*
X219743329Y-84268486D01*
X219622429Y-84523996D01*
X219553700Y-84798184D01*
X219539783Y-85080512D01*
X214801009Y-85080512D01*
X214774236Y-84808691D01*
X214692182Y-84538192D01*
X214558932Y-84288899D01*
X214379608Y-84070392D01*
X214314913Y-84017298D01*
X220166903Y-84017298D01*
X220980000Y-84830395D01*
X221793097Y-84017298D01*
X221721514Y-83773329D01*
X221466004Y-83652429D01*
X221191816Y-83583700D01*
X220909488Y-83569783D01*
X220629870Y-83611213D01*
X220363708Y-83706397D01*
X220238486Y-83773329D01*
X220166903Y-84017298D01*
X214314913Y-84017298D01*
X214161101Y-83891068D01*
X214023318Y-83817421D01*
X214215131Y-83702385D01*
X214423519Y-83513414D01*
X214591037Y-83287420D01*
X214711246Y-83033087D01*
X214751904Y-82899039D01*
X214629915Y-82677000D01*
X213487000Y-82677000D01*
X213487000Y-82697000D01*
X213233000Y-82697000D01*
X213233000Y-82677000D01*
X212090085Y-82677000D01*
X211968096Y-82899039D01*
X212008754Y-83033087D01*
X212128963Y-83287420D01*
X212296481Y-83513414D01*
X212504869Y-83702385D01*
X212696682Y-83817421D01*
X212558899Y-83891068D01*
X212340392Y-84070392D01*
X212161068Y-84288899D01*
X212027818Y-84538192D01*
X211945764Y-84808691D01*
X211918057Y-85090000D01*
X211945764Y-85371309D01*
X212027818Y-85641808D01*
X212161068Y-85891101D01*
X212340392Y-86109608D01*
X212558899Y-86288932D01*
X212691858Y-86360000D01*
X212558899Y-86431068D01*
X212340392Y-86610392D01*
X212161068Y-86828899D01*
X212027818Y-87078192D01*
X211945764Y-87348691D01*
X211918057Y-87630000D01*
X211945764Y-87911309D01*
X212027818Y-88181808D01*
X212161068Y-88431101D01*
X212340392Y-88649608D01*
X212558899Y-88828932D01*
X212691858Y-88900000D01*
X212558899Y-88971068D01*
X212340392Y-89150392D01*
X212161068Y-89368899D01*
X212027818Y-89618192D01*
X211945764Y-89888691D01*
X211918057Y-90170000D01*
X211945764Y-90451309D01*
X212027818Y-90721808D01*
X212161068Y-90971101D01*
X212340392Y-91189608D01*
X212558899Y-91368932D01*
X212691858Y-91440000D01*
X212558899Y-91511068D01*
X212340392Y-91690392D01*
X212161068Y-91908899D01*
X212027818Y-92158192D01*
X211945764Y-92428691D01*
X211918057Y-92710000D01*
X211945764Y-92991309D01*
X212027818Y-93261808D01*
X212161068Y-93511101D01*
X212340392Y-93729608D01*
X212558899Y-93908932D01*
X212691858Y-93980000D01*
X212558899Y-94051068D01*
X212340392Y-94230392D01*
X212161068Y-94448899D01*
X212139099Y-94490000D01*
X204507322Y-94490000D01*
X204469999Y-94486324D01*
X204432676Y-94490000D01*
X204432667Y-94490000D01*
X204321014Y-94500997D01*
X204177753Y-94544454D01*
X204045724Y-94615026D01*
X203929999Y-94709999D01*
X203906201Y-94738997D01*
X202689003Y-95956196D01*
X202659999Y-95979999D01*
X202619175Y-96029744D01*
X202565026Y-96095724D01*
X202499613Y-96218102D01*
X202494454Y-96227754D01*
X202450997Y-96371015D01*
X202440000Y-96482668D01*
X202440000Y-96482678D01*
X202436324Y-96520000D01*
X202440000Y-96557323D01*
X202440001Y-97752658D01*
X202440000Y-97752668D01*
X202440001Y-99570000D01*
X197164802Y-99570000D01*
X196615000Y-99020199D01*
X196615000Y-98958061D01*
X196575226Y-98758102D01*
X196497205Y-98569744D01*
X196383937Y-98400226D01*
X196239774Y-98256063D01*
X196070256Y-98142795D01*
X195881898Y-98064774D01*
X195681939Y-98025000D01*
X195478061Y-98025000D01*
X195278102Y-98064774D01*
X195089744Y-98142795D01*
X194920226Y-98256063D01*
X194776063Y-98400226D01*
X194662795Y-98569744D01*
X194584774Y-98758102D01*
X194545000Y-98958061D01*
X194545000Y-99161939D01*
X194584774Y-99361898D01*
X194662795Y-99550256D01*
X194776063Y-99719774D01*
X194920226Y-99863937D01*
X195089744Y-99977205D01*
X195278102Y-100055226D01*
X195478061Y-100095000D01*
X195540199Y-100095000D01*
X196285198Y-100840000D01*
X191807322Y-100840000D01*
X191769999Y-100836324D01*
X191732676Y-100840000D01*
X191732667Y-100840000D01*
X191621014Y-100850997D01*
X191477753Y-100894454D01*
X191345724Y-100965026D01*
X191345722Y-100965027D01*
X191345723Y-100965027D01*
X191258996Y-101036201D01*
X191258992Y-101036205D01*
X191229999Y-101059999D01*
X191206205Y-101088992D01*
X188915199Y-103380000D01*
X162597333Y-103380000D01*
X162560000Y-103376323D01*
X162522667Y-103380000D01*
X162411014Y-103390997D01*
X162267753Y-103434454D01*
X162135724Y-103505026D01*
X162019999Y-103599999D01*
X161925026Y-103715724D01*
X161854454Y-103847753D01*
X161810997Y-103991014D01*
X161796323Y-104140000D01*
X161800000Y-104177333D01*
X161800000Y-105402405D01*
X161730986Y-105439294D01*
X161504866Y-105624866D01*
X161319294Y-105850986D01*
X161181401Y-106108966D01*
X161096487Y-106388889D01*
X161067815Y-106680000D01*
X156870000Y-106680000D01*
X156870000Y-96418061D01*
X160255000Y-96418061D01*
X160255000Y-96621939D01*
X160294774Y-96821898D01*
X160372795Y-97010256D01*
X160486063Y-97179774D01*
X160630226Y-97323937D01*
X160799744Y-97437205D01*
X160988102Y-97515226D01*
X161188061Y-97555000D01*
X161391939Y-97555000D01*
X161591898Y-97515226D01*
X161780256Y-97437205D01*
X161949774Y-97323937D01*
X161993711Y-97280000D01*
X165666289Y-97280000D01*
X165710226Y-97323937D01*
X165879744Y-97437205D01*
X166068102Y-97515226D01*
X166268061Y-97555000D01*
X166471939Y-97555000D01*
X166671898Y-97515226D01*
X166860256Y-97437205D01*
X167029774Y-97323937D01*
X167173937Y-97179774D01*
X167287205Y-97010256D01*
X167365226Y-96821898D01*
X167405000Y-96621939D01*
X167405000Y-96418061D01*
X167365226Y-96218102D01*
X167287205Y-96029744D01*
X167173937Y-95860226D01*
X167029774Y-95716063D01*
X166860256Y-95602795D01*
X166671898Y-95524774D01*
X166471939Y-95485000D01*
X166268061Y-95485000D01*
X166068102Y-95524774D01*
X165879744Y-95602795D01*
X165710226Y-95716063D01*
X165666289Y-95760000D01*
X161993711Y-95760000D01*
X161949774Y-95716063D01*
X161780256Y-95602795D01*
X161591898Y-95524774D01*
X161391939Y-95485000D01*
X161188061Y-95485000D01*
X160988102Y-95524774D01*
X160799744Y-95602795D01*
X160630226Y-95716063D01*
X160486063Y-95860226D01*
X160372795Y-96029744D01*
X160294774Y-96218102D01*
X160255000Y-96418061D01*
X156870000Y-96418061D01*
X156870000Y-81280000D01*
X171278057Y-81280000D01*
X171305764Y-81561309D01*
X171387818Y-81831808D01*
X171521068Y-82081101D01*
X171700392Y-82299608D01*
X171918899Y-82478932D01*
X172051858Y-82550000D01*
X171918899Y-82621068D01*
X171700392Y-82800392D01*
X171521068Y-83018899D01*
X171387818Y-83268192D01*
X171305764Y-83538691D01*
X171278057Y-83820000D01*
X171305764Y-84101309D01*
X171387818Y-84371808D01*
X171521068Y-84621101D01*
X171700392Y-84839608D01*
X171918899Y-85018932D01*
X172051858Y-85090000D01*
X171918899Y-85161068D01*
X171700392Y-85340392D01*
X171521068Y-85558899D01*
X171387818Y-85808192D01*
X171305764Y-86078691D01*
X171278057Y-86360000D01*
X171305764Y-86641309D01*
X171387818Y-86911808D01*
X171521068Y-87161101D01*
X171700392Y-87379608D01*
X171918899Y-87558932D01*
X172051858Y-87630000D01*
X171918899Y-87701068D01*
X171700392Y-87880392D01*
X171521068Y-88098899D01*
X171387818Y-88348192D01*
X171305764Y-88618691D01*
X171278057Y-88900000D01*
X171305764Y-89181309D01*
X171387818Y-89451808D01*
X171521068Y-89701101D01*
X171700392Y-89919608D01*
X171918899Y-90098932D01*
X172051858Y-90170000D01*
X171918899Y-90241068D01*
X171700392Y-90420392D01*
X171521068Y-90638899D01*
X171387818Y-90888192D01*
X171305764Y-91158691D01*
X171278057Y-91440000D01*
X171305764Y-91721309D01*
X171387818Y-91991808D01*
X171521068Y-92241101D01*
X171700392Y-92459608D01*
X171918899Y-92638932D01*
X172051858Y-92710000D01*
X171918899Y-92781068D01*
X171700392Y-92960392D01*
X171521068Y-93178899D01*
X171387818Y-93428192D01*
X171305764Y-93698691D01*
X171278057Y-93980000D01*
X171305764Y-94261309D01*
X171387818Y-94531808D01*
X171521068Y-94781101D01*
X171700392Y-94999608D01*
X171918899Y-95178932D01*
X172168192Y-95312182D01*
X172438691Y-95394236D01*
X172649508Y-95415000D01*
X172790492Y-95415000D01*
X173001309Y-95394236D01*
X173271808Y-95312182D01*
X173521101Y-95178932D01*
X173739608Y-94999608D01*
X173918932Y-94781101D01*
X174052182Y-94531808D01*
X174134236Y-94261309D01*
X174161943Y-93980000D01*
X174134236Y-93698691D01*
X174052182Y-93428192D01*
X173918932Y-93178899D01*
X173739608Y-92960392D01*
X173521101Y-92781068D01*
X173388142Y-92710000D01*
X173521101Y-92638932D01*
X173739608Y-92459608D01*
X173918932Y-92241101D01*
X174052182Y-91991808D01*
X174134236Y-91721309D01*
X174161943Y-91440000D01*
X174134236Y-91158691D01*
X174052182Y-90888192D01*
X173918932Y-90638899D01*
X173739608Y-90420392D01*
X173521101Y-90241068D01*
X173388142Y-90170000D01*
X173521101Y-90098932D01*
X173739608Y-89919608D01*
X173918932Y-89701101D01*
X174052182Y-89451808D01*
X174134236Y-89181309D01*
X174161943Y-88900000D01*
X174134236Y-88618691D01*
X174052182Y-88348192D01*
X173918932Y-88098899D01*
X173739608Y-87880392D01*
X173521101Y-87701068D01*
X173388142Y-87630000D01*
X173521101Y-87558932D01*
X173739608Y-87379608D01*
X173918932Y-87161101D01*
X174052182Y-86911808D01*
X174134236Y-86641309D01*
X174161943Y-86360000D01*
X174134236Y-86078691D01*
X174052182Y-85808192D01*
X173918932Y-85558899D01*
X173739608Y-85340392D01*
X173521101Y-85161068D01*
X173388142Y-85090000D01*
X173521101Y-85018932D01*
X173739608Y-84839608D01*
X173918932Y-84621101D01*
X174052182Y-84371808D01*
X174134236Y-84101309D01*
X174161943Y-83820000D01*
X174134236Y-83538691D01*
X174052182Y-83268192D01*
X173918932Y-83018899D01*
X173739608Y-82800392D01*
X173521101Y-82621068D01*
X173388142Y-82550000D01*
X173521101Y-82478932D01*
X173739608Y-82299608D01*
X173918932Y-82081101D01*
X174052182Y-81831808D01*
X174134236Y-81561309D01*
X174161943Y-81280000D01*
X174134236Y-80998691D01*
X174052182Y-80728192D01*
X173918932Y-80478899D01*
X173739608Y-80260392D01*
X173521101Y-80081068D01*
X173383318Y-80007421D01*
X173575131Y-79892385D01*
X173783519Y-79703414D01*
X173951037Y-79477420D01*
X174071246Y-79223087D01*
X174111904Y-79089039D01*
X173989915Y-78867000D01*
X172847000Y-78867000D01*
X172847000Y-78887000D01*
X172593000Y-78887000D01*
X172593000Y-78867000D01*
X171450085Y-78867000D01*
X171328096Y-79089039D01*
X171368754Y-79223087D01*
X171488963Y-79477420D01*
X171656481Y-79703414D01*
X171864869Y-79892385D01*
X172056682Y-80007421D01*
X171918899Y-80081068D01*
X171700392Y-80260392D01*
X171521068Y-80478899D01*
X171387818Y-80728192D01*
X171305764Y-80998691D01*
X171278057Y-81280000D01*
X156870000Y-81280000D01*
X156870000Y-58318061D01*
X160255000Y-58318061D01*
X160255000Y-58521939D01*
X160294774Y-58721898D01*
X160372795Y-58910256D01*
X160486063Y-59079774D01*
X160530000Y-59123711D01*
X160530001Y-64732657D01*
X160526323Y-64770000D01*
X160540997Y-64918986D01*
X160584454Y-65062247D01*
X160655026Y-65194276D01*
X160749999Y-65310001D01*
X160865724Y-65404974D01*
X160997753Y-65475546D01*
X161141014Y-65519003D01*
X161252667Y-65530000D01*
X161290000Y-65533677D01*
X161327333Y-65530000D01*
X162552405Y-65530000D01*
X162589294Y-65599014D01*
X162774866Y-65825134D01*
X163000986Y-66010706D01*
X163055791Y-66040000D01*
X163000986Y-66069294D01*
X162774866Y-66254866D01*
X162589294Y-66480986D01*
X162451401Y-66738966D01*
X162366487Y-67018889D01*
X162337815Y-67310000D01*
X162366487Y-67601111D01*
X162451401Y-67881034D01*
X162589294Y-68139014D01*
X162774866Y-68365134D01*
X163000986Y-68550706D01*
X163258966Y-68688599D01*
X163538889Y-68773513D01*
X163757050Y-68795000D01*
X163902950Y-68795000D01*
X164121111Y-68773513D01*
X164401034Y-68688599D01*
X164659014Y-68550706D01*
X164885134Y-68365134D01*
X164909607Y-68335313D01*
X164930498Y-68404180D01*
X164989463Y-68514494D01*
X165068815Y-68611185D01*
X165165506Y-68690537D01*
X165275820Y-68749502D01*
X165395518Y-68785812D01*
X165520000Y-68798072D01*
X167220000Y-68798072D01*
X167344482Y-68785812D01*
X167464180Y-68749502D01*
X167574494Y-68690537D01*
X167671185Y-68611185D01*
X167750537Y-68514494D01*
X167809502Y-68404180D01*
X167845812Y-68284482D01*
X167858072Y-68160000D01*
X167858072Y-66460000D01*
X167845812Y-66335518D01*
X167809502Y-66215820D01*
X167750537Y-66105506D01*
X167671185Y-66008815D01*
X167574494Y-65929463D01*
X167464180Y-65870498D01*
X167395313Y-65849607D01*
X167425134Y-65825134D01*
X167513121Y-65717922D01*
X169420000Y-67624803D01*
X169420001Y-71082657D01*
X169416323Y-71120000D01*
X169430997Y-71268986D01*
X169474454Y-71412247D01*
X169545026Y-71544276D01*
X169639999Y-71660001D01*
X169755724Y-71754974D01*
X169887753Y-71825546D01*
X170031014Y-71869003D01*
X170142667Y-71880000D01*
X170180000Y-71883677D01*
X170217333Y-71880000D01*
X171499099Y-71880000D01*
X171521068Y-71921101D01*
X171700392Y-72139608D01*
X171918899Y-72318932D01*
X172051858Y-72390000D01*
X171918899Y-72461068D01*
X171700392Y-72640392D01*
X171521068Y-72858899D01*
X171499099Y-72900000D01*
X164533711Y-72900000D01*
X164489774Y-72856063D01*
X164320256Y-72742795D01*
X164131898Y-72664774D01*
X163931939Y-72625000D01*
X163728061Y-72625000D01*
X163528102Y-72664774D01*
X163339744Y-72742795D01*
X163170226Y-72856063D01*
X163026063Y-73000226D01*
X162912795Y-73169744D01*
X162834774Y-73358102D01*
X162795000Y-73558061D01*
X162795000Y-73761939D01*
X162834774Y-73961898D01*
X162912795Y-74150256D01*
X163026063Y-74319774D01*
X163170226Y-74463937D01*
X163339744Y-74577205D01*
X163528102Y-74655226D01*
X163728061Y-74695000D01*
X163931939Y-74695000D01*
X164131898Y-74655226D01*
X164320256Y-74577205D01*
X164489774Y-74463937D01*
X164533711Y-74420000D01*
X171499099Y-74420000D01*
X171521068Y-74461101D01*
X171700392Y-74679608D01*
X171918899Y-74858932D01*
X172051858Y-74930000D01*
X171918899Y-75001068D01*
X171700392Y-75180392D01*
X171521068Y-75398899D01*
X171387818Y-75648192D01*
X171305764Y-75918691D01*
X171278057Y-76200000D01*
X171305764Y-76481309D01*
X171387818Y-76751808D01*
X171521068Y-77001101D01*
X171700392Y-77219608D01*
X171918899Y-77398932D01*
X172056682Y-77472579D01*
X171864869Y-77587615D01*
X171656481Y-77776586D01*
X171488963Y-78002580D01*
X171368754Y-78256913D01*
X171328096Y-78390961D01*
X171450085Y-78613000D01*
X172593000Y-78613000D01*
X172593000Y-78593000D01*
X172847000Y-78593000D01*
X172847000Y-78613000D01*
X173989915Y-78613000D01*
X174111904Y-78390961D01*
X174071246Y-78256913D01*
X173951037Y-78002580D01*
X173783519Y-77776586D01*
X173575131Y-77587615D01*
X173383318Y-77472579D01*
X173521101Y-77398932D01*
X173739608Y-77219608D01*
X173918932Y-77001101D01*
X174052182Y-76751808D01*
X174134236Y-76481309D01*
X174161943Y-76200000D01*
X174134236Y-75918691D01*
X174052182Y-75648192D01*
X173918932Y-75398899D01*
X173739608Y-75180392D01*
X173521101Y-75001068D01*
X173388142Y-74930000D01*
X173521101Y-74858932D01*
X173739608Y-74679608D01*
X173918932Y-74461101D01*
X173940901Y-74420000D01*
X177040001Y-74420000D01*
X177040000Y-77432677D01*
X177036324Y-77470000D01*
X177040000Y-77507322D01*
X177040000Y-77507332D01*
X177050997Y-77618985D01*
X177081758Y-77720392D01*
X177094454Y-77762246D01*
X177165026Y-77894276D01*
X177201648Y-77938899D01*
X177259999Y-78010001D01*
X177289003Y-78033804D01*
X178506201Y-79251003D01*
X178529999Y-79280001D01*
X178645724Y-79374974D01*
X178777753Y-79445546D01*
X178921014Y-79489003D01*
X179032667Y-79500000D01*
X179032676Y-79500000D01*
X179069999Y-79503676D01*
X179107322Y-79500000D01*
X179119099Y-79500000D01*
X179141068Y-79541101D01*
X179320392Y-79759608D01*
X179538899Y-79938932D01*
X179671858Y-80010000D01*
X179538899Y-80081068D01*
X179320392Y-80260392D01*
X179141068Y-80478899D01*
X179007818Y-80728192D01*
X178925764Y-80998691D01*
X178898057Y-81280000D01*
X178925764Y-81561309D01*
X179007818Y-81831808D01*
X179141068Y-82081101D01*
X179320392Y-82299608D01*
X179538899Y-82478932D01*
X179671858Y-82550000D01*
X179538899Y-82621068D01*
X179320392Y-82800392D01*
X179141068Y-83018899D01*
X179007818Y-83268192D01*
X178925764Y-83538691D01*
X178898057Y-83820000D01*
X178925764Y-84101309D01*
X179007818Y-84371808D01*
X179141068Y-84621101D01*
X179320392Y-84839608D01*
X179538899Y-85018932D01*
X179671858Y-85090000D01*
X179538899Y-85161068D01*
X179320392Y-85340392D01*
X179141068Y-85558899D01*
X179007818Y-85808192D01*
X178925764Y-86078691D01*
X178898057Y-86360000D01*
X178925764Y-86641309D01*
X179007818Y-86911808D01*
X179141068Y-87161101D01*
X179320392Y-87379608D01*
X179538899Y-87558932D01*
X179671858Y-87630000D01*
X179538899Y-87701068D01*
X179320392Y-87880392D01*
X179141068Y-88098899D01*
X179007818Y-88348192D01*
X178925764Y-88618691D01*
X178898057Y-88900000D01*
X178925764Y-89181309D01*
X179007818Y-89451808D01*
X179141068Y-89701101D01*
X179320392Y-89919608D01*
X179538899Y-90098932D01*
X179671858Y-90170000D01*
X179538899Y-90241068D01*
X179320392Y-90420392D01*
X179141068Y-90638899D01*
X179007818Y-90888192D01*
X178925764Y-91158691D01*
X178898057Y-91440000D01*
X178900598Y-91465796D01*
X178560000Y-91125199D01*
X178560000Y-80047322D01*
X178563676Y-80009999D01*
X178560000Y-79972676D01*
X178560000Y-79972667D01*
X178549003Y-79861014D01*
X178505546Y-79717753D01*
X178434974Y-79585724D01*
X178398353Y-79541101D01*
X178363799Y-79498996D01*
X178363795Y-79498992D01*
X178340001Y-79469999D01*
X178311008Y-79446205D01*
X176020000Y-77155199D01*
X176020000Y-76903711D01*
X176063937Y-76859774D01*
X176177205Y-76690256D01*
X176255226Y-76501898D01*
X176295000Y-76301939D01*
X176295000Y-76098061D01*
X176255226Y-75898102D01*
X176177205Y-75709744D01*
X176063937Y-75540226D01*
X175919774Y-75396063D01*
X175750256Y-75282795D01*
X175561898Y-75204774D01*
X175361939Y-75165000D01*
X175158061Y-75165000D01*
X174958102Y-75204774D01*
X174769744Y-75282795D01*
X174600226Y-75396063D01*
X174456063Y-75540226D01*
X174342795Y-75709744D01*
X174264774Y-75898102D01*
X174225000Y-76098061D01*
X174225000Y-76301939D01*
X174264774Y-76501898D01*
X174342795Y-76690256D01*
X174456063Y-76859774D01*
X174500000Y-76903711D01*
X174500000Y-77432677D01*
X174496324Y-77470000D01*
X174500000Y-77507322D01*
X174500000Y-77507332D01*
X174510997Y-77618985D01*
X174541758Y-77720392D01*
X174554454Y-77762246D01*
X174625026Y-77894276D01*
X174661648Y-77938899D01*
X174719999Y-78010001D01*
X174749003Y-78033804D01*
X177040001Y-80324804D01*
X177040000Y-90535988D01*
X177020256Y-90522795D01*
X176831898Y-90444774D01*
X176631939Y-90405000D01*
X176428061Y-90405000D01*
X176261961Y-90438039D01*
X176295000Y-90271939D01*
X176295000Y-90068061D01*
X176255226Y-89868102D01*
X176177205Y-89679744D01*
X176063937Y-89510226D01*
X175919774Y-89366063D01*
X175750256Y-89252795D01*
X175561898Y-89174774D01*
X175361939Y-89135000D01*
X175158061Y-89135000D01*
X174958102Y-89174774D01*
X174769744Y-89252795D01*
X174600226Y-89366063D01*
X174456063Y-89510226D01*
X174342795Y-89679744D01*
X174264774Y-89868102D01*
X174225000Y-90068061D01*
X174225000Y-90271939D01*
X174264774Y-90471898D01*
X174342795Y-90660256D01*
X174456063Y-90829774D01*
X174500001Y-90873712D01*
X174500000Y-91674330D01*
X174500001Y-91674340D01*
X174500000Y-96482677D01*
X174496324Y-96520000D01*
X174500000Y-96557322D01*
X174500000Y-96557332D01*
X174510997Y-96668985D01*
X174541758Y-96770392D01*
X174554454Y-96812246D01*
X174625026Y-96944276D01*
X174661648Y-96988899D01*
X174719999Y-97060001D01*
X174749003Y-97083804D01*
X177170819Y-99505622D01*
X177140226Y-99526063D01*
X176996063Y-99670226D01*
X176882795Y-99839744D01*
X176804774Y-100028102D01*
X176765000Y-100228061D01*
X176765000Y-100431939D01*
X176804774Y-100631898D01*
X176882795Y-100820256D01*
X176996063Y-100989774D01*
X177140226Y-101133937D01*
X177309744Y-101247205D01*
X177498102Y-101325226D01*
X177698061Y-101365000D01*
X177901939Y-101365000D01*
X178101898Y-101325226D01*
X178290256Y-101247205D01*
X178459774Y-101133937D01*
X178503711Y-101090000D01*
X184112678Y-101090000D01*
X184150000Y-101093676D01*
X184187322Y-101090000D01*
X184187333Y-101090000D01*
X184298986Y-101079003D01*
X184442247Y-101035546D01*
X184574276Y-100964974D01*
X184690001Y-100870001D01*
X184713804Y-100840997D01*
X185930000Y-99624802D01*
X185930000Y-100896289D01*
X185886063Y-100940226D01*
X185772795Y-101109744D01*
X185694774Y-101298102D01*
X185655000Y-101498061D01*
X185655000Y-101701939D01*
X185694774Y-101901898D01*
X185772795Y-102090256D01*
X185886063Y-102259774D01*
X186030226Y-102403937D01*
X186199744Y-102517205D01*
X186388102Y-102595226D01*
X186588061Y-102635000D01*
X186791939Y-102635000D01*
X186991898Y-102595226D01*
X187180256Y-102517205D01*
X187349774Y-102403937D01*
X187493937Y-102259774D01*
X187607205Y-102090256D01*
X187685226Y-101901898D01*
X187725000Y-101701939D01*
X187725000Y-101498061D01*
X187685226Y-101298102D01*
X187607205Y-101109744D01*
X187493937Y-100940226D01*
X187450000Y-100896289D01*
X187450000Y-94683711D01*
X187493937Y-94639774D01*
X187607205Y-94470256D01*
X187685226Y-94281898D01*
X187725000Y-94081939D01*
X187725000Y-93878061D01*
X187685226Y-93678102D01*
X187607205Y-93489744D01*
X187493937Y-93320226D01*
X187349774Y-93176063D01*
X187180256Y-93062795D01*
X186991898Y-92984774D01*
X186791939Y-92945000D01*
X186588061Y-92945000D01*
X186388102Y-92984774D01*
X186199744Y-93062795D01*
X186180000Y-93075987D01*
X186180000Y-81178061D01*
X193275000Y-81178061D01*
X193275000Y-81381939D01*
X193314774Y-81581898D01*
X193392795Y-81770256D01*
X193506063Y-81939774D01*
X193550001Y-81983712D01*
X193550000Y-86926289D01*
X193506063Y-86970226D01*
X193392795Y-87139744D01*
X193314774Y-87328102D01*
X193275000Y-87528061D01*
X193275000Y-87731939D01*
X193314774Y-87931898D01*
X193392795Y-88120256D01*
X193506063Y-88289774D01*
X193650226Y-88433937D01*
X193819744Y-88547205D01*
X194008102Y-88625226D01*
X194208061Y-88665000D01*
X194411939Y-88665000D01*
X194611898Y-88625226D01*
X194800256Y-88547205D01*
X194969774Y-88433937D01*
X195113937Y-88289774D01*
X195227205Y-88120256D01*
X195305226Y-87931898D01*
X195345000Y-87731939D01*
X195345000Y-87528061D01*
X195305226Y-87328102D01*
X195227205Y-87139744D01*
X195113937Y-86970226D01*
X195070000Y-86926289D01*
X195070000Y-81983711D01*
X195113937Y-81939774D01*
X195227205Y-81770256D01*
X195305226Y-81581898D01*
X195345000Y-81381939D01*
X195345000Y-81178061D01*
X195305226Y-80978102D01*
X195227205Y-80789744D01*
X195113937Y-80620226D01*
X194969774Y-80476063D01*
X194800256Y-80362795D01*
X194611898Y-80284774D01*
X194411939Y-80245000D01*
X194208061Y-80245000D01*
X194008102Y-80284774D01*
X193819744Y-80362795D01*
X193650226Y-80476063D01*
X193506063Y-80620226D01*
X193392795Y-80789744D01*
X193314774Y-80978102D01*
X193275000Y-81178061D01*
X186180000Y-81178061D01*
X186180000Y-80010000D01*
X199218057Y-80010000D01*
X199245764Y-80291309D01*
X199327818Y-80561808D01*
X199461068Y-80811101D01*
X199640392Y-81029608D01*
X199858899Y-81208932D01*
X199991858Y-81280000D01*
X199858899Y-81351068D01*
X199640392Y-81530392D01*
X199461068Y-81748899D01*
X199327818Y-81998192D01*
X199245764Y-82268691D01*
X199218057Y-82550000D01*
X199245764Y-82831309D01*
X199327818Y-83101808D01*
X199461068Y-83351101D01*
X199640392Y-83569608D01*
X199858899Y-83748932D01*
X199991858Y-83820000D01*
X199858899Y-83891068D01*
X199640392Y-84070392D01*
X199461068Y-84288899D01*
X199327818Y-84538192D01*
X199245764Y-84808691D01*
X199218057Y-85090000D01*
X199245764Y-85371309D01*
X199327818Y-85641808D01*
X199461068Y-85891101D01*
X199640392Y-86109608D01*
X199858899Y-86288932D01*
X199991858Y-86360000D01*
X199858899Y-86431068D01*
X199640392Y-86610392D01*
X199461068Y-86828899D01*
X199327818Y-87078192D01*
X199245764Y-87348691D01*
X199218057Y-87630000D01*
X199245764Y-87911309D01*
X199327818Y-88181808D01*
X199461068Y-88431101D01*
X199640392Y-88649608D01*
X199858899Y-88828932D01*
X199991858Y-88900000D01*
X199858899Y-88971068D01*
X199640392Y-89150392D01*
X199461068Y-89368899D01*
X199327818Y-89618192D01*
X199245764Y-89888691D01*
X199218057Y-90170000D01*
X199245764Y-90451309D01*
X199327818Y-90721808D01*
X199461068Y-90971101D01*
X199640392Y-91189608D01*
X199858899Y-91368932D01*
X199991858Y-91440000D01*
X199858899Y-91511068D01*
X199640392Y-91690392D01*
X199461068Y-91908899D01*
X199327818Y-92158192D01*
X199245764Y-92428691D01*
X199218057Y-92710000D01*
X199245764Y-92991309D01*
X199327818Y-93261808D01*
X199461068Y-93511101D01*
X199640392Y-93729608D01*
X199858899Y-93908932D01*
X199991858Y-93980000D01*
X199858899Y-94051068D01*
X199640392Y-94230392D01*
X199461068Y-94448899D01*
X199327818Y-94698192D01*
X199245764Y-94968691D01*
X199218057Y-95250000D01*
X199245764Y-95531309D01*
X199327818Y-95801808D01*
X199461068Y-96051101D01*
X199640392Y-96269608D01*
X199858899Y-96448932D01*
X199991858Y-96520000D01*
X199858899Y-96591068D01*
X199640392Y-96770392D01*
X199461068Y-96988899D01*
X199327818Y-97238192D01*
X199245764Y-97508691D01*
X199218057Y-97790000D01*
X199245764Y-98071309D01*
X199327818Y-98341808D01*
X199461068Y-98591101D01*
X199640392Y-98809608D01*
X199858899Y-98988932D01*
X200108192Y-99122182D01*
X200378691Y-99204236D01*
X200589508Y-99225000D01*
X200730492Y-99225000D01*
X200941309Y-99204236D01*
X201211808Y-99122182D01*
X201461101Y-98988932D01*
X201679608Y-98809608D01*
X201858932Y-98591101D01*
X201992182Y-98341808D01*
X202074236Y-98071309D01*
X202101943Y-97790000D01*
X202074236Y-97508691D01*
X201992182Y-97238192D01*
X201858932Y-96988899D01*
X201679608Y-96770392D01*
X201461101Y-96591068D01*
X201328142Y-96520000D01*
X201461101Y-96448932D01*
X201679608Y-96269608D01*
X201858932Y-96051101D01*
X201992182Y-95801808D01*
X202074236Y-95531309D01*
X202101943Y-95250000D01*
X202074236Y-94968691D01*
X201992182Y-94698192D01*
X201858932Y-94448899D01*
X201679608Y-94230392D01*
X201461101Y-94051068D01*
X201328142Y-93980000D01*
X201461101Y-93908932D01*
X201679608Y-93729608D01*
X201858932Y-93511101D01*
X201992182Y-93261808D01*
X202074236Y-92991309D01*
X202101943Y-92710000D01*
X202074236Y-92428691D01*
X201992182Y-92158192D01*
X201858932Y-91908899D01*
X201679608Y-91690392D01*
X201461101Y-91511068D01*
X201328142Y-91440000D01*
X201461101Y-91368932D01*
X201679608Y-91189608D01*
X201858932Y-90971101D01*
X201992182Y-90721808D01*
X202074236Y-90451309D01*
X202101943Y-90170000D01*
X202074236Y-89888691D01*
X201992182Y-89618192D01*
X201858932Y-89368899D01*
X201679608Y-89150392D01*
X201461101Y-88971068D01*
X201328142Y-88900000D01*
X201461101Y-88828932D01*
X201679608Y-88649608D01*
X201858932Y-88431101D01*
X201992182Y-88181808D01*
X202074236Y-87911309D01*
X202101943Y-87630000D01*
X202074236Y-87348691D01*
X201992182Y-87078192D01*
X201858932Y-86828899D01*
X201679608Y-86610392D01*
X201461101Y-86431068D01*
X201328142Y-86360000D01*
X201461101Y-86288932D01*
X201679608Y-86109608D01*
X201858932Y-85891101D01*
X201992182Y-85641808D01*
X202074236Y-85371309D01*
X202101943Y-85090000D01*
X202074236Y-84808691D01*
X201992182Y-84538192D01*
X201858932Y-84288899D01*
X201679608Y-84070392D01*
X201461101Y-83891068D01*
X201328142Y-83820000D01*
X201461101Y-83748932D01*
X201679608Y-83569608D01*
X201858932Y-83351101D01*
X201992182Y-83101808D01*
X202074236Y-82831309D01*
X202101943Y-82550000D01*
X202074236Y-82268691D01*
X201992182Y-81998192D01*
X201858932Y-81748899D01*
X201679608Y-81530392D01*
X201461101Y-81351068D01*
X201328142Y-81280000D01*
X201461101Y-81208932D01*
X201679608Y-81029608D01*
X201858932Y-80811101D01*
X201992182Y-80561808D01*
X202074236Y-80291309D01*
X202101943Y-80010000D01*
X211918057Y-80010000D01*
X211945764Y-80291309D01*
X212027818Y-80561808D01*
X212161068Y-80811101D01*
X212340392Y-81029608D01*
X212558899Y-81208932D01*
X212696682Y-81282579D01*
X212504869Y-81397615D01*
X212296481Y-81586586D01*
X212128963Y-81812580D01*
X212008754Y-82066913D01*
X211968096Y-82200961D01*
X212090085Y-82423000D01*
X213233000Y-82423000D01*
X213233000Y-82403000D01*
X213487000Y-82403000D01*
X213487000Y-82423000D01*
X214629915Y-82423000D01*
X214751904Y-82200961D01*
X214711246Y-82066913D01*
X214591037Y-81812580D01*
X214423519Y-81586586D01*
X214215131Y-81397615D01*
X214023318Y-81282579D01*
X214161101Y-81208932D01*
X214379608Y-81029608D01*
X214558932Y-80811101D01*
X214692182Y-80561808D01*
X214774236Y-80291309D01*
X214801943Y-80010000D01*
X214774236Y-79728691D01*
X214692182Y-79458192D01*
X214559521Y-79210000D01*
X219541928Y-79210000D01*
X219541928Y-80810000D01*
X219554188Y-80934482D01*
X219590498Y-81054180D01*
X219649463Y-81164494D01*
X219728815Y-81261185D01*
X219825506Y-81340537D01*
X219935820Y-81399502D01*
X220055518Y-81435812D01*
X220180000Y-81448072D01*
X221780000Y-81448072D01*
X221904482Y-81435812D01*
X222024180Y-81399502D01*
X222134494Y-81340537D01*
X222231185Y-81261185D01*
X222310537Y-81164494D01*
X222369502Y-81054180D01*
X222405812Y-80934482D01*
X222418072Y-80810000D01*
X222418072Y-79210000D01*
X222405812Y-79085518D01*
X222369502Y-78965820D01*
X222310537Y-78855506D01*
X222231185Y-78758815D01*
X222134494Y-78679463D01*
X222024180Y-78620498D01*
X221904482Y-78584188D01*
X221780000Y-78571928D01*
X220180000Y-78571928D01*
X220055518Y-78584188D01*
X219935820Y-78620498D01*
X219825506Y-78679463D01*
X219728815Y-78758815D01*
X219649463Y-78855506D01*
X219590498Y-78965820D01*
X219554188Y-79085518D01*
X219541928Y-79210000D01*
X214559521Y-79210000D01*
X214558932Y-79208899D01*
X214379608Y-78990392D01*
X214161101Y-78811068D01*
X213911808Y-78677818D01*
X213641309Y-78595764D01*
X213430492Y-78575000D01*
X213289508Y-78575000D01*
X213078691Y-78595764D01*
X212808192Y-78677818D01*
X212558899Y-78811068D01*
X212340392Y-78990392D01*
X212161068Y-79208899D01*
X212027818Y-79458192D01*
X211945764Y-79728691D01*
X211918057Y-80010000D01*
X202101943Y-80010000D01*
X202074236Y-79728691D01*
X201992182Y-79458192D01*
X201858932Y-79208899D01*
X201679608Y-78990392D01*
X201461101Y-78811068D01*
X201211808Y-78677818D01*
X200941309Y-78595764D01*
X200730492Y-78575000D01*
X200589508Y-78575000D01*
X200378691Y-78595764D01*
X200108192Y-78677818D01*
X199858899Y-78811068D01*
X199640392Y-78990392D01*
X199461068Y-79208899D01*
X199327818Y-79458192D01*
X199245764Y-79728691D01*
X199218057Y-80010000D01*
X186180000Y-80010000D01*
X186180000Y-79054801D01*
X187004802Y-78230000D01*
X213322678Y-78230000D01*
X213360000Y-78233676D01*
X213397322Y-78230000D01*
X213397333Y-78230000D01*
X213508986Y-78219003D01*
X213652247Y-78175546D01*
X213784276Y-78104974D01*
X213900001Y-78010001D01*
X213923804Y-77980997D01*
X214669802Y-77235000D01*
X214731939Y-77235000D01*
X214931898Y-77195226D01*
X215120256Y-77117205D01*
X215289774Y-77003937D01*
X215433937Y-76859774D01*
X215547205Y-76690256D01*
X215625226Y-76501898D01*
X215665000Y-76301939D01*
X215665000Y-76098061D01*
X215625226Y-75898102D01*
X215547205Y-75709744D01*
X215433937Y-75540226D01*
X215289774Y-75396063D01*
X215120256Y-75282795D01*
X214931898Y-75204774D01*
X214731939Y-75165000D01*
X214528061Y-75165000D01*
X214328102Y-75204774D01*
X214139744Y-75282795D01*
X213970226Y-75396063D01*
X213826063Y-75540226D01*
X213712795Y-75709744D01*
X213634774Y-75898102D01*
X213595000Y-76098061D01*
X213595000Y-76160198D01*
X213045199Y-76710000D01*
X186727322Y-76710000D01*
X186689999Y-76706324D01*
X186652676Y-76710000D01*
X186652667Y-76710000D01*
X186541014Y-76720997D01*
X186397753Y-76764454D01*
X186265724Y-76835026D01*
X186149999Y-76929999D01*
X186126201Y-76958997D01*
X184908998Y-78176201D01*
X184880000Y-78199999D01*
X184856202Y-78228997D01*
X184856201Y-78228998D01*
X184785026Y-78315724D01*
X184714454Y-78447754D01*
X184691023Y-78525000D01*
X184670998Y-78591014D01*
X184662286Y-78679463D01*
X184656324Y-78740000D01*
X184660001Y-78777333D01*
X184660000Y-94345988D01*
X184640256Y-94332795D01*
X184451898Y-94254774D01*
X184251939Y-94215000D01*
X184048061Y-94215000D01*
X183848102Y-94254774D01*
X183659744Y-94332795D01*
X183490226Y-94446063D01*
X183346063Y-94590226D01*
X183232795Y-94759744D01*
X183154774Y-94948102D01*
X183115000Y-95148061D01*
X183115000Y-95210198D01*
X182434379Y-95890820D01*
X182413937Y-95860226D01*
X182269774Y-95716063D01*
X182100256Y-95602795D01*
X181911898Y-95524774D01*
X181711939Y-95485000D01*
X181508061Y-95485000D01*
X181308102Y-95524774D01*
X181119744Y-95602795D01*
X180950226Y-95716063D01*
X180906289Y-95760000D01*
X179384802Y-95760000D01*
X178560000Y-94935199D01*
X178560000Y-93413711D01*
X178603937Y-93369774D01*
X178624379Y-93339181D01*
X178901928Y-93616730D01*
X178901928Y-94780000D01*
X178914188Y-94904482D01*
X178950498Y-95024180D01*
X179009463Y-95134494D01*
X179088815Y-95231185D01*
X179185506Y-95310537D01*
X179295820Y-95369502D01*
X179415518Y-95405812D01*
X179540000Y-95418072D01*
X181140000Y-95418072D01*
X181264482Y-95405812D01*
X181384180Y-95369502D01*
X181494494Y-95310537D01*
X181591185Y-95231185D01*
X181670537Y-95134494D01*
X181729502Y-95024180D01*
X181765812Y-94904482D01*
X181778072Y-94780000D01*
X181778072Y-93180000D01*
X181765812Y-93055518D01*
X181729502Y-92935820D01*
X181670537Y-92825506D01*
X181591185Y-92728815D01*
X181494494Y-92649463D01*
X181384180Y-92590498D01*
X181264482Y-92554188D01*
X181246518Y-92552419D01*
X181359608Y-92459608D01*
X181538932Y-92241101D01*
X181672182Y-91991808D01*
X181754236Y-91721309D01*
X181781943Y-91440000D01*
X181754236Y-91158691D01*
X181672182Y-90888192D01*
X181538932Y-90638899D01*
X181359608Y-90420392D01*
X181141101Y-90241068D01*
X181008142Y-90170000D01*
X181141101Y-90098932D01*
X181359608Y-89919608D01*
X181538932Y-89701101D01*
X181672182Y-89451808D01*
X181754236Y-89181309D01*
X181781943Y-88900000D01*
X181754236Y-88618691D01*
X181672182Y-88348192D01*
X181538932Y-88098899D01*
X181359608Y-87880392D01*
X181141101Y-87701068D01*
X181008142Y-87630000D01*
X181141101Y-87558932D01*
X181359608Y-87379608D01*
X181538932Y-87161101D01*
X181672182Y-86911808D01*
X181754236Y-86641309D01*
X181781943Y-86360000D01*
X181754236Y-86078691D01*
X181672182Y-85808192D01*
X181538932Y-85558899D01*
X181359608Y-85340392D01*
X181141101Y-85161068D01*
X181008142Y-85090000D01*
X181141101Y-85018932D01*
X181359608Y-84839608D01*
X181538932Y-84621101D01*
X181672182Y-84371808D01*
X181754236Y-84101309D01*
X181781943Y-83820000D01*
X181754236Y-83538691D01*
X181672182Y-83268192D01*
X181538932Y-83018899D01*
X181359608Y-82800392D01*
X181141101Y-82621068D01*
X181008142Y-82550000D01*
X181141101Y-82478932D01*
X181359608Y-82299608D01*
X181538932Y-82081101D01*
X181672182Y-81831808D01*
X181754236Y-81561309D01*
X181781943Y-81280000D01*
X181754236Y-80998691D01*
X181672182Y-80728192D01*
X181538932Y-80478899D01*
X181359608Y-80260392D01*
X181141101Y-80081068D01*
X181008142Y-80010000D01*
X181141101Y-79938932D01*
X181359608Y-79759608D01*
X181538932Y-79541101D01*
X181672182Y-79291808D01*
X181754236Y-79021309D01*
X181781943Y-78740000D01*
X181754236Y-78458691D01*
X181672182Y-78188192D01*
X181538932Y-77938899D01*
X181359608Y-77720392D01*
X181141101Y-77541068D01*
X181003318Y-77467421D01*
X181195131Y-77352385D01*
X181403519Y-77163414D01*
X181571037Y-76937420D01*
X181691246Y-76683087D01*
X181731904Y-76549039D01*
X181609915Y-76327000D01*
X180467000Y-76327000D01*
X180467000Y-76347000D01*
X180213000Y-76347000D01*
X180213000Y-76327000D01*
X179070085Y-76327000D01*
X178948096Y-76549039D01*
X178988754Y-76683087D01*
X179108963Y-76937420D01*
X179276481Y-77163414D01*
X179484869Y-77352385D01*
X179676682Y-77467421D01*
X179538899Y-77541068D01*
X179320392Y-77720392D01*
X179232406Y-77827604D01*
X178560000Y-77155199D01*
X178560000Y-73697333D01*
X178563677Y-73660000D01*
X178549003Y-73511014D01*
X178505546Y-73367753D01*
X178434974Y-73235724D01*
X178340001Y-73119999D01*
X178224276Y-73025026D01*
X178092247Y-72954454D01*
X177948986Y-72910997D01*
X177837333Y-72900000D01*
X177800000Y-72896323D01*
X177762667Y-72900000D01*
X173940901Y-72900000D01*
X173918932Y-72858899D01*
X173739608Y-72640392D01*
X173521101Y-72461068D01*
X173388142Y-72390000D01*
X173521101Y-72318932D01*
X173739608Y-72139608D01*
X173918932Y-71921101D01*
X174052182Y-71671808D01*
X174134236Y-71401309D01*
X174161943Y-71120000D01*
X174134236Y-70838691D01*
X174052182Y-70568192D01*
X173918932Y-70318899D01*
X173739608Y-70100392D01*
X173521101Y-69921068D01*
X173388142Y-69850000D01*
X173521101Y-69778932D01*
X173739608Y-69599608D01*
X173918932Y-69381101D01*
X174052182Y-69131808D01*
X174134236Y-68861309D01*
X174161943Y-68580000D01*
X174134236Y-68298691D01*
X174052182Y-68028192D01*
X173918932Y-67778899D01*
X173739608Y-67560392D01*
X173521101Y-67381068D01*
X173388142Y-67310000D01*
X173521101Y-67238932D01*
X173739608Y-67059608D01*
X173918932Y-66841101D01*
X174052182Y-66591808D01*
X174134236Y-66321309D01*
X174161943Y-66040000D01*
X174134236Y-65758691D01*
X174052182Y-65488192D01*
X173918932Y-65238899D01*
X173739608Y-65020392D01*
X173521101Y-64841068D01*
X173388142Y-64770000D01*
X173521101Y-64698932D01*
X173739608Y-64519608D01*
X173918932Y-64301101D01*
X174052182Y-64051808D01*
X174134236Y-63781309D01*
X174161943Y-63500000D01*
X174134236Y-63218691D01*
X174052182Y-62948192D01*
X173918932Y-62698899D01*
X173739608Y-62480392D01*
X173521101Y-62301068D01*
X173388142Y-62230000D01*
X173521101Y-62158932D01*
X173739608Y-61979608D01*
X173918932Y-61761101D01*
X174052182Y-61511808D01*
X174134236Y-61241309D01*
X174161943Y-60960000D01*
X174134236Y-60678691D01*
X174052182Y-60408192D01*
X173918932Y-60158899D01*
X173739608Y-59940392D01*
X173521101Y-59761068D01*
X173271808Y-59627818D01*
X173001309Y-59545764D01*
X172790492Y-59525000D01*
X172649508Y-59525000D01*
X172438691Y-59545764D01*
X172168192Y-59627818D01*
X171918899Y-59761068D01*
X171700392Y-59940392D01*
X171521068Y-60158899D01*
X171387818Y-60408192D01*
X171305764Y-60678691D01*
X171278057Y-60960000D01*
X171305764Y-61241309D01*
X171387818Y-61511808D01*
X171521068Y-61761101D01*
X171700392Y-61979608D01*
X171918899Y-62158932D01*
X172051858Y-62230000D01*
X171918899Y-62301068D01*
X171700392Y-62480392D01*
X171521068Y-62698899D01*
X171387818Y-62948192D01*
X171305764Y-63218691D01*
X171278057Y-63500000D01*
X171305764Y-63781309D01*
X171387818Y-64051808D01*
X171521068Y-64301101D01*
X171700392Y-64519608D01*
X171918899Y-64698932D01*
X172051858Y-64770000D01*
X171918899Y-64841068D01*
X171700392Y-65020392D01*
X171521068Y-65238899D01*
X171387818Y-65488192D01*
X171305764Y-65758691D01*
X171278057Y-66040000D01*
X171305764Y-66321309D01*
X171387818Y-66591808D01*
X171521068Y-66841101D01*
X171700392Y-67059608D01*
X171918899Y-67238932D01*
X172051858Y-67310000D01*
X171918899Y-67381068D01*
X171700392Y-67560392D01*
X171521068Y-67778899D01*
X171387818Y-68028192D01*
X171305764Y-68298691D01*
X171278057Y-68580000D01*
X171305764Y-68861309D01*
X171387818Y-69131808D01*
X171521068Y-69381101D01*
X171700392Y-69599608D01*
X171918899Y-69778932D01*
X172051858Y-69850000D01*
X171918899Y-69921068D01*
X171700392Y-70100392D01*
X171521068Y-70318899D01*
X171499099Y-70360000D01*
X170940000Y-70360000D01*
X170940000Y-67347322D01*
X170943676Y-67309999D01*
X170940000Y-67272676D01*
X170940000Y-67272667D01*
X170929003Y-67161014D01*
X170885546Y-67017753D01*
X170814974Y-66885724D01*
X170801811Y-66869685D01*
X170743799Y-66798996D01*
X170743795Y-66798992D01*
X170720001Y-66769999D01*
X170691009Y-66746206D01*
X168203804Y-64259003D01*
X168180001Y-64229999D01*
X168064276Y-64135026D01*
X167932247Y-64064454D01*
X167788986Y-64020997D01*
X167677333Y-64010000D01*
X167677322Y-64010000D01*
X167645943Y-64006909D01*
X167610706Y-63940986D01*
X167425134Y-63714866D01*
X167199014Y-63529294D01*
X167144209Y-63500000D01*
X167199014Y-63470706D01*
X167425134Y-63285134D01*
X167610706Y-63059014D01*
X167748599Y-62801034D01*
X167833513Y-62521111D01*
X167862185Y-62230000D01*
X167833513Y-61938889D01*
X167748599Y-61658966D01*
X167610706Y-61400986D01*
X167425134Y-61174866D01*
X167199014Y-60989294D01*
X167130000Y-60952405D01*
X167130000Y-60004801D01*
X167954802Y-59180000D01*
X173675199Y-59180000D01*
X174500001Y-60004803D01*
X174500000Y-61526289D01*
X174456063Y-61570226D01*
X174342795Y-61739744D01*
X174264774Y-61928102D01*
X174225000Y-62128061D01*
X174225000Y-62331939D01*
X174264774Y-62531898D01*
X174342795Y-62720256D01*
X174456063Y-62889774D01*
X174600226Y-63033937D01*
X174769744Y-63147205D01*
X174958102Y-63225226D01*
X175158061Y-63265000D01*
X175361939Y-63265000D01*
X175561898Y-63225226D01*
X175750256Y-63147205D01*
X175919774Y-63033937D01*
X176063937Y-62889774D01*
X176177205Y-62720256D01*
X176255226Y-62531898D01*
X176295000Y-62331939D01*
X176295000Y-62128061D01*
X176255226Y-61928102D01*
X176177205Y-61739744D01*
X176063937Y-61570226D01*
X176020000Y-61526289D01*
X176020000Y-60960000D01*
X178898057Y-60960000D01*
X178925764Y-61241309D01*
X179007818Y-61511808D01*
X179141068Y-61761101D01*
X179320392Y-61979608D01*
X179538899Y-62158932D01*
X179671858Y-62230000D01*
X179538899Y-62301068D01*
X179320392Y-62480392D01*
X179141068Y-62698899D01*
X179007818Y-62948192D01*
X178925764Y-63218691D01*
X178898057Y-63500000D01*
X178925764Y-63781309D01*
X179007818Y-64051808D01*
X179141068Y-64301101D01*
X179320392Y-64519608D01*
X179538899Y-64698932D01*
X179671858Y-64770000D01*
X179538899Y-64841068D01*
X179320392Y-65020392D01*
X179141068Y-65238899D01*
X179007818Y-65488192D01*
X178925764Y-65758691D01*
X178898057Y-66040000D01*
X178925764Y-66321309D01*
X179007818Y-66591808D01*
X179141068Y-66841101D01*
X179320392Y-67059608D01*
X179538899Y-67238932D01*
X179671858Y-67310000D01*
X179538899Y-67381068D01*
X179320392Y-67560392D01*
X179141068Y-67778899D01*
X179007818Y-68028192D01*
X178925764Y-68298691D01*
X178898057Y-68580000D01*
X178925764Y-68861309D01*
X179007818Y-69131808D01*
X179141068Y-69381101D01*
X179320392Y-69599608D01*
X179538899Y-69778932D01*
X179671858Y-69850000D01*
X179538899Y-69921068D01*
X179320392Y-70100392D01*
X179141068Y-70318899D01*
X179007818Y-70568192D01*
X178925764Y-70838691D01*
X178898057Y-71120000D01*
X178925764Y-71401309D01*
X179007818Y-71671808D01*
X179141068Y-71921101D01*
X179320392Y-72139608D01*
X179538899Y-72318932D01*
X179671858Y-72390000D01*
X179538899Y-72461068D01*
X179320392Y-72640392D01*
X179141068Y-72858899D01*
X179007818Y-73108192D01*
X178925764Y-73378691D01*
X178898057Y-73660000D01*
X178925764Y-73941309D01*
X179007818Y-74211808D01*
X179141068Y-74461101D01*
X179320392Y-74679608D01*
X179538899Y-74858932D01*
X179676682Y-74932579D01*
X179484869Y-75047615D01*
X179276481Y-75236586D01*
X179108963Y-75462580D01*
X178988754Y-75716913D01*
X178948096Y-75850961D01*
X179070085Y-76073000D01*
X180213000Y-76073000D01*
X180213000Y-76053000D01*
X180467000Y-76053000D01*
X180467000Y-76073000D01*
X181609915Y-76073000D01*
X181731904Y-75850961D01*
X181691246Y-75716913D01*
X181571037Y-75462580D01*
X181403519Y-75236586D01*
X181195131Y-75047615D01*
X181003318Y-74932579D01*
X181141101Y-74858932D01*
X181359608Y-74679608D01*
X181538932Y-74461101D01*
X181672182Y-74211808D01*
X181754236Y-73941309D01*
X181781943Y-73660000D01*
X181754236Y-73378691D01*
X181672182Y-73108192D01*
X181538932Y-72858899D01*
X181359608Y-72640392D01*
X181141101Y-72461068D01*
X181008142Y-72390000D01*
X181141101Y-72318932D01*
X181359608Y-72139608D01*
X181538932Y-71921101D01*
X181672182Y-71671808D01*
X181754236Y-71401309D01*
X181781943Y-71120000D01*
X181754236Y-70838691D01*
X181672182Y-70568192D01*
X181538932Y-70318899D01*
X181498802Y-70270000D01*
X183931928Y-70270000D01*
X183931928Y-71970000D01*
X183944188Y-72094482D01*
X183980498Y-72214180D01*
X184039463Y-72324494D01*
X184118815Y-72421185D01*
X184215506Y-72500537D01*
X184325820Y-72559502D01*
X184445518Y-72595812D01*
X184570000Y-72608072D01*
X186270000Y-72608072D01*
X186394482Y-72595812D01*
X186514180Y-72559502D01*
X186624494Y-72500537D01*
X186721185Y-72421185D01*
X186800537Y-72324494D01*
X186859502Y-72214180D01*
X186883966Y-72133534D01*
X186959731Y-72217588D01*
X187193080Y-72391641D01*
X187455901Y-72516825D01*
X187603110Y-72561476D01*
X187833000Y-72440155D01*
X187833000Y-71247000D01*
X187813000Y-71247000D01*
X187813000Y-70993000D01*
X187833000Y-70993000D01*
X187833000Y-69799845D01*
X188087000Y-69799845D01*
X188087000Y-70993000D01*
X188107000Y-70993000D01*
X188107000Y-71247000D01*
X188087000Y-71247000D01*
X188087000Y-72440155D01*
X188316890Y-72561476D01*
X188464099Y-72516825D01*
X188726920Y-72391641D01*
X188960269Y-72217588D01*
X189155178Y-72001355D01*
X189224799Y-71884477D01*
X189259294Y-71949014D01*
X189444866Y-72175134D01*
X189670986Y-72360706D01*
X189928966Y-72498599D01*
X190208889Y-72583513D01*
X190427050Y-72605000D01*
X190572950Y-72605000D01*
X190791111Y-72583513D01*
X191071034Y-72498599D01*
X191329014Y-72360706D01*
X191555134Y-72175134D01*
X191740706Y-71949014D01*
X191878599Y-71691034D01*
X191963513Y-71411111D01*
X191992185Y-71120000D01*
X191963513Y-70828889D01*
X191878599Y-70548966D01*
X191740706Y-70290986D01*
X191555134Y-70064866D01*
X191329014Y-69879294D01*
X191071034Y-69741401D01*
X190791111Y-69656487D01*
X190572950Y-69635000D01*
X190427050Y-69635000D01*
X190208889Y-69656487D01*
X189928966Y-69741401D01*
X189670986Y-69879294D01*
X189444866Y-70064866D01*
X189259294Y-70290986D01*
X189224799Y-70355523D01*
X189155178Y-70238645D01*
X188960269Y-70022412D01*
X188726920Y-69848359D01*
X188464099Y-69723175D01*
X188316890Y-69678524D01*
X188087000Y-69799845D01*
X187833000Y-69799845D01*
X187603110Y-69678524D01*
X187455901Y-69723175D01*
X187193080Y-69848359D01*
X186959731Y-70022412D01*
X186883966Y-70106466D01*
X186859502Y-70025820D01*
X186800537Y-69915506D01*
X186721185Y-69818815D01*
X186624494Y-69739463D01*
X186514180Y-69680498D01*
X186394482Y-69644188D01*
X186270000Y-69631928D01*
X184570000Y-69631928D01*
X184445518Y-69644188D01*
X184325820Y-69680498D01*
X184215506Y-69739463D01*
X184118815Y-69818815D01*
X184039463Y-69915506D01*
X183980498Y-70025820D01*
X183944188Y-70145518D01*
X183931928Y-70270000D01*
X181498802Y-70270000D01*
X181359608Y-70100392D01*
X181141101Y-69921068D01*
X181008142Y-69850000D01*
X181141101Y-69778932D01*
X181359608Y-69599608D01*
X181538932Y-69381101D01*
X181672182Y-69131808D01*
X181754236Y-68861309D01*
X181781943Y-68580000D01*
X181754236Y-68298691D01*
X181672182Y-68028192D01*
X181538932Y-67778899D01*
X181359608Y-67560392D01*
X181141101Y-67381068D01*
X181008142Y-67310000D01*
X181141101Y-67238932D01*
X181359608Y-67059608D01*
X181538932Y-66841101D01*
X181672182Y-66591808D01*
X181754236Y-66321309D01*
X181781943Y-66040000D01*
X181754236Y-65758691D01*
X181672182Y-65488192D01*
X181538932Y-65238899D01*
X181359608Y-65020392D01*
X181141101Y-64841068D01*
X181008142Y-64770000D01*
X181141101Y-64698932D01*
X181359608Y-64519608D01*
X181538932Y-64301101D01*
X181672182Y-64051808D01*
X181754236Y-63781309D01*
X181781943Y-63500000D01*
X181754236Y-63218691D01*
X181672182Y-62948192D01*
X181538932Y-62698899D01*
X181359608Y-62480392D01*
X181141101Y-62301068D01*
X181008142Y-62230000D01*
X181141101Y-62158932D01*
X181359608Y-61979608D01*
X181538932Y-61761101D01*
X181672182Y-61511808D01*
X181754236Y-61241309D01*
X181781943Y-60960000D01*
X181754236Y-60678691D01*
X181672182Y-60408192D01*
X181538932Y-60158899D01*
X181359608Y-59940392D01*
X181141101Y-59761068D01*
X180891808Y-59627818D01*
X180621309Y-59545764D01*
X180410492Y-59525000D01*
X180269508Y-59525000D01*
X180058691Y-59545764D01*
X179788192Y-59627818D01*
X179538899Y-59761068D01*
X179320392Y-59940392D01*
X179141068Y-60158899D01*
X179007818Y-60408192D01*
X178925764Y-60678691D01*
X178898057Y-60960000D01*
X176020000Y-60960000D01*
X176020000Y-59727322D01*
X176023676Y-59689999D01*
X176020000Y-59652676D01*
X176020000Y-59652667D01*
X176009003Y-59541014D01*
X175965546Y-59397753D01*
X175894974Y-59265724D01*
X175800001Y-59149999D01*
X175771003Y-59126201D01*
X174553804Y-57909003D01*
X174530001Y-57879999D01*
X174414276Y-57785026D01*
X174282247Y-57714454D01*
X174138986Y-57670997D01*
X174027333Y-57660000D01*
X174027322Y-57660000D01*
X173990000Y-57656324D01*
X173952678Y-57660000D01*
X167677322Y-57660000D01*
X167639999Y-57656324D01*
X167602676Y-57660000D01*
X167602667Y-57660000D01*
X167491014Y-57670997D01*
X167347753Y-57714454D01*
X167215724Y-57785026D01*
X167099999Y-57879999D01*
X167076201Y-57908997D01*
X165859003Y-59126196D01*
X165829999Y-59149999D01*
X165774871Y-59217174D01*
X165735026Y-59265724D01*
X165672119Y-59383414D01*
X165664454Y-59397754D01*
X165620997Y-59541015D01*
X165610000Y-59652668D01*
X165610000Y-59652678D01*
X165606324Y-59690000D01*
X165610000Y-59727323D01*
X165610000Y-60952405D01*
X165540986Y-60989294D01*
X165314866Y-61174866D01*
X165129294Y-61400986D01*
X165098416Y-61458756D01*
X164927588Y-61229731D01*
X164711355Y-61034822D01*
X164461252Y-60885843D01*
X164186891Y-60788519D01*
X163957000Y-60909186D01*
X163957000Y-62103000D01*
X163977000Y-62103000D01*
X163977000Y-62357000D01*
X163957000Y-62357000D01*
X163957000Y-62377000D01*
X163703000Y-62377000D01*
X163703000Y-62357000D01*
X162509845Y-62357000D01*
X162388524Y-62586890D01*
X162433175Y-62734099D01*
X162558359Y-62996920D01*
X162732412Y-63230269D01*
X162948645Y-63425178D01*
X163065523Y-63494799D01*
X163000986Y-63529294D01*
X162774866Y-63714866D01*
X162589294Y-63940986D01*
X162552405Y-64010000D01*
X162050000Y-64010000D01*
X162050000Y-61873110D01*
X162388524Y-61873110D01*
X162509845Y-62103000D01*
X163703000Y-62103000D01*
X163703000Y-60909186D01*
X163473109Y-60788519D01*
X163198748Y-60885843D01*
X162948645Y-61034822D01*
X162732412Y-61229731D01*
X162558359Y-61463080D01*
X162433175Y-61725901D01*
X162388524Y-61873110D01*
X162050000Y-61873110D01*
X162050000Y-59123711D01*
X162093937Y-59079774D01*
X162207205Y-58910256D01*
X162285226Y-58721898D01*
X162325000Y-58521939D01*
X162325000Y-58318061D01*
X162285226Y-58118102D01*
X162207205Y-57929744D01*
X162093937Y-57760226D01*
X161949774Y-57616063D01*
X161780256Y-57502795D01*
X161591898Y-57424774D01*
X161391939Y-57385000D01*
X161188061Y-57385000D01*
X160988102Y-57424774D01*
X160799744Y-57502795D01*
X160630226Y-57616063D01*
X160486063Y-57760226D01*
X160372795Y-57929744D01*
X160294774Y-58118102D01*
X160255000Y-58318061D01*
X156870000Y-58318061D01*
X156870000Y-55880000D01*
X199218057Y-55880000D01*
X199245764Y-56161309D01*
X199327818Y-56431808D01*
X199461068Y-56681101D01*
X199640392Y-56899608D01*
X199858899Y-57078932D01*
X199991858Y-57150000D01*
X199858899Y-57221068D01*
X199640392Y-57400392D01*
X199461068Y-57618899D01*
X199327818Y-57868192D01*
X199245764Y-58138691D01*
X199218057Y-58420000D01*
X199245764Y-58701309D01*
X199327818Y-58971808D01*
X199461068Y-59221101D01*
X199640392Y-59439608D01*
X199858899Y-59618932D01*
X199991858Y-59690000D01*
X199858899Y-59761068D01*
X199640392Y-59940392D01*
X199461068Y-60158899D01*
X199327818Y-60408192D01*
X199245764Y-60678691D01*
X199218057Y-60960000D01*
X199245764Y-61241309D01*
X199327818Y-61511808D01*
X199461068Y-61761101D01*
X199640392Y-61979608D01*
X199858899Y-62158932D01*
X199991858Y-62230000D01*
X199858899Y-62301068D01*
X199640392Y-62480392D01*
X199461068Y-62698899D01*
X199327818Y-62948192D01*
X199245764Y-63218691D01*
X199218057Y-63500000D01*
X199245764Y-63781309D01*
X199327818Y-64051808D01*
X199461068Y-64301101D01*
X199640392Y-64519608D01*
X199858899Y-64698932D01*
X199991858Y-64770000D01*
X199858899Y-64841068D01*
X199640392Y-65020392D01*
X199461068Y-65238899D01*
X199327818Y-65488192D01*
X199245764Y-65758691D01*
X199218057Y-66040000D01*
X199245764Y-66321309D01*
X199327818Y-66591808D01*
X199461068Y-66841101D01*
X199640392Y-67059608D01*
X199858899Y-67238932D01*
X199991858Y-67310000D01*
X199858899Y-67381068D01*
X199640392Y-67560392D01*
X199461068Y-67778899D01*
X199327818Y-68028192D01*
X199245764Y-68298691D01*
X199218057Y-68580000D01*
X199245764Y-68861309D01*
X199327818Y-69131808D01*
X199461068Y-69381101D01*
X199640392Y-69599608D01*
X199858899Y-69778932D01*
X199991858Y-69850000D01*
X199858899Y-69921068D01*
X199640392Y-70100392D01*
X199461068Y-70318899D01*
X199327818Y-70568192D01*
X199245764Y-70838691D01*
X199218057Y-71120000D01*
X199245764Y-71401309D01*
X199327818Y-71671808D01*
X199461068Y-71921101D01*
X199640392Y-72139608D01*
X199858899Y-72318932D01*
X199991858Y-72390000D01*
X199858899Y-72461068D01*
X199640392Y-72640392D01*
X199461068Y-72858899D01*
X199327818Y-73108192D01*
X199245764Y-73378691D01*
X199218057Y-73660000D01*
X199245764Y-73941309D01*
X199327818Y-74211808D01*
X199461068Y-74461101D01*
X199640392Y-74679608D01*
X199858899Y-74858932D01*
X200108192Y-74992182D01*
X200378691Y-75074236D01*
X200589508Y-75095000D01*
X200730492Y-75095000D01*
X200941309Y-75074236D01*
X201211808Y-74992182D01*
X201461101Y-74858932D01*
X201679608Y-74679608D01*
X201858932Y-74461101D01*
X201859520Y-74460000D01*
X211921928Y-74460000D01*
X211934188Y-74584482D01*
X211970498Y-74704180D01*
X212029463Y-74814494D01*
X212108815Y-74911185D01*
X212205506Y-74990537D01*
X212315820Y-75049502D01*
X212435518Y-75085812D01*
X212560000Y-75098072D01*
X213074250Y-75095000D01*
X213233000Y-74936250D01*
X213233000Y-73787000D01*
X213487000Y-73787000D01*
X213487000Y-74936250D01*
X213645750Y-75095000D01*
X214160000Y-75098072D01*
X214284482Y-75085812D01*
X214404180Y-75049502D01*
X214514494Y-74990537D01*
X214611185Y-74911185D01*
X214690537Y-74814494D01*
X214749502Y-74704180D01*
X214785812Y-74584482D01*
X214798072Y-74460000D01*
X214795000Y-73945750D01*
X214636250Y-73787000D01*
X213487000Y-73787000D01*
X213233000Y-73787000D01*
X212083750Y-73787000D01*
X211925000Y-73945750D01*
X211921928Y-74460000D01*
X201859520Y-74460000D01*
X201992182Y-74211808D01*
X202074236Y-73941309D01*
X202101943Y-73660000D01*
X202074236Y-73378691D01*
X201992182Y-73108192D01*
X201858932Y-72858899D01*
X201679608Y-72640392D01*
X201461101Y-72461068D01*
X201328142Y-72390000D01*
X201461101Y-72318932D01*
X201679608Y-72139608D01*
X201858932Y-71921101D01*
X201992182Y-71671808D01*
X202074236Y-71401309D01*
X202101943Y-71120000D01*
X202074236Y-70838691D01*
X201992182Y-70568192D01*
X201858932Y-70318899D01*
X201679608Y-70100392D01*
X201461101Y-69921068D01*
X201328142Y-69850000D01*
X201461101Y-69778932D01*
X201679608Y-69599608D01*
X201858932Y-69381101D01*
X201992182Y-69131808D01*
X202074236Y-68861309D01*
X202101943Y-68580000D01*
X202074236Y-68298691D01*
X201992182Y-68028192D01*
X201858932Y-67778899D01*
X201679608Y-67560392D01*
X201461101Y-67381068D01*
X201328142Y-67310000D01*
X201461101Y-67238932D01*
X201679608Y-67059608D01*
X201858932Y-66841101D01*
X201880901Y-66800000D01*
X207576289Y-66800000D01*
X207620226Y-66843937D01*
X207789744Y-66957205D01*
X207978102Y-67035226D01*
X208178061Y-67075000D01*
X208381939Y-67075000D01*
X208581898Y-67035226D01*
X208770256Y-66957205D01*
X208939774Y-66843937D01*
X209083937Y-66699774D01*
X209197205Y-66530256D01*
X209275226Y-66341898D01*
X209315000Y-66141939D01*
X209315000Y-65938061D01*
X209275226Y-65738102D01*
X209197205Y-65549744D01*
X209083937Y-65380226D01*
X208939774Y-65236063D01*
X208770256Y-65122795D01*
X208581898Y-65044774D01*
X208381939Y-65005000D01*
X208178061Y-65005000D01*
X207978102Y-65044774D01*
X207789744Y-65122795D01*
X207620226Y-65236063D01*
X207576289Y-65280000D01*
X201880901Y-65280000D01*
X201858932Y-65238899D01*
X201679608Y-65020392D01*
X201461101Y-64841068D01*
X201328142Y-64770000D01*
X201461101Y-64698932D01*
X201679608Y-64519608D01*
X201858932Y-64301101D01*
X201880901Y-64260000D01*
X206306289Y-64260000D01*
X206350226Y-64303937D01*
X206519744Y-64417205D01*
X206708102Y-64495226D01*
X206908061Y-64535000D01*
X207111939Y-64535000D01*
X207311898Y-64495226D01*
X207500256Y-64417205D01*
X207669774Y-64303937D01*
X207813937Y-64159774D01*
X207927205Y-63990256D01*
X208005226Y-63801898D01*
X208045000Y-63601939D01*
X208045000Y-63398061D01*
X208005226Y-63198102D01*
X207927205Y-63009744D01*
X207813937Y-62840226D01*
X207669774Y-62696063D01*
X207500256Y-62582795D01*
X207311898Y-62504774D01*
X207111939Y-62465000D01*
X206908061Y-62465000D01*
X206708102Y-62504774D01*
X206519744Y-62582795D01*
X206350226Y-62696063D01*
X206306289Y-62740000D01*
X201880901Y-62740000D01*
X201858932Y-62698899D01*
X201679608Y-62480392D01*
X201461101Y-62301068D01*
X201328142Y-62230000D01*
X201461101Y-62158932D01*
X201679608Y-61979608D01*
X201858932Y-61761101D01*
X201880901Y-61720000D01*
X205036289Y-61720000D01*
X205080226Y-61763937D01*
X205249744Y-61877205D01*
X205438102Y-61955226D01*
X205638061Y-61995000D01*
X205841939Y-61995000D01*
X206041898Y-61955226D01*
X206230256Y-61877205D01*
X206399774Y-61763937D01*
X206543937Y-61619774D01*
X206657205Y-61450256D01*
X206735226Y-61261898D01*
X206775000Y-61061939D01*
X206775000Y-60960000D01*
X211918057Y-60960000D01*
X211945764Y-61241309D01*
X212027818Y-61511808D01*
X212161068Y-61761101D01*
X212340392Y-61979608D01*
X212558899Y-62158932D01*
X212691858Y-62230000D01*
X212558899Y-62301068D01*
X212340392Y-62480392D01*
X212161068Y-62698899D01*
X212027818Y-62948192D01*
X211945764Y-63218691D01*
X211918057Y-63500000D01*
X211945764Y-63781309D01*
X212027818Y-64051808D01*
X212161068Y-64301101D01*
X212340392Y-64519608D01*
X212558899Y-64698932D01*
X212691858Y-64770000D01*
X212558899Y-64841068D01*
X212340392Y-65020392D01*
X212161068Y-65238899D01*
X212027818Y-65488192D01*
X211945764Y-65758691D01*
X211918057Y-66040000D01*
X211945764Y-66321309D01*
X212027818Y-66591808D01*
X212161068Y-66841101D01*
X212340392Y-67059608D01*
X212558899Y-67238932D01*
X212691858Y-67310000D01*
X212558899Y-67381068D01*
X212340392Y-67560392D01*
X212161068Y-67778899D01*
X212027818Y-68028192D01*
X211945764Y-68298691D01*
X211918057Y-68580000D01*
X211945764Y-68861309D01*
X212027818Y-69131808D01*
X212161068Y-69381101D01*
X212340392Y-69599608D01*
X212558899Y-69778932D01*
X212691858Y-69850000D01*
X212558899Y-69921068D01*
X212340392Y-70100392D01*
X212161068Y-70318899D01*
X212027818Y-70568192D01*
X211945764Y-70838691D01*
X211918057Y-71120000D01*
X211945764Y-71401309D01*
X212027818Y-71671808D01*
X212161068Y-71921101D01*
X212340392Y-72139608D01*
X212453482Y-72232419D01*
X212435518Y-72234188D01*
X212315820Y-72270498D01*
X212205506Y-72329463D01*
X212108815Y-72408815D01*
X212029463Y-72505506D01*
X211970498Y-72615820D01*
X211934188Y-72735518D01*
X211921928Y-72860000D01*
X211925000Y-73374250D01*
X212083750Y-73533000D01*
X213233000Y-73533000D01*
X213233000Y-73513000D01*
X213487000Y-73513000D01*
X213487000Y-73533000D01*
X214636250Y-73533000D01*
X214795000Y-73374250D01*
X214798072Y-72860000D01*
X214785812Y-72735518D01*
X214749502Y-72615820D01*
X214690537Y-72505506D01*
X214611185Y-72408815D01*
X214588259Y-72390000D01*
X230917815Y-72390000D01*
X230946487Y-72681111D01*
X231031401Y-72961034D01*
X231169294Y-73219014D01*
X231354866Y-73445134D01*
X231580986Y-73630706D01*
X231635791Y-73660000D01*
X231580986Y-73689294D01*
X231354866Y-73874866D01*
X231169294Y-74100986D01*
X231031401Y-74358966D01*
X230946487Y-74638889D01*
X230917815Y-74930000D01*
X230946487Y-75221111D01*
X231031401Y-75501034D01*
X231169294Y-75759014D01*
X231354866Y-75985134D01*
X231580986Y-76170706D01*
X231635791Y-76200000D01*
X231580986Y-76229294D01*
X231354866Y-76414866D01*
X231169294Y-76640986D01*
X231031401Y-76898966D01*
X230946487Y-77178889D01*
X230917815Y-77470000D01*
X230946487Y-77761111D01*
X231031401Y-78041034D01*
X231169294Y-78299014D01*
X231354866Y-78525134D01*
X231580986Y-78710706D01*
X231635791Y-78740000D01*
X231580986Y-78769294D01*
X231354866Y-78954866D01*
X231169294Y-79180986D01*
X231031401Y-79438966D01*
X230946487Y-79718889D01*
X230917815Y-80010000D01*
X230946487Y-80301111D01*
X231031401Y-80581034D01*
X231169294Y-80839014D01*
X231354866Y-81065134D01*
X231580986Y-81250706D01*
X231635791Y-81280000D01*
X231580986Y-81309294D01*
X231354866Y-81494866D01*
X231169294Y-81720986D01*
X231031401Y-81978966D01*
X230946487Y-82258889D01*
X230917815Y-82550000D01*
X230946487Y-82841111D01*
X231031401Y-83121034D01*
X231169294Y-83379014D01*
X231354866Y-83605134D01*
X231580986Y-83790706D01*
X231635791Y-83820000D01*
X231580986Y-83849294D01*
X231354866Y-84034866D01*
X231169294Y-84260986D01*
X231031401Y-84518966D01*
X230946487Y-84798889D01*
X230917815Y-85090000D01*
X230946487Y-85381111D01*
X231031401Y-85661034D01*
X231169294Y-85919014D01*
X231354866Y-86145134D01*
X231580986Y-86330706D01*
X231635791Y-86360000D01*
X231580986Y-86389294D01*
X231354866Y-86574866D01*
X231169294Y-86800986D01*
X231031401Y-87058966D01*
X230946487Y-87338889D01*
X230917815Y-87630000D01*
X230946487Y-87921111D01*
X231031401Y-88201034D01*
X231169294Y-88459014D01*
X231354866Y-88685134D01*
X231580986Y-88870706D01*
X231635791Y-88900000D01*
X231580986Y-88929294D01*
X231354866Y-89114866D01*
X231169294Y-89340986D01*
X231031401Y-89598966D01*
X230946487Y-89878889D01*
X230917815Y-90170000D01*
X230946487Y-90461111D01*
X231031401Y-90741034D01*
X231169294Y-90999014D01*
X231354866Y-91225134D01*
X231580986Y-91410706D01*
X231838966Y-91548599D01*
X232118889Y-91633513D01*
X232337050Y-91655000D01*
X232482950Y-91655000D01*
X232701111Y-91633513D01*
X232981034Y-91548599D01*
X233239014Y-91410706D01*
X233465134Y-91225134D01*
X233650706Y-90999014D01*
X233788599Y-90741034D01*
X233873513Y-90461111D01*
X233902185Y-90170000D01*
X233873513Y-89878889D01*
X233788599Y-89598966D01*
X233650706Y-89340986D01*
X233465134Y-89114866D01*
X233239014Y-88929294D01*
X233184209Y-88900000D01*
X233239014Y-88870706D01*
X233465134Y-88685134D01*
X233650706Y-88459014D01*
X233788599Y-88201034D01*
X233873513Y-87921111D01*
X233902185Y-87630000D01*
X233873513Y-87338889D01*
X233788599Y-87058966D01*
X233650706Y-86800986D01*
X233465134Y-86574866D01*
X233239014Y-86389294D01*
X233184209Y-86360000D01*
X233239014Y-86330706D01*
X233465134Y-86145134D01*
X233650706Y-85919014D01*
X233788599Y-85661034D01*
X233873513Y-85381111D01*
X233902185Y-85090000D01*
X233873513Y-84798889D01*
X233788599Y-84518966D01*
X233650706Y-84260986D01*
X233465134Y-84034866D01*
X233239014Y-83849294D01*
X233184209Y-83820000D01*
X233239014Y-83790706D01*
X233465134Y-83605134D01*
X233650706Y-83379014D01*
X233788599Y-83121034D01*
X233873513Y-82841111D01*
X233902185Y-82550000D01*
X233873513Y-82258889D01*
X233788599Y-81978966D01*
X233650706Y-81720986D01*
X233465134Y-81494866D01*
X233239014Y-81309294D01*
X233184209Y-81280000D01*
X233239014Y-81250706D01*
X233465134Y-81065134D01*
X233650706Y-80839014D01*
X233788599Y-80581034D01*
X233873513Y-80301111D01*
X233902185Y-80010000D01*
X233873513Y-79718889D01*
X233788599Y-79438966D01*
X233650706Y-79180986D01*
X233465134Y-78954866D01*
X233239014Y-78769294D01*
X233184209Y-78740000D01*
X233239014Y-78710706D01*
X233465134Y-78525134D01*
X233650706Y-78299014D01*
X233788599Y-78041034D01*
X233873513Y-77761111D01*
X233902185Y-77470000D01*
X233873513Y-77178889D01*
X233788599Y-76898966D01*
X233650706Y-76640986D01*
X233465134Y-76414866D01*
X233239014Y-76229294D01*
X233184209Y-76200000D01*
X233239014Y-76170706D01*
X233465134Y-75985134D01*
X233650706Y-75759014D01*
X233788599Y-75501034D01*
X233873513Y-75221111D01*
X233902185Y-74930000D01*
X233873513Y-74638889D01*
X233788599Y-74358966D01*
X233650706Y-74100986D01*
X233465134Y-73874866D01*
X233239014Y-73689294D01*
X233184209Y-73660000D01*
X233239014Y-73630706D01*
X233465134Y-73445134D01*
X233650706Y-73219014D01*
X233788599Y-72961034D01*
X233873513Y-72681111D01*
X233902185Y-72390000D01*
X233873513Y-72098889D01*
X233788599Y-71818966D01*
X233650706Y-71560986D01*
X233465134Y-71334866D01*
X233239014Y-71149294D01*
X233174477Y-71114799D01*
X233291355Y-71045178D01*
X233507588Y-70850269D01*
X233681641Y-70616920D01*
X233806825Y-70354099D01*
X233851476Y-70206890D01*
X233730155Y-69977000D01*
X232537000Y-69977000D01*
X232537000Y-69997000D01*
X232283000Y-69997000D01*
X232283000Y-69977000D01*
X231089845Y-69977000D01*
X230968524Y-70206890D01*
X231013175Y-70354099D01*
X231138359Y-70616920D01*
X231312412Y-70850269D01*
X231528645Y-71045178D01*
X231645523Y-71114799D01*
X231580986Y-71149294D01*
X231354866Y-71334866D01*
X231169294Y-71560986D01*
X231031401Y-71818966D01*
X230946487Y-72098889D01*
X230917815Y-72390000D01*
X214588259Y-72390000D01*
X214514494Y-72329463D01*
X214404180Y-72270498D01*
X214284482Y-72234188D01*
X214266518Y-72232419D01*
X214379608Y-72139608D01*
X214558932Y-71921101D01*
X214692182Y-71671808D01*
X214774236Y-71401309D01*
X214801943Y-71120000D01*
X214774236Y-70838691D01*
X214692182Y-70568192D01*
X214558932Y-70318899D01*
X214379608Y-70100392D01*
X214161101Y-69921068D01*
X214028142Y-69850000D01*
X214161101Y-69778932D01*
X214379608Y-69599608D01*
X214558932Y-69381101D01*
X214692182Y-69131808D01*
X214774236Y-68861309D01*
X214801943Y-68580000D01*
X214774236Y-68298691D01*
X214692182Y-68028192D01*
X214558932Y-67778899D01*
X214379608Y-67560392D01*
X214161101Y-67381068D01*
X214028142Y-67310000D01*
X214161101Y-67238932D01*
X214379608Y-67059608D01*
X214558932Y-66841101D01*
X214692182Y-66591808D01*
X214732165Y-66460000D01*
X230921928Y-66460000D01*
X230921928Y-68160000D01*
X230934188Y-68284482D01*
X230970498Y-68404180D01*
X231029463Y-68514494D01*
X231108815Y-68611185D01*
X231205506Y-68690537D01*
X231315820Y-68749502D01*
X231396466Y-68773966D01*
X231312412Y-68849731D01*
X231138359Y-69083080D01*
X231013175Y-69345901D01*
X230968524Y-69493110D01*
X231089845Y-69723000D01*
X232283000Y-69723000D01*
X232283000Y-69703000D01*
X232537000Y-69703000D01*
X232537000Y-69723000D01*
X233730155Y-69723000D01*
X233851476Y-69493110D01*
X233806825Y-69345901D01*
X233681641Y-69083080D01*
X233507588Y-68849731D01*
X233423534Y-68773966D01*
X233504180Y-68749502D01*
X233614494Y-68690537D01*
X233711185Y-68611185D01*
X233790537Y-68514494D01*
X233849502Y-68404180D01*
X233885812Y-68284482D01*
X233898072Y-68160000D01*
X233898072Y-66460000D01*
X233885812Y-66335518D01*
X233849502Y-66215820D01*
X233790537Y-66105506D01*
X233711185Y-66008815D01*
X233614494Y-65929463D01*
X233504180Y-65870498D01*
X233384482Y-65834188D01*
X233260000Y-65821928D01*
X231560000Y-65821928D01*
X231435518Y-65834188D01*
X231315820Y-65870498D01*
X231205506Y-65929463D01*
X231108815Y-66008815D01*
X231029463Y-66105506D01*
X230970498Y-66215820D01*
X230934188Y-66335518D01*
X230921928Y-66460000D01*
X214732165Y-66460000D01*
X214774236Y-66321309D01*
X214801943Y-66040000D01*
X214774236Y-65758691D01*
X214692182Y-65488192D01*
X214558932Y-65238899D01*
X214379608Y-65020392D01*
X214161101Y-64841068D01*
X214028142Y-64770000D01*
X214161101Y-64698932D01*
X214379608Y-64519608D01*
X214558932Y-64301101D01*
X214692182Y-64051808D01*
X214774236Y-63781309D01*
X214801943Y-63500000D01*
X214774236Y-63218691D01*
X214692182Y-62948192D01*
X214558932Y-62698899D01*
X214379608Y-62480392D01*
X214161101Y-62301068D01*
X214028142Y-62230000D01*
X214161101Y-62158932D01*
X214379608Y-61979608D01*
X214467343Y-61872702D01*
X220166903Y-61872702D01*
X220238486Y-62116671D01*
X220493996Y-62237571D01*
X220768184Y-62306300D01*
X221050512Y-62320217D01*
X221330130Y-62278787D01*
X221596292Y-62183603D01*
X221721514Y-62116671D01*
X221793097Y-61872702D01*
X220980000Y-61059605D01*
X220166903Y-61872702D01*
X214467343Y-61872702D01*
X214558932Y-61761101D01*
X214692182Y-61511808D01*
X214774236Y-61241309D01*
X214801943Y-60960000D01*
X214801009Y-60950512D01*
X219539783Y-60950512D01*
X219581213Y-61230130D01*
X219676397Y-61496292D01*
X219743329Y-61621514D01*
X219987298Y-61693097D01*
X220800395Y-60880000D01*
X221159605Y-60880000D01*
X221972702Y-61693097D01*
X222216671Y-61621514D01*
X222337571Y-61366004D01*
X222406300Y-61091816D01*
X222420217Y-60809488D01*
X222378787Y-60529870D01*
X222283603Y-60263708D01*
X222216671Y-60138486D01*
X221972702Y-60066903D01*
X221159605Y-60880000D01*
X220800395Y-60880000D01*
X219987298Y-60066903D01*
X219743329Y-60138486D01*
X219622429Y-60393996D01*
X219553700Y-60668184D01*
X219539783Y-60950512D01*
X214801009Y-60950512D01*
X214774236Y-60678691D01*
X214692182Y-60408192D01*
X214558932Y-60158899D01*
X214379608Y-59940392D01*
X214314913Y-59887298D01*
X220166903Y-59887298D01*
X220980000Y-60700395D01*
X221793097Y-59887298D01*
X221721514Y-59643329D01*
X221466004Y-59522429D01*
X221191816Y-59453700D01*
X220909488Y-59439783D01*
X220629870Y-59481213D01*
X220363708Y-59576397D01*
X220238486Y-59643329D01*
X220166903Y-59887298D01*
X214314913Y-59887298D01*
X214161101Y-59761068D01*
X214023318Y-59687421D01*
X214215131Y-59572385D01*
X214423519Y-59383414D01*
X214591037Y-59157420D01*
X214711246Y-58903087D01*
X214751904Y-58769039D01*
X214629915Y-58547000D01*
X213487000Y-58547000D01*
X213487000Y-58567000D01*
X213233000Y-58567000D01*
X213233000Y-58547000D01*
X212090085Y-58547000D01*
X211968096Y-58769039D01*
X212008754Y-58903087D01*
X212128963Y-59157420D01*
X212296481Y-59383414D01*
X212504869Y-59572385D01*
X212696682Y-59687421D01*
X212558899Y-59761068D01*
X212340392Y-59940392D01*
X212161068Y-60158899D01*
X212027818Y-60408192D01*
X211945764Y-60678691D01*
X211918057Y-60960000D01*
X206775000Y-60960000D01*
X206775000Y-60858061D01*
X206735226Y-60658102D01*
X206657205Y-60469744D01*
X206543937Y-60300226D01*
X206399774Y-60156063D01*
X206230256Y-60042795D01*
X206041898Y-59964774D01*
X205841939Y-59925000D01*
X205638061Y-59925000D01*
X205438102Y-59964774D01*
X205249744Y-60042795D01*
X205080226Y-60156063D01*
X205036289Y-60200000D01*
X201880901Y-60200000D01*
X201858932Y-60158899D01*
X201679608Y-59940392D01*
X201461101Y-59761068D01*
X201328142Y-59690000D01*
X201461101Y-59618932D01*
X201679608Y-59439608D01*
X201858932Y-59221101D01*
X201880901Y-59180000D01*
X203766289Y-59180000D01*
X203810226Y-59223937D01*
X203979744Y-59337205D01*
X204168102Y-59415226D01*
X204368061Y-59455000D01*
X204571939Y-59455000D01*
X204771898Y-59415226D01*
X204960256Y-59337205D01*
X205129774Y-59223937D01*
X205273937Y-59079774D01*
X205387205Y-58910256D01*
X205465226Y-58721898D01*
X205505000Y-58521939D01*
X205505000Y-58318061D01*
X205465226Y-58118102D01*
X205387205Y-57929744D01*
X205273937Y-57760226D01*
X205129774Y-57616063D01*
X204960256Y-57502795D01*
X204771898Y-57424774D01*
X204571939Y-57385000D01*
X204368061Y-57385000D01*
X204168102Y-57424774D01*
X203979744Y-57502795D01*
X203810226Y-57616063D01*
X203766289Y-57660000D01*
X201880901Y-57660000D01*
X201858932Y-57618899D01*
X201679608Y-57400392D01*
X201461101Y-57221068D01*
X201328142Y-57150000D01*
X201461101Y-57078932D01*
X201679608Y-56899608D01*
X201858932Y-56681101D01*
X201992182Y-56431808D01*
X202074236Y-56161309D01*
X202101943Y-55880000D01*
X211918057Y-55880000D01*
X211945764Y-56161309D01*
X212027818Y-56431808D01*
X212161068Y-56681101D01*
X212340392Y-56899608D01*
X212558899Y-57078932D01*
X212696682Y-57152579D01*
X212504869Y-57267615D01*
X212296481Y-57456586D01*
X212128963Y-57682580D01*
X212008754Y-57936913D01*
X211968096Y-58070961D01*
X212090085Y-58293000D01*
X213233000Y-58293000D01*
X213233000Y-58273000D01*
X213487000Y-58273000D01*
X213487000Y-58293000D01*
X214629915Y-58293000D01*
X214751904Y-58070961D01*
X214711246Y-57936913D01*
X214591037Y-57682580D01*
X214423519Y-57456586D01*
X214215131Y-57267615D01*
X214023318Y-57152579D01*
X214161101Y-57078932D01*
X214379608Y-56899608D01*
X214558932Y-56681101D01*
X214692182Y-56431808D01*
X214774236Y-56161309D01*
X214801943Y-55880000D01*
X214774236Y-55598691D01*
X214692182Y-55328192D01*
X214559521Y-55080000D01*
X219541928Y-55080000D01*
X219541928Y-56680000D01*
X219554188Y-56804482D01*
X219590498Y-56924180D01*
X219649463Y-57034494D01*
X219728815Y-57131185D01*
X219825506Y-57210537D01*
X219935820Y-57269502D01*
X220055518Y-57305812D01*
X220180000Y-57318072D01*
X221780000Y-57318072D01*
X221904482Y-57305812D01*
X222024180Y-57269502D01*
X222134494Y-57210537D01*
X222231185Y-57131185D01*
X222310537Y-57034494D01*
X222369502Y-56924180D01*
X222405812Y-56804482D01*
X222418072Y-56680000D01*
X222418072Y-55080000D01*
X222405812Y-54955518D01*
X222369502Y-54835820D01*
X222310537Y-54725506D01*
X222231185Y-54628815D01*
X222134494Y-54549463D01*
X222024180Y-54490498D01*
X221904482Y-54454188D01*
X221780000Y-54441928D01*
X220180000Y-54441928D01*
X220055518Y-54454188D01*
X219935820Y-54490498D01*
X219825506Y-54549463D01*
X219728815Y-54628815D01*
X219649463Y-54725506D01*
X219590498Y-54835820D01*
X219554188Y-54955518D01*
X219541928Y-55080000D01*
X214559521Y-55080000D01*
X214558932Y-55078899D01*
X214379608Y-54860392D01*
X214161101Y-54681068D01*
X213911808Y-54547818D01*
X213641309Y-54465764D01*
X213430492Y-54445000D01*
X213289508Y-54445000D01*
X213078691Y-54465764D01*
X212808192Y-54547818D01*
X212558899Y-54681068D01*
X212340392Y-54860392D01*
X212161068Y-55078899D01*
X212027818Y-55328192D01*
X211945764Y-55598691D01*
X211918057Y-55880000D01*
X202101943Y-55880000D01*
X202074236Y-55598691D01*
X201992182Y-55328192D01*
X201858932Y-55078899D01*
X201679608Y-54860392D01*
X201461101Y-54681068D01*
X201211808Y-54547818D01*
X200941309Y-54465764D01*
X200730492Y-54445000D01*
X200589508Y-54445000D01*
X200378691Y-54465764D01*
X200108192Y-54547818D01*
X199858899Y-54681068D01*
X199640392Y-54860392D01*
X199461068Y-55078899D01*
X199327818Y-55328192D01*
X199245764Y-55598691D01*
X199218057Y-55880000D01*
X156870000Y-55880000D01*
X156870000Y-54859606D01*
X157729606Y-54000000D01*
X233430394Y-54000000D01*
X234290000Y-54859606D01*
M02*
