M48
; DRILL file {KiCad (5.1.2)-1} date 23.05.2019 00:04:18
; FORMAT={2:4/ absolute / inch / suppress leading zeros}
; #@! TF.CreationDate,2019-05-23T00:04:18+02:00
; #@! TF.GenerationSoftware,Kicad,Pcbnew,(5.1.2)-1
; #@! TF.FileFunction,Plated,1,2,PTH
FMAT,2
INCH,TZ
T1C0.0157
T2C0.0315
T3C0.0394
T4C0.1181
%
G90
G05
T1
X63000Y-24500
X63500Y-23000
X63500Y-38000
X64500Y-29000
X65000Y-30500
X65500Y-38000
X69000Y-24500
X69000Y-30000
X69000Y-35500
X69500Y-36000
X70000Y-36500
X70000Y-39500
X71500Y-38000
X72000Y-39000
X72500Y-37500
X73500Y-37000
X73500Y-40000
X76500Y-32000
X76500Y-34500
X77000Y-39000
X80500Y-23000
X81000Y-24000
X81500Y-25000
X82000Y-26000
X84500Y-30000
T2
X87000Y-22000
X87000Y-23969
X79000Y-22000
X79000Y-23000
X79000Y-24000
X79000Y-25000
X79000Y-26000
X79000Y-27000
X79000Y-28000
X79000Y-29000
X84000Y-22000
X84000Y-23000
X84000Y-24000
X84000Y-25000
X84000Y-26000
X84000Y-27000
X84000Y-28000
X84000Y-29000
X87000Y-31500
X87000Y-33469
X79000Y-31500
X79000Y-32500
X79000Y-33500
X79000Y-34500
X79000Y-35500
X79000Y-36500
X79000Y-37500
X79000Y-38500
X84000Y-31500
X84000Y-32500
X84000Y-33500
X84000Y-34500
X84000Y-35500
X84000Y-36500
X84000Y-37500
X84000Y-38500
X68000Y-24000
X68000Y-25000
X68000Y-26000
X68000Y-27000
X68000Y-28000
X68000Y-29000
X68000Y-30000
X68000Y-31000
X68000Y-32000
X68000Y-33000
X68000Y-34000
X68000Y-35000
X68000Y-36000
X68000Y-37000
X71000Y-24000
X71000Y-25000
X71000Y-26000
X71000Y-27000
X71000Y-28000
X71000Y-29000
X71000Y-30000
X71000Y-31000
X71000Y-32000
X71000Y-33000
X71000Y-34000
X71000Y-35000
X71000Y-36000
X71000Y-37000
T3
X64500Y-24500
X64500Y-25500
X64500Y-26500
X65500Y-24500
X65500Y-25500
X65500Y-26500
X91500Y-26500
X91500Y-27500
X91500Y-28500
X91500Y-29500
X91500Y-30500
X91500Y-31500
X91500Y-32500
X91500Y-33500
X91500Y-34500
X91500Y-35500
X73000Y-28000
X74000Y-28000
X75000Y-28000
X81000Y-40000
X82000Y-40000
X68500Y-42000
X69500Y-42000
X70500Y-42000
X71500Y-42000
X64000Y-42000
X65000Y-42000
T4
X91000Y-42000
X77500Y-42000
T0
M30
