G04 #@! TF.GenerationSoftware,KiCad,Pcbnew,(5.1.2)-1*
G04 #@! TF.CreationDate,2019-05-23T00:03:13+02:00*
G04 #@! TF.ProjectId,DualStepperI2C_PCB_2,4475616c-5374-4657-9070-65724932435f,rev?*
G04 #@! TF.SameCoordinates,Original*
G04 #@! TF.FileFunction,Legend,Top*
G04 #@! TF.FilePolarity,Positive*
%FSLAX46Y46*%
G04 Gerber Fmt 4.6, Leading zero omitted, Abs format (unit mm)*
G04 Created by KiCad (PCBNEW (5.1.2)-1) date 2019-05-23 00:03:13*
%MOMM*%
%LPD*%
G04 APERTURE LIST*
%ADD10C,0.120000*%
%ADD11C,0.150000*%
G04 APERTURE END LIST*
D10*
X199260000Y-99190000D02*
X212090000Y-99190000D01*
X199260000Y-78610000D02*
X199260000Y-99190000D01*
X214760000Y-78610000D02*
X199260000Y-78610000D01*
X214760000Y-96520000D02*
X214760000Y-78610000D01*
X212090000Y-96520000D02*
X214760000Y-96520000D01*
X212090000Y-99190000D02*
X212090000Y-96520000D01*
X214760000Y-99190000D02*
X214760000Y-97790000D01*
X213360000Y-99190000D02*
X214760000Y-99190000D01*
X212090000Y-96520000D02*
X212090000Y-78610000D01*
X201930000Y-99190000D02*
X201930000Y-78610000D01*
X175001422Y-103580000D02*
X175518578Y-103580000D01*
X175001422Y-102160000D02*
X175518578Y-102160000D01*
X168200000Y-77211422D02*
X168200000Y-77728578D01*
X169620000Y-77211422D02*
X169620000Y-77728578D01*
X163571422Y-81990000D02*
X164088578Y-81990000D01*
X163571422Y-80570000D02*
X164088578Y-80570000D01*
X163571422Y-85800000D02*
X164088578Y-85800000D01*
X163571422Y-84380000D02*
X164088578Y-84380000D01*
X163571422Y-102310000D02*
X164088578Y-102310000D01*
X163571422Y-100890000D02*
X164088578Y-100890000D01*
X184090000Y-72450000D02*
X184090000Y-71120000D01*
X185420000Y-72450000D02*
X184090000Y-72450000D01*
X186690000Y-72450000D02*
X186690000Y-69790000D01*
X186690000Y-69790000D02*
X191830000Y-69790000D01*
X186690000Y-72450000D02*
X191830000Y-72450000D01*
X191830000Y-72450000D02*
X191830000Y-69790000D01*
X173880000Y-95310000D02*
X175530000Y-95310000D01*
X173880000Y-59630000D02*
X173880000Y-95310000D01*
X179180000Y-59630000D02*
X173880000Y-59630000D01*
X179180000Y-95310000D02*
X179180000Y-59630000D01*
X177530000Y-95310000D02*
X179180000Y-95310000D01*
X175530000Y-95310000D02*
G75*
G02X177530000Y-95310000I1000000J0D01*
G01*
X162220000Y-94350000D02*
X162220000Y-96800000D01*
X165440000Y-96150000D02*
X165440000Y-94350000D01*
X158040000Y-65781422D02*
X158040000Y-66298578D01*
X159460000Y-65781422D02*
X159460000Y-66298578D01*
X166628578Y-89460000D02*
X166111422Y-89460000D01*
X166628578Y-90880000D02*
X166111422Y-90880000D01*
X204410000Y-102930000D02*
X204410000Y-101600000D01*
X205740000Y-102930000D02*
X204410000Y-102930000D01*
X207010000Y-102930000D02*
X207010000Y-100270000D01*
X207010000Y-100270000D02*
X209610000Y-100270000D01*
X207010000Y-102930000D02*
X209610000Y-102930000D01*
X209610000Y-102930000D02*
X209610000Y-100270000D01*
X167700000Y-68640000D02*
X166370000Y-68640000D01*
X167700000Y-67310000D02*
X167700000Y-68640000D01*
X165100000Y-68640000D02*
X162500000Y-68640000D01*
X165100000Y-66040000D02*
X165100000Y-68640000D01*
X167700000Y-66040000D02*
X165100000Y-66040000D01*
X162500000Y-68640000D02*
X162500000Y-60900000D01*
X167700000Y-66040000D02*
X167700000Y-60900000D01*
X167700000Y-60900000D02*
X162500000Y-60900000D01*
X231080000Y-65980000D02*
X232410000Y-65980000D01*
X231080000Y-67310000D02*
X231080000Y-65980000D01*
X231080000Y-68580000D02*
X233740000Y-68580000D01*
X233740000Y-68580000D02*
X233740000Y-91500000D01*
X231080000Y-68580000D02*
X231080000Y-91500000D01*
X231080000Y-91500000D02*
X233740000Y-91500000D01*
X182940000Y-105350000D02*
X182940000Y-106680000D01*
X181610000Y-105350000D02*
X182940000Y-105350000D01*
X180340000Y-105350000D02*
X180340000Y-108010000D01*
X180340000Y-108010000D02*
X172660000Y-108010000D01*
X180340000Y-105350000D02*
X172660000Y-105350000D01*
X172660000Y-105350000D02*
X172660000Y-108010000D01*
X166430000Y-105350000D02*
X166430000Y-106680000D01*
X165100000Y-105350000D02*
X166430000Y-105350000D01*
X163830000Y-105350000D02*
X163830000Y-108010000D01*
X163830000Y-108010000D02*
X161230000Y-108010000D01*
X163830000Y-105350000D02*
X161230000Y-105350000D01*
X161230000Y-105350000D02*
X161230000Y-108010000D01*
X161548578Y-89460000D02*
X161031422Y-89460000D01*
X161548578Y-90880000D02*
X161031422Y-90880000D01*
X223695000Y-78500302D02*
X222895000Y-78500302D01*
X223295000Y-78100302D02*
X223295000Y-78900302D01*
X221513000Y-86591000D02*
X220447000Y-86591000D01*
X221748000Y-86551000D02*
X220212000Y-86551000D01*
X221928000Y-86511000D02*
X220032000Y-86511000D01*
X222078000Y-86471000D02*
X219882000Y-86471000D01*
X222209000Y-86431000D02*
X219751000Y-86431000D01*
X222326000Y-86391000D02*
X219634000Y-86391000D01*
X222433000Y-86351000D02*
X219527000Y-86351000D01*
X222532000Y-86311000D02*
X219428000Y-86311000D01*
X222625000Y-86271000D02*
X219335000Y-86271000D01*
X222711000Y-86231000D02*
X219249000Y-86231000D01*
X222793000Y-86191000D02*
X219167000Y-86191000D01*
X222870000Y-86151000D02*
X219090000Y-86151000D01*
X222944000Y-86111000D02*
X219016000Y-86111000D01*
X223014000Y-86071000D02*
X218946000Y-86071000D01*
X219940000Y-86031000D02*
X218878000Y-86031000D01*
X223082000Y-86031000D02*
X222020000Y-86031000D01*
X219940000Y-85991000D02*
X218814000Y-85991000D01*
X223146000Y-85991000D02*
X222020000Y-85991000D01*
X219940000Y-85951000D02*
X218752000Y-85951000D01*
X223208000Y-85951000D02*
X222020000Y-85951000D01*
X219940000Y-85911000D02*
X218693000Y-85911000D01*
X223267000Y-85911000D02*
X222020000Y-85911000D01*
X219940000Y-85871000D02*
X218635000Y-85871000D01*
X223325000Y-85871000D02*
X222020000Y-85871000D01*
X219940000Y-85831000D02*
X218580000Y-85831000D01*
X223380000Y-85831000D02*
X222020000Y-85831000D01*
X219940000Y-85791000D02*
X218526000Y-85791000D01*
X223434000Y-85791000D02*
X222020000Y-85791000D01*
X219940000Y-85751000D02*
X218475000Y-85751000D01*
X223485000Y-85751000D02*
X222020000Y-85751000D01*
X219940000Y-85711000D02*
X218424000Y-85711000D01*
X223536000Y-85711000D02*
X222020000Y-85711000D01*
X219940000Y-85671000D02*
X218376000Y-85671000D01*
X223584000Y-85671000D02*
X222020000Y-85671000D01*
X219940000Y-85631000D02*
X218329000Y-85631000D01*
X223631000Y-85631000D02*
X222020000Y-85631000D01*
X219940000Y-85591000D02*
X218283000Y-85591000D01*
X223677000Y-85591000D02*
X222020000Y-85591000D01*
X219940000Y-85551000D02*
X218239000Y-85551000D01*
X223721000Y-85551000D02*
X222020000Y-85551000D01*
X219940000Y-85511000D02*
X218196000Y-85511000D01*
X223764000Y-85511000D02*
X222020000Y-85511000D01*
X219940000Y-85471000D02*
X218154000Y-85471000D01*
X223806000Y-85471000D02*
X222020000Y-85471000D01*
X219940000Y-85431000D02*
X218113000Y-85431000D01*
X223847000Y-85431000D02*
X222020000Y-85431000D01*
X219940000Y-85391000D02*
X218073000Y-85391000D01*
X223887000Y-85391000D02*
X222020000Y-85391000D01*
X219940000Y-85351000D02*
X218035000Y-85351000D01*
X223925000Y-85351000D02*
X222020000Y-85351000D01*
X219940000Y-85311000D02*
X217997000Y-85311000D01*
X223963000Y-85311000D02*
X222020000Y-85311000D01*
X219940000Y-85271000D02*
X217961000Y-85271000D01*
X223999000Y-85271000D02*
X222020000Y-85271000D01*
X219940000Y-85231000D02*
X217925000Y-85231000D01*
X224035000Y-85231000D02*
X222020000Y-85231000D01*
X219940000Y-85191000D02*
X217890000Y-85191000D01*
X224070000Y-85191000D02*
X222020000Y-85191000D01*
X219940000Y-85151000D02*
X217856000Y-85151000D01*
X224104000Y-85151000D02*
X222020000Y-85151000D01*
X219940000Y-85111000D02*
X217824000Y-85111000D01*
X224136000Y-85111000D02*
X222020000Y-85111000D01*
X219940000Y-85071000D02*
X217791000Y-85071000D01*
X224169000Y-85071000D02*
X222020000Y-85071000D01*
X219940000Y-85031000D02*
X217760000Y-85031000D01*
X224200000Y-85031000D02*
X222020000Y-85031000D01*
X219940000Y-84991000D02*
X217730000Y-84991000D01*
X224230000Y-84991000D02*
X222020000Y-84991000D01*
X219940000Y-84951000D02*
X217700000Y-84951000D01*
X224260000Y-84951000D02*
X222020000Y-84951000D01*
X219940000Y-84911000D02*
X217671000Y-84911000D01*
X224289000Y-84911000D02*
X222020000Y-84911000D01*
X219940000Y-84871000D02*
X217642000Y-84871000D01*
X224318000Y-84871000D02*
X222020000Y-84871000D01*
X219940000Y-84831000D02*
X217615000Y-84831000D01*
X224345000Y-84831000D02*
X222020000Y-84831000D01*
X219940000Y-84791000D02*
X217588000Y-84791000D01*
X224372000Y-84791000D02*
X222020000Y-84791000D01*
X219940000Y-84751000D02*
X217562000Y-84751000D01*
X224398000Y-84751000D02*
X222020000Y-84751000D01*
X219940000Y-84711000D02*
X217536000Y-84711000D01*
X224424000Y-84711000D02*
X222020000Y-84711000D01*
X219940000Y-84671000D02*
X217511000Y-84671000D01*
X224449000Y-84671000D02*
X222020000Y-84671000D01*
X219940000Y-84631000D02*
X217487000Y-84631000D01*
X224473000Y-84631000D02*
X222020000Y-84631000D01*
X219940000Y-84591000D02*
X217463000Y-84591000D01*
X224497000Y-84591000D02*
X222020000Y-84591000D01*
X219940000Y-84551000D02*
X217440000Y-84551000D01*
X224520000Y-84551000D02*
X222020000Y-84551000D01*
X219940000Y-84511000D02*
X217418000Y-84511000D01*
X224542000Y-84511000D02*
X222020000Y-84511000D01*
X219940000Y-84471000D02*
X217396000Y-84471000D01*
X224564000Y-84471000D02*
X222020000Y-84471000D01*
X219940000Y-84431000D02*
X217374000Y-84431000D01*
X224586000Y-84431000D02*
X222020000Y-84431000D01*
X219940000Y-84391000D02*
X217353000Y-84391000D01*
X224607000Y-84391000D02*
X222020000Y-84391000D01*
X219940000Y-84351000D02*
X217333000Y-84351000D01*
X224627000Y-84351000D02*
X222020000Y-84351000D01*
X219940000Y-84311000D02*
X217314000Y-84311000D01*
X224646000Y-84311000D02*
X222020000Y-84311000D01*
X219940000Y-84271000D02*
X217294000Y-84271000D01*
X224666000Y-84271000D02*
X222020000Y-84271000D01*
X219940000Y-84231000D02*
X217276000Y-84231000D01*
X224684000Y-84231000D02*
X222020000Y-84231000D01*
X219940000Y-84191000D02*
X217258000Y-84191000D01*
X224702000Y-84191000D02*
X222020000Y-84191000D01*
X219940000Y-84151000D02*
X217240000Y-84151000D01*
X224720000Y-84151000D02*
X222020000Y-84151000D01*
X219940000Y-84111000D02*
X217223000Y-84111000D01*
X224737000Y-84111000D02*
X222020000Y-84111000D01*
X219940000Y-84071000D02*
X217206000Y-84071000D01*
X224754000Y-84071000D02*
X222020000Y-84071000D01*
X219940000Y-84031000D02*
X217190000Y-84031000D01*
X224770000Y-84031000D02*
X222020000Y-84031000D01*
X219940000Y-83991000D02*
X217175000Y-83991000D01*
X224785000Y-83991000D02*
X222020000Y-83991000D01*
X224801000Y-83951000D02*
X217159000Y-83951000D01*
X224815000Y-83911000D02*
X217145000Y-83911000D01*
X224830000Y-83871000D02*
X217130000Y-83871000D01*
X224843000Y-83831000D02*
X217117000Y-83831000D01*
X224857000Y-83791000D02*
X217103000Y-83791000D01*
X224869000Y-83751000D02*
X217091000Y-83751000D01*
X224882000Y-83711000D02*
X217078000Y-83711000D01*
X224894000Y-83671000D02*
X217066000Y-83671000D01*
X224905000Y-83631000D02*
X217055000Y-83631000D01*
X224916000Y-83591000D02*
X217044000Y-83591000D01*
X224927000Y-83551000D02*
X217033000Y-83551000D01*
X224937000Y-83511000D02*
X217023000Y-83511000D01*
X224947000Y-83471000D02*
X217013000Y-83471000D01*
X224956000Y-83431000D02*
X217004000Y-83431000D01*
X224965000Y-83391000D02*
X216995000Y-83391000D01*
X224974000Y-83351000D02*
X216986000Y-83351000D01*
X224982000Y-83311000D02*
X216978000Y-83311000D01*
X224990000Y-83271000D02*
X216970000Y-83271000D01*
X224997000Y-83231000D02*
X216963000Y-83231000D01*
X225004000Y-83190000D02*
X216956000Y-83190000D01*
X225010000Y-83150000D02*
X216950000Y-83150000D01*
X225017000Y-83110000D02*
X216943000Y-83110000D01*
X225022000Y-83070000D02*
X216938000Y-83070000D01*
X225028000Y-83030000D02*
X216932000Y-83030000D01*
X225032000Y-82990000D02*
X216928000Y-82990000D01*
X225037000Y-82950000D02*
X216923000Y-82950000D01*
X225041000Y-82910000D02*
X216919000Y-82910000D01*
X225045000Y-82870000D02*
X216915000Y-82870000D01*
X225048000Y-82830000D02*
X216912000Y-82830000D01*
X225051000Y-82790000D02*
X216909000Y-82790000D01*
X225054000Y-82750000D02*
X216906000Y-82750000D01*
X225056000Y-82710000D02*
X216904000Y-82710000D01*
X225057000Y-82670000D02*
X216903000Y-82670000D01*
X225059000Y-82630000D02*
X216901000Y-82630000D01*
X225060000Y-82590000D02*
X216900000Y-82590000D01*
X225060000Y-82550000D02*
X216900000Y-82550000D01*
X225060000Y-82510000D02*
X216900000Y-82510000D01*
X225100000Y-82510000D02*
G75*
G03X225100000Y-82510000I-4120000J0D01*
G01*
X223695000Y-54370302D02*
X222895000Y-54370302D01*
X223295000Y-53970302D02*
X223295000Y-54770302D01*
X221513000Y-62461000D02*
X220447000Y-62461000D01*
X221748000Y-62421000D02*
X220212000Y-62421000D01*
X221928000Y-62381000D02*
X220032000Y-62381000D01*
X222078000Y-62341000D02*
X219882000Y-62341000D01*
X222209000Y-62301000D02*
X219751000Y-62301000D01*
X222326000Y-62261000D02*
X219634000Y-62261000D01*
X222433000Y-62221000D02*
X219527000Y-62221000D01*
X222532000Y-62181000D02*
X219428000Y-62181000D01*
X222625000Y-62141000D02*
X219335000Y-62141000D01*
X222711000Y-62101000D02*
X219249000Y-62101000D01*
X222793000Y-62061000D02*
X219167000Y-62061000D01*
X222870000Y-62021000D02*
X219090000Y-62021000D01*
X222944000Y-61981000D02*
X219016000Y-61981000D01*
X223014000Y-61941000D02*
X218946000Y-61941000D01*
X219940000Y-61901000D02*
X218878000Y-61901000D01*
X223082000Y-61901000D02*
X222020000Y-61901000D01*
X219940000Y-61861000D02*
X218814000Y-61861000D01*
X223146000Y-61861000D02*
X222020000Y-61861000D01*
X219940000Y-61821000D02*
X218752000Y-61821000D01*
X223208000Y-61821000D02*
X222020000Y-61821000D01*
X219940000Y-61781000D02*
X218693000Y-61781000D01*
X223267000Y-61781000D02*
X222020000Y-61781000D01*
X219940000Y-61741000D02*
X218635000Y-61741000D01*
X223325000Y-61741000D02*
X222020000Y-61741000D01*
X219940000Y-61701000D02*
X218580000Y-61701000D01*
X223380000Y-61701000D02*
X222020000Y-61701000D01*
X219940000Y-61661000D02*
X218526000Y-61661000D01*
X223434000Y-61661000D02*
X222020000Y-61661000D01*
X219940000Y-61621000D02*
X218475000Y-61621000D01*
X223485000Y-61621000D02*
X222020000Y-61621000D01*
X219940000Y-61581000D02*
X218424000Y-61581000D01*
X223536000Y-61581000D02*
X222020000Y-61581000D01*
X219940000Y-61541000D02*
X218376000Y-61541000D01*
X223584000Y-61541000D02*
X222020000Y-61541000D01*
X219940000Y-61501000D02*
X218329000Y-61501000D01*
X223631000Y-61501000D02*
X222020000Y-61501000D01*
X219940000Y-61461000D02*
X218283000Y-61461000D01*
X223677000Y-61461000D02*
X222020000Y-61461000D01*
X219940000Y-61421000D02*
X218239000Y-61421000D01*
X223721000Y-61421000D02*
X222020000Y-61421000D01*
X219940000Y-61381000D02*
X218196000Y-61381000D01*
X223764000Y-61381000D02*
X222020000Y-61381000D01*
X219940000Y-61341000D02*
X218154000Y-61341000D01*
X223806000Y-61341000D02*
X222020000Y-61341000D01*
X219940000Y-61301000D02*
X218113000Y-61301000D01*
X223847000Y-61301000D02*
X222020000Y-61301000D01*
X219940000Y-61261000D02*
X218073000Y-61261000D01*
X223887000Y-61261000D02*
X222020000Y-61261000D01*
X219940000Y-61221000D02*
X218035000Y-61221000D01*
X223925000Y-61221000D02*
X222020000Y-61221000D01*
X219940000Y-61181000D02*
X217997000Y-61181000D01*
X223963000Y-61181000D02*
X222020000Y-61181000D01*
X219940000Y-61141000D02*
X217961000Y-61141000D01*
X223999000Y-61141000D02*
X222020000Y-61141000D01*
X219940000Y-61101000D02*
X217925000Y-61101000D01*
X224035000Y-61101000D02*
X222020000Y-61101000D01*
X219940000Y-61061000D02*
X217890000Y-61061000D01*
X224070000Y-61061000D02*
X222020000Y-61061000D01*
X219940000Y-61021000D02*
X217856000Y-61021000D01*
X224104000Y-61021000D02*
X222020000Y-61021000D01*
X219940000Y-60981000D02*
X217824000Y-60981000D01*
X224136000Y-60981000D02*
X222020000Y-60981000D01*
X219940000Y-60941000D02*
X217791000Y-60941000D01*
X224169000Y-60941000D02*
X222020000Y-60941000D01*
X219940000Y-60901000D02*
X217760000Y-60901000D01*
X224200000Y-60901000D02*
X222020000Y-60901000D01*
X219940000Y-60861000D02*
X217730000Y-60861000D01*
X224230000Y-60861000D02*
X222020000Y-60861000D01*
X219940000Y-60821000D02*
X217700000Y-60821000D01*
X224260000Y-60821000D02*
X222020000Y-60821000D01*
X219940000Y-60781000D02*
X217671000Y-60781000D01*
X224289000Y-60781000D02*
X222020000Y-60781000D01*
X219940000Y-60741000D02*
X217642000Y-60741000D01*
X224318000Y-60741000D02*
X222020000Y-60741000D01*
X219940000Y-60701000D02*
X217615000Y-60701000D01*
X224345000Y-60701000D02*
X222020000Y-60701000D01*
X219940000Y-60661000D02*
X217588000Y-60661000D01*
X224372000Y-60661000D02*
X222020000Y-60661000D01*
X219940000Y-60621000D02*
X217562000Y-60621000D01*
X224398000Y-60621000D02*
X222020000Y-60621000D01*
X219940000Y-60581000D02*
X217536000Y-60581000D01*
X224424000Y-60581000D02*
X222020000Y-60581000D01*
X219940000Y-60541000D02*
X217511000Y-60541000D01*
X224449000Y-60541000D02*
X222020000Y-60541000D01*
X219940000Y-60501000D02*
X217487000Y-60501000D01*
X224473000Y-60501000D02*
X222020000Y-60501000D01*
X219940000Y-60461000D02*
X217463000Y-60461000D01*
X224497000Y-60461000D02*
X222020000Y-60461000D01*
X219940000Y-60421000D02*
X217440000Y-60421000D01*
X224520000Y-60421000D02*
X222020000Y-60421000D01*
X219940000Y-60381000D02*
X217418000Y-60381000D01*
X224542000Y-60381000D02*
X222020000Y-60381000D01*
X219940000Y-60341000D02*
X217396000Y-60341000D01*
X224564000Y-60341000D02*
X222020000Y-60341000D01*
X219940000Y-60301000D02*
X217374000Y-60301000D01*
X224586000Y-60301000D02*
X222020000Y-60301000D01*
X219940000Y-60261000D02*
X217353000Y-60261000D01*
X224607000Y-60261000D02*
X222020000Y-60261000D01*
X219940000Y-60221000D02*
X217333000Y-60221000D01*
X224627000Y-60221000D02*
X222020000Y-60221000D01*
X219940000Y-60181000D02*
X217314000Y-60181000D01*
X224646000Y-60181000D02*
X222020000Y-60181000D01*
X219940000Y-60141000D02*
X217294000Y-60141000D01*
X224666000Y-60141000D02*
X222020000Y-60141000D01*
X219940000Y-60101000D02*
X217276000Y-60101000D01*
X224684000Y-60101000D02*
X222020000Y-60101000D01*
X219940000Y-60061000D02*
X217258000Y-60061000D01*
X224702000Y-60061000D02*
X222020000Y-60061000D01*
X219940000Y-60021000D02*
X217240000Y-60021000D01*
X224720000Y-60021000D02*
X222020000Y-60021000D01*
X219940000Y-59981000D02*
X217223000Y-59981000D01*
X224737000Y-59981000D02*
X222020000Y-59981000D01*
X219940000Y-59941000D02*
X217206000Y-59941000D01*
X224754000Y-59941000D02*
X222020000Y-59941000D01*
X219940000Y-59901000D02*
X217190000Y-59901000D01*
X224770000Y-59901000D02*
X222020000Y-59901000D01*
X219940000Y-59861000D02*
X217175000Y-59861000D01*
X224785000Y-59861000D02*
X222020000Y-59861000D01*
X224801000Y-59821000D02*
X217159000Y-59821000D01*
X224815000Y-59781000D02*
X217145000Y-59781000D01*
X224830000Y-59741000D02*
X217130000Y-59741000D01*
X224843000Y-59701000D02*
X217117000Y-59701000D01*
X224857000Y-59661000D02*
X217103000Y-59661000D01*
X224869000Y-59621000D02*
X217091000Y-59621000D01*
X224882000Y-59581000D02*
X217078000Y-59581000D01*
X224894000Y-59541000D02*
X217066000Y-59541000D01*
X224905000Y-59501000D02*
X217055000Y-59501000D01*
X224916000Y-59461000D02*
X217044000Y-59461000D01*
X224927000Y-59421000D02*
X217033000Y-59421000D01*
X224937000Y-59381000D02*
X217023000Y-59381000D01*
X224947000Y-59341000D02*
X217013000Y-59341000D01*
X224956000Y-59301000D02*
X217004000Y-59301000D01*
X224965000Y-59261000D02*
X216995000Y-59261000D01*
X224974000Y-59221000D02*
X216986000Y-59221000D01*
X224982000Y-59181000D02*
X216978000Y-59181000D01*
X224990000Y-59141000D02*
X216970000Y-59141000D01*
X224997000Y-59101000D02*
X216963000Y-59101000D01*
X225004000Y-59060000D02*
X216956000Y-59060000D01*
X225010000Y-59020000D02*
X216950000Y-59020000D01*
X225017000Y-58980000D02*
X216943000Y-58980000D01*
X225022000Y-58940000D02*
X216938000Y-58940000D01*
X225028000Y-58900000D02*
X216932000Y-58900000D01*
X225032000Y-58860000D02*
X216928000Y-58860000D01*
X225037000Y-58820000D02*
X216923000Y-58820000D01*
X225041000Y-58780000D02*
X216919000Y-58780000D01*
X225045000Y-58740000D02*
X216915000Y-58740000D01*
X225048000Y-58700000D02*
X216912000Y-58700000D01*
X225051000Y-58660000D02*
X216909000Y-58660000D01*
X225054000Y-58620000D02*
X216906000Y-58620000D01*
X225056000Y-58580000D02*
X216904000Y-58580000D01*
X225057000Y-58540000D02*
X216903000Y-58540000D01*
X225059000Y-58500000D02*
X216901000Y-58500000D01*
X225060000Y-58460000D02*
X216900000Y-58460000D01*
X225060000Y-58420000D02*
X216900000Y-58420000D01*
X225060000Y-58380000D02*
X216900000Y-58380000D01*
X225100000Y-58380000D02*
G75*
G03X225100000Y-58380000I-4120000J0D01*
G01*
X199260000Y-75060000D02*
X212090000Y-75060000D01*
X199260000Y-54480000D02*
X199260000Y-75060000D01*
X214760000Y-54480000D02*
X199260000Y-54480000D01*
X214760000Y-72390000D02*
X214760000Y-54480000D01*
X212090000Y-72390000D02*
X214760000Y-72390000D01*
X212090000Y-75060000D02*
X212090000Y-72390000D01*
X214760000Y-75060000D02*
X214760000Y-73660000D01*
X213360000Y-75060000D02*
X214760000Y-75060000D01*
X212090000Y-72390000D02*
X212090000Y-54480000D01*
X201930000Y-75060000D02*
X201930000Y-54480000D01*
D11*
X195516666Y-102052380D02*
X195183333Y-101576190D01*
X194945238Y-102052380D02*
X194945238Y-101052380D01*
X195326190Y-101052380D01*
X195421428Y-101100000D01*
X195469047Y-101147619D01*
X195516666Y-101242857D01*
X195516666Y-101385714D01*
X195469047Y-101480952D01*
X195421428Y-101528571D01*
X195326190Y-101576190D01*
X194945238Y-101576190D01*
X195945238Y-101528571D02*
X196278571Y-101528571D01*
X196421428Y-102052380D02*
X195945238Y-102052380D01*
X195945238Y-101052380D01*
X196421428Y-101052380D01*
X197183333Y-101528571D02*
X196850000Y-101528571D01*
X196850000Y-102052380D02*
X196850000Y-101052380D01*
X197326190Y-101052380D01*
X197850000Y-101052380D02*
X197850000Y-101290476D01*
X197611904Y-101195238D02*
X197850000Y-101290476D01*
X198088095Y-101195238D01*
X197707142Y-101480952D02*
X197850000Y-101290476D01*
X197992857Y-101480952D01*
X198611904Y-101052380D02*
X198611904Y-101290476D01*
X198373809Y-101195238D02*
X198611904Y-101290476D01*
X198850000Y-101195238D01*
X198469047Y-101480952D02*
X198611904Y-101290476D01*
X198754761Y-101480952D01*
X229806666Y-102052380D02*
X229473333Y-101576190D01*
X229235238Y-102052380D02*
X229235238Y-101052380D01*
X229616190Y-101052380D01*
X229711428Y-101100000D01*
X229759047Y-101147619D01*
X229806666Y-101242857D01*
X229806666Y-101385714D01*
X229759047Y-101480952D01*
X229711428Y-101528571D01*
X229616190Y-101576190D01*
X229235238Y-101576190D01*
X230235238Y-101528571D02*
X230568571Y-101528571D01*
X230711428Y-102052380D02*
X230235238Y-102052380D01*
X230235238Y-101052380D01*
X230711428Y-101052380D01*
X231473333Y-101528571D02*
X231140000Y-101528571D01*
X231140000Y-102052380D02*
X231140000Y-101052380D01*
X231616190Y-101052380D01*
X232140000Y-101052380D02*
X232140000Y-101290476D01*
X231901904Y-101195238D02*
X232140000Y-101290476D01*
X232378095Y-101195238D01*
X231997142Y-101480952D02*
X232140000Y-101290476D01*
X232282857Y-101480952D01*
X232901904Y-101052380D02*
X232901904Y-101290476D01*
X232663809Y-101195238D02*
X232901904Y-101290476D01*
X233140000Y-101195238D01*
X232759047Y-101480952D02*
X232901904Y-101290476D01*
X233044761Y-101480952D01*
X206295714Y-100496666D02*
X206771904Y-100496666D01*
X206200476Y-100782380D02*
X206533809Y-99782380D01*
X206867142Y-100782380D01*
X207152857Y-99877619D02*
X207200476Y-99830000D01*
X207295714Y-99782380D01*
X207533809Y-99782380D01*
X207629047Y-99830000D01*
X207676666Y-99877619D01*
X207724285Y-99972857D01*
X207724285Y-100068095D01*
X207676666Y-100210952D01*
X207105238Y-100782380D01*
X207724285Y-100782380D01*
X175093333Y-101577142D02*
X175045714Y-101624761D01*
X174902857Y-101672380D01*
X174807619Y-101672380D01*
X174664761Y-101624761D01*
X174569523Y-101529523D01*
X174521904Y-101434285D01*
X174474285Y-101243809D01*
X174474285Y-101100952D01*
X174521904Y-100910476D01*
X174569523Y-100815238D01*
X174664761Y-100720000D01*
X174807619Y-100672380D01*
X174902857Y-100672380D01*
X175045714Y-100720000D01*
X175093333Y-100767619D01*
X175950476Y-100672380D02*
X175760000Y-100672380D01*
X175664761Y-100720000D01*
X175617142Y-100767619D01*
X175521904Y-100910476D01*
X175474285Y-101100952D01*
X175474285Y-101481904D01*
X175521904Y-101577142D01*
X175569523Y-101624761D01*
X175664761Y-101672380D01*
X175855238Y-101672380D01*
X175950476Y-101624761D01*
X175998095Y-101577142D01*
X176045714Y-101481904D01*
X176045714Y-101243809D01*
X175998095Y-101148571D01*
X175950476Y-101100952D01*
X175855238Y-101053333D01*
X175664761Y-101053333D01*
X175569523Y-101100952D01*
X175521904Y-101148571D01*
X175474285Y-101243809D01*
X170917142Y-76366666D02*
X170964761Y-76414285D01*
X171012380Y-76557142D01*
X171012380Y-76652380D01*
X170964761Y-76795238D01*
X170869523Y-76890476D01*
X170774285Y-76938095D01*
X170583809Y-76985714D01*
X170440952Y-76985714D01*
X170250476Y-76938095D01*
X170155238Y-76890476D01*
X170060000Y-76795238D01*
X170012380Y-76652380D01*
X170012380Y-76557142D01*
X170060000Y-76414285D01*
X170107619Y-76366666D01*
X170012380Y-75461904D02*
X170012380Y-75938095D01*
X170488571Y-75985714D01*
X170440952Y-75938095D01*
X170393333Y-75842857D01*
X170393333Y-75604761D01*
X170440952Y-75509523D01*
X170488571Y-75461904D01*
X170583809Y-75414285D01*
X170821904Y-75414285D01*
X170917142Y-75461904D01*
X170964761Y-75509523D01*
X171012380Y-75604761D01*
X171012380Y-75842857D01*
X170964761Y-75938095D01*
X170917142Y-75985714D01*
X163663333Y-79987142D02*
X163615714Y-80034761D01*
X163472857Y-80082380D01*
X163377619Y-80082380D01*
X163234761Y-80034761D01*
X163139523Y-79939523D01*
X163091904Y-79844285D01*
X163044285Y-79653809D01*
X163044285Y-79510952D01*
X163091904Y-79320476D01*
X163139523Y-79225238D01*
X163234761Y-79130000D01*
X163377619Y-79082380D01*
X163472857Y-79082380D01*
X163615714Y-79130000D01*
X163663333Y-79177619D01*
X164520476Y-79415714D02*
X164520476Y-80082380D01*
X164282380Y-79034761D02*
X164044285Y-79749047D01*
X164663333Y-79749047D01*
X163663333Y-83797142D02*
X163615714Y-83844761D01*
X163472857Y-83892380D01*
X163377619Y-83892380D01*
X163234761Y-83844761D01*
X163139523Y-83749523D01*
X163091904Y-83654285D01*
X163044285Y-83463809D01*
X163044285Y-83320952D01*
X163091904Y-83130476D01*
X163139523Y-83035238D01*
X163234761Y-82940000D01*
X163377619Y-82892380D01*
X163472857Y-82892380D01*
X163615714Y-82940000D01*
X163663333Y-82987619D01*
X163996666Y-82892380D02*
X164615714Y-82892380D01*
X164282380Y-83273333D01*
X164425238Y-83273333D01*
X164520476Y-83320952D01*
X164568095Y-83368571D01*
X164615714Y-83463809D01*
X164615714Y-83701904D01*
X164568095Y-83797142D01*
X164520476Y-83844761D01*
X164425238Y-83892380D01*
X164139523Y-83892380D01*
X164044285Y-83844761D01*
X163996666Y-83797142D01*
X163663333Y-100307142D02*
X163615714Y-100354761D01*
X163472857Y-100402380D01*
X163377619Y-100402380D01*
X163234761Y-100354761D01*
X163139523Y-100259523D01*
X163091904Y-100164285D01*
X163044285Y-99973809D01*
X163044285Y-99830952D01*
X163091904Y-99640476D01*
X163139523Y-99545238D01*
X163234761Y-99450000D01*
X163377619Y-99402380D01*
X163472857Y-99402380D01*
X163615714Y-99450000D01*
X163663333Y-99497619D01*
X164044285Y-99497619D02*
X164091904Y-99450000D01*
X164187142Y-99402380D01*
X164425238Y-99402380D01*
X164520476Y-99450000D01*
X164568095Y-99497619D01*
X164615714Y-99592857D01*
X164615714Y-99688095D01*
X164568095Y-99830952D01*
X163996666Y-100402380D01*
X164615714Y-100402380D01*
X183066190Y-71596190D02*
X183542380Y-71596190D01*
X182542380Y-71929523D02*
X183066190Y-71596190D01*
X182542380Y-71262857D01*
X182637619Y-70977142D02*
X182590000Y-70929523D01*
X182542380Y-70834285D01*
X182542380Y-70596190D01*
X182590000Y-70500952D01*
X182637619Y-70453333D01*
X182732857Y-70405714D01*
X182828095Y-70405714D01*
X182970952Y-70453333D01*
X183542380Y-71024761D01*
X183542380Y-70405714D01*
X175768095Y-95762380D02*
X175768095Y-96571904D01*
X175815714Y-96667142D01*
X175863333Y-96714761D01*
X175958571Y-96762380D01*
X176149047Y-96762380D01*
X176244285Y-96714761D01*
X176291904Y-96667142D01*
X176339523Y-96571904D01*
X176339523Y-95762380D01*
X176720476Y-95762380D02*
X177339523Y-95762380D01*
X177006190Y-96143333D01*
X177149047Y-96143333D01*
X177244285Y-96190952D01*
X177291904Y-96238571D01*
X177339523Y-96333809D01*
X177339523Y-96571904D01*
X177291904Y-96667142D01*
X177244285Y-96714761D01*
X177149047Y-96762380D01*
X176863333Y-96762380D01*
X176768095Y-96714761D01*
X176720476Y-96667142D01*
X160382380Y-96011904D02*
X161191904Y-96011904D01*
X161287142Y-95964285D01*
X161334761Y-95916666D01*
X161382380Y-95821428D01*
X161382380Y-95630952D01*
X161334761Y-95535714D01*
X161287142Y-95488095D01*
X161191904Y-95440476D01*
X160382380Y-95440476D01*
X160477619Y-95011904D02*
X160430000Y-94964285D01*
X160382380Y-94869047D01*
X160382380Y-94630952D01*
X160430000Y-94535714D01*
X160477619Y-94488095D01*
X160572857Y-94440476D01*
X160668095Y-94440476D01*
X160810952Y-94488095D01*
X161382380Y-95059523D01*
X161382380Y-94440476D01*
X160852380Y-66206666D02*
X160376190Y-66540000D01*
X160852380Y-66778095D02*
X159852380Y-66778095D01*
X159852380Y-66397142D01*
X159900000Y-66301904D01*
X159947619Y-66254285D01*
X160042857Y-66206666D01*
X160185714Y-66206666D01*
X160280952Y-66254285D01*
X160328571Y-66301904D01*
X160376190Y-66397142D01*
X160376190Y-66778095D01*
X159852380Y-65873333D02*
X159852380Y-65254285D01*
X160233333Y-65587619D01*
X160233333Y-65444761D01*
X160280952Y-65349523D01*
X160328571Y-65301904D01*
X160423809Y-65254285D01*
X160661904Y-65254285D01*
X160757142Y-65301904D01*
X160804761Y-65349523D01*
X160852380Y-65444761D01*
X160852380Y-65730476D01*
X160804761Y-65825714D01*
X160757142Y-65873333D01*
X166203333Y-92272380D02*
X165870000Y-91796190D01*
X165631904Y-92272380D02*
X165631904Y-91272380D01*
X166012857Y-91272380D01*
X166108095Y-91320000D01*
X166155714Y-91367619D01*
X166203333Y-91462857D01*
X166203333Y-91605714D01*
X166155714Y-91700952D01*
X166108095Y-91748571D01*
X166012857Y-91796190D01*
X165631904Y-91796190D01*
X166584285Y-91367619D02*
X166631904Y-91320000D01*
X166727142Y-91272380D01*
X166965238Y-91272380D01*
X167060476Y-91320000D01*
X167108095Y-91367619D01*
X167155714Y-91462857D01*
X167155714Y-91558095D01*
X167108095Y-91700952D01*
X166536666Y-92272380D01*
X167155714Y-92272380D01*
X202862380Y-102433333D02*
X203576666Y-102433333D01*
X203719523Y-102480952D01*
X203814761Y-102576190D01*
X203862380Y-102719047D01*
X203862380Y-102814285D01*
X203862380Y-101957142D02*
X202862380Y-101957142D01*
X202862380Y-101576190D01*
X202910000Y-101480952D01*
X202957619Y-101433333D01*
X203052857Y-101385714D01*
X203195714Y-101385714D01*
X203290952Y-101433333D01*
X203338571Y-101480952D01*
X203386190Y-101576190D01*
X203386190Y-101957142D01*
X202957619Y-101004761D02*
X202910000Y-100957142D01*
X202862380Y-100861904D01*
X202862380Y-100623809D01*
X202910000Y-100528571D01*
X202957619Y-100480952D01*
X203052857Y-100433333D01*
X203148095Y-100433333D01*
X203290952Y-100480952D01*
X203862380Y-101052380D01*
X203862380Y-100433333D01*
X164766666Y-69092380D02*
X164766666Y-69806666D01*
X164719047Y-69949523D01*
X164623809Y-70044761D01*
X164480952Y-70092380D01*
X164385714Y-70092380D01*
X165719047Y-69092380D02*
X165242857Y-69092380D01*
X165195238Y-69568571D01*
X165242857Y-69520952D01*
X165338095Y-69473333D01*
X165576190Y-69473333D01*
X165671428Y-69520952D01*
X165719047Y-69568571D01*
X165766666Y-69663809D01*
X165766666Y-69901904D01*
X165719047Y-69997142D01*
X165671428Y-70044761D01*
X165576190Y-70092380D01*
X165338095Y-70092380D01*
X165242857Y-70044761D01*
X165195238Y-69997142D01*
X232076666Y-64432380D02*
X232076666Y-65146666D01*
X232029047Y-65289523D01*
X231933809Y-65384761D01*
X231790952Y-65432380D01*
X231695714Y-65432380D01*
X232981428Y-64765714D02*
X232981428Y-65432380D01*
X232743333Y-64384761D02*
X232505238Y-65099047D01*
X233124285Y-65099047D01*
X183392380Y-107013333D02*
X184106666Y-107013333D01*
X184249523Y-107060952D01*
X184344761Y-107156190D01*
X184392380Y-107299047D01*
X184392380Y-107394285D01*
X183392380Y-106632380D02*
X183392380Y-106013333D01*
X183773333Y-106346666D01*
X183773333Y-106203809D01*
X183820952Y-106108571D01*
X183868571Y-106060952D01*
X183963809Y-106013333D01*
X184201904Y-106013333D01*
X184297142Y-106060952D01*
X184344761Y-106108571D01*
X184392380Y-106203809D01*
X184392380Y-106489523D01*
X184344761Y-106584761D01*
X184297142Y-106632380D01*
X166882380Y-107013333D02*
X167596666Y-107013333D01*
X167739523Y-107060952D01*
X167834761Y-107156190D01*
X167882380Y-107299047D01*
X167882380Y-107394285D01*
X166977619Y-106584761D02*
X166930000Y-106537142D01*
X166882380Y-106441904D01*
X166882380Y-106203809D01*
X166930000Y-106108571D01*
X166977619Y-106060952D01*
X167072857Y-106013333D01*
X167168095Y-106013333D01*
X167310952Y-106060952D01*
X167882380Y-106632380D01*
X167882380Y-106013333D01*
X160551904Y-92272380D02*
X160551904Y-91272380D01*
X160790000Y-91272380D01*
X160932857Y-91320000D01*
X161028095Y-91415238D01*
X161075714Y-91510476D01*
X161123333Y-91700952D01*
X161123333Y-91843809D01*
X161075714Y-92034285D01*
X161028095Y-92129523D01*
X160932857Y-92224761D01*
X160790000Y-92272380D01*
X160551904Y-92272380D01*
X161504285Y-91367619D02*
X161551904Y-91320000D01*
X161647142Y-91272380D01*
X161885238Y-91272380D01*
X161980476Y-91320000D01*
X162028095Y-91367619D01*
X162075714Y-91462857D01*
X162075714Y-91558095D01*
X162028095Y-91700952D01*
X161456666Y-92272380D01*
X162075714Y-92272380D01*
X226587142Y-82676666D02*
X226634761Y-82724285D01*
X226682380Y-82867142D01*
X226682380Y-82962380D01*
X226634761Y-83105238D01*
X226539523Y-83200476D01*
X226444285Y-83248095D01*
X226253809Y-83295714D01*
X226110952Y-83295714D01*
X225920476Y-83248095D01*
X225825238Y-83200476D01*
X225730000Y-83105238D01*
X225682380Y-82962380D01*
X225682380Y-82867142D01*
X225730000Y-82724285D01*
X225777619Y-82676666D01*
X226110952Y-82105238D02*
X226063333Y-82200476D01*
X226015714Y-82248095D01*
X225920476Y-82295714D01*
X225872857Y-82295714D01*
X225777619Y-82248095D01*
X225730000Y-82200476D01*
X225682380Y-82105238D01*
X225682380Y-81914761D01*
X225730000Y-81819523D01*
X225777619Y-81771904D01*
X225872857Y-81724285D01*
X225920476Y-81724285D01*
X226015714Y-81771904D01*
X226063333Y-81819523D01*
X226110952Y-81914761D01*
X226110952Y-82105238D01*
X226158571Y-82200476D01*
X226206190Y-82248095D01*
X226301428Y-82295714D01*
X226491904Y-82295714D01*
X226587142Y-82248095D01*
X226634761Y-82200476D01*
X226682380Y-82105238D01*
X226682380Y-81914761D01*
X226634761Y-81819523D01*
X226587142Y-81771904D01*
X226491904Y-81724285D01*
X226301428Y-81724285D01*
X226206190Y-81771904D01*
X226158571Y-81819523D01*
X226110952Y-81914761D01*
X226587142Y-58546666D02*
X226634761Y-58594285D01*
X226682380Y-58737142D01*
X226682380Y-58832380D01*
X226634761Y-58975238D01*
X226539523Y-59070476D01*
X226444285Y-59118095D01*
X226253809Y-59165714D01*
X226110952Y-59165714D01*
X225920476Y-59118095D01*
X225825238Y-59070476D01*
X225730000Y-58975238D01*
X225682380Y-58832380D01*
X225682380Y-58737142D01*
X225730000Y-58594285D01*
X225777619Y-58546666D01*
X225682380Y-58213333D02*
X225682380Y-57546666D01*
X226682380Y-57975238D01*
X206295714Y-76366666D02*
X206771904Y-76366666D01*
X206200476Y-76652380D02*
X206533809Y-75652380D01*
X206867142Y-76652380D01*
X207105238Y-75652380D02*
X207724285Y-75652380D01*
X207390952Y-76033333D01*
X207533809Y-76033333D01*
X207629047Y-76080952D01*
X207676666Y-76128571D01*
X207724285Y-76223809D01*
X207724285Y-76461904D01*
X207676666Y-76557142D01*
X207629047Y-76604761D01*
X207533809Y-76652380D01*
X207248095Y-76652380D01*
X207152857Y-76604761D01*
X207105238Y-76557142D01*
M02*
